<svg width="114" height="132" viewBox="0 0 114 132" fill="none" xmlns="http://www.w3.org/2000/svg">
<g clip-path="url(#clip0_13_4)">
<g opacity="0.95">
<path d="M43.4127 0.835796C42.3024 -0.278599 40.4982 -0.278599 39.3601 0.835796L39.2213 0.975095C38.111 2.08949 38.111 3.90038 39.2213 5.04263L44.3287 10.1688C18.9584 15.908 0 38.6973 0 65.8886C0 93.0798 20.7348 117.959 47.8817 122.305V113.529C25.5369 109.266 8.63258 89.5694 8.63258 65.8886C8.63258 42.2077 23.9825 24.3495 44.7728 18.9447L39.3879 24.3495C38.2776 25.4639 38.2776 27.2748 39.3879 28.4171C40.4982 29.5314 42.3024 29.5314 43.4405 28.4171L51.7955 20.0312C54.7655 17.0502 54.7655 12.2305 51.7955 9.24947L43.4127 0.835796Z" fill="#608CFE"/>
<path d="M70.5873 131.164C71.6976 132.279 73.5018 132.279 74.6399 131.164L74.7787 131.025C75.889 129.91 75.889 128.1 74.7787 126.957L69.6713 121.831C95.0416 116.064 114 93.3026 114 66.0836C114 38.8645 93.2652 14.0414 66.1183 9.66736V18.4432C88.4631 22.7058 105.367 42.4027 105.367 66.0836C105.367 89.7644 90.0175 107.623 69.2272 113.027L74.6121 107.623C75.7224 106.508 75.7224 104.697 74.6121 103.555C73.5018 102.441 71.6976 102.441 70.5595 103.555L62.2045 111.941C59.2345 114.922 59.2345 119.742 62.2045 122.723L70.5595 131.108L70.5873 131.164Z" fill="#608CFE"/>
</g>
</g>
<defs>
<clipPath id="clip0_13_4">
<rect width="114" height="132" fill="white"/>
</clipPath>
</defs>
</svg>
