<svg width="616" height="639" viewBox="0 0 616 639" fill="none" xmlns="http://www.w3.org/2000/svg">
<g opacity="0.7" clip-path="url(#clip0_5_8)" filter="url(#filter0_b_5_8)">
<g opacity="0.7">
<path d="M453.003 106.391V439.128H175C156.688 417.579 146.421 405.494 128.108 383.945L127.445 119.913" stroke="url(#paint0_linear_5_8)" stroke-width="0.85" stroke-miterlimit="10"/>
<path opacity="0.04" d="M469.028 581.332H326.712V230.104H530.538V519.895L469.028 581.332Z" stroke="url(#paint1_linear_5_8)" stroke-width="1.13" stroke-miterlimit="10"/>
<path opacity="0.1" d="M575.039 71.3588H405.991V444.256H575.039V71.3588Z" stroke="url(#paint2_linear_5_8)" stroke-width="2.26" stroke-miterlimit="10"/>
<path opacity="0.8" d="M259.021 262.133V478.465C271.927 493.649 279.156 502.163 292.063 517.347H427.574" stroke="url(#paint3_linear_5_8)" stroke-width="1.26" stroke-miterlimit="10"/>
<path d="M460.12 508.09L425.806 532.882V640.254" stroke="#B0FFFF" stroke-width="3.35" stroke-miterlimit="10"/>
<path d="M461.983 496.476C458.265 499.168 457.425 504.376 460.12 508.09C462.815 511.804 468.028 512.642 471.747 509.951C475.465 507.259 476.305 502.051 473.61 498.337C470.915 494.623 465.701 493.785 461.983 496.476C465.701 493.785 458.265 499.168 461.983 496.476ZM470.595 508.369C467.749 510.43 463.758 509.791 461.695 506.94C459.632 504.096 460.28 500.11 463.127 498.05C465.973 495.989 469.964 496.636 472.027 499.48C474.09 502.323 473.442 506.309 470.595 508.369C473.442 506.309 467.749 510.43 470.595 508.369Z" fill="#B0FFFF"/>
<path d="M417.474 646.619C417.474 642.035 421.208 638.305 425.798 638.305C430.388 638.305 434.123 642.035 434.123 646.619C434.123 651.204 430.388 654.934 425.798 654.934C421.208 654.934 417.474 651.204 417.474 646.619C417.474 651.204 417.474 642.035 417.474 646.619ZM432.172 646.619C432.172 643.105 429.317 640.254 425.798 640.254C422.28 640.254 419.425 643.105 419.425 646.619C419.425 650.134 422.28 652.985 425.798 652.985C429.317 652.985 432.172 650.134 432.172 646.619C432.172 650.134 432.172 643.105 432.172 646.619Z" fill="#B0FFFF"/>
<path d="M356.963 516.205V453.969" stroke="#B0FFFF" stroke-width="3.35" stroke-miterlimit="10"/>
<path d="M365.288 522.57C365.288 517.986 361.553 514.256 356.963 514.256C352.373 514.256 348.639 517.986 348.639 522.57C348.639 527.155 352.373 530.885 356.963 530.885C361.553 530.885 365.288 527.155 365.288 522.57C365.288 527.155 365.288 517.986 365.288 522.57ZM350.59 522.57C350.59 519.064 353.445 516.205 356.963 516.205C360.482 516.205 363.337 519.056 363.337 522.57C363.337 526.085 360.482 528.936 356.963 528.936C353.445 528.936 350.59 526.085 350.59 522.57C350.59 526.085 350.59 519.056 350.59 522.57Z" fill="#B0FFFF"/>
<path d="M365.288 447.603C365.288 452.187 361.553 455.917 356.963 455.917C352.373 455.917 348.639 452.187 348.639 447.603C348.639 443.018 352.373 439.288 356.963 439.288C361.553 439.288 365.288 443.018 365.288 447.603C365.288 452.187 365.288 443.018 365.288 447.603ZM350.59 447.603C350.59 451.117 353.445 453.969 356.963 453.969C360.482 453.969 363.337 451.117 363.337 447.603C363.337 444.088 360.482 441.237 356.963 441.237C353.445 441.237 350.59 444.088 350.59 447.603C350.59 451.117 350.59 444.088 350.59 447.603Z" fill="#B0FFFF"/>
<path d="M480.231 409.576L402.536 468.729V574.487" stroke="#B0FFFF" stroke-width="3.35" stroke-miterlimit="10"/>
<path d="M480.247 399.105C476.593 401.884 475.889 407.116 478.672 410.758C481.455 414.408 486.693 415.111 490.347 412.332C494.002 409.552 494.705 404.32 491.922 400.67C489.14 397.02 483.902 396.317 480.247 399.097C483.902 396.317 476.593 401.876 480.247 399.097V399.105ZM489.156 410.782C486.357 412.907 482.358 412.371 480.223 409.576C478.096 406.78 478.632 402.787 481.431 400.654C484.23 398.53 488.228 399.065 490.363 401.86C492.49 404.656 491.954 408.649 489.156 410.782C491.954 408.657 486.357 412.907 489.156 410.782Z" fill="#B0FFFF"/>
<path d="M394.204 582.81C394.204 578.225 397.938 574.495 402.528 574.495C407.118 574.495 410.853 578.225 410.853 582.81C410.853 587.394 407.118 591.124 402.528 591.124C397.938 591.124 394.204 587.394 394.204 582.81C394.204 587.394 394.204 578.225 394.204 582.81ZM408.902 582.81C408.902 579.295 406.047 576.444 402.528 576.444C399.01 576.444 396.155 579.295 396.155 582.81C396.155 586.324 399.01 589.176 402.528 589.176C406.047 589.176 408.902 586.324 408.902 582.81C408.902 586.324 408.902 579.295 408.902 582.81Z" fill="#B0FFFF"/>
<path d="M379.378 505.813V607.163" stroke="#B0FFFF" stroke-width="3.35" stroke-miterlimit="10"/>
<path d="M371.046 499.448C371.046 504.032 374.78 507.762 379.37 507.762C383.96 507.762 387.694 504.032 387.694 499.448C387.694 494.863 383.96 491.133 379.37 491.133C374.78 491.133 371.046 494.863 371.046 499.448C371.046 504.032 371.046 494.863 371.046 499.448ZM385.743 499.448C385.743 502.954 382.889 505.813 379.37 505.813C375.851 505.813 372.997 502.962 372.997 499.448C372.997 495.933 375.851 493.082 379.37 493.082C382.889 493.082 385.743 495.933 385.743 499.448C385.743 502.962 385.743 495.933 385.743 499.448Z" fill="#B0FFFF"/>
<path d="M371.046 613.528C371.046 608.944 374.78 605.214 379.37 605.214C383.96 605.214 387.694 608.944 387.694 613.528C387.694 618.113 383.96 621.843 379.37 621.843C374.78 621.843 371.046 618.113 371.046 613.528C371.046 618.113 371.046 608.944 371.046 613.528ZM385.743 613.528C385.743 610.022 382.889 607.163 379.37 607.163C375.851 607.163 372.997 610.014 372.997 613.528C372.997 617.043 375.851 619.894 379.37 619.894C382.889 619.894 385.743 617.043 385.743 613.528C385.743 617.043 385.743 610.014 385.743 613.528Z" fill="#B0FFFF"/>
<path d="M16.8033 251.526L70.1408 309.656H145.197L172.01 294.928L192.633 295.95" stroke="#B0FFFF" stroke-width="3.35" stroke-miterlimit="10"/>
<path d="M5.03234 251.014C8.13502 254.393 13.4128 254.625 16.7954 251.526C20.1779 248.427 20.4098 243.155 17.3071 239.776C14.2045 236.398 8.92669 236.166 5.54412 239.265C2.16155 242.364 1.92965 247.636 5.03234 251.014C8.13502 254.393 1.92965 247.636 5.03234 251.014ZM15.8678 241.094C18.2428 243.682 18.0668 247.716 15.4759 250.088C12.885 252.46 8.84673 252.284 6.47173 249.696C4.09674 247.109 4.27266 243.075 6.86356 240.703C9.45447 238.331 13.4928 238.506 15.8678 241.094C18.2428 243.682 13.4928 238.506 15.8678 241.094Z" fill="#B0FFFF"/>
<path d="M198.582 304.576C194 304.353 190.45 300.439 190.682 295.854C190.906 291.278 194.824 287.731 199.414 287.963C203.996 288.187 207.547 292.1 207.315 296.685C207.091 301.262 203.173 304.808 198.582 304.576C203.165 304.8 194 304.353 198.582 304.576ZM199.31 289.912C195.8 289.736 192.801 292.444 192.633 295.95C192.457 299.457 195.168 302.452 198.678 302.62C202.189 302.795 205.188 300.088 205.356 296.581C205.532 293.075 202.821 290.08 199.31 289.912C202.821 290.088 195.8 289.736 199.31 289.912Z" fill="#B0FFFF"/>
<path d="M423.551 494.503V484.144L463.798 457.707" stroke="#B0FFFF" stroke-width="3.35" stroke-miterlimit="10"/>
<path d="M431.876 500.869C431.876 496.285 428.141 492.555 423.551 492.555C418.961 492.555 415.227 496.285 415.227 500.869C415.227 505.454 418.961 509.184 423.551 509.184C428.141 509.184 431.876 505.454 431.876 500.869C431.876 505.454 431.876 496.285 431.876 500.869ZM417.178 500.869C417.178 497.355 420.033 494.504 423.551 494.504C427.07 494.504 429.925 497.355 429.925 500.869C429.925 504.384 427.07 507.235 423.551 507.235C420.033 507.235 417.178 504.384 417.178 500.869C417.178 504.384 417.178 497.355 417.178 500.869Z" fill="#B0FFFF"/>
<path d="M473.698 461.157C469.86 463.681 464.686 462.611 462.167 458.777C459.64 454.943 460.712 449.775 464.55 447.259C468.388 444.735 473.562 445.806 476.081 449.64C478.608 453.473 477.536 458.641 473.698 461.157C477.536 458.633 469.86 463.681 473.698 461.157ZM465.621 448.889C462.687 450.822 461.871 454.775 463.798 457.707C465.733 460.638 469.692 461.453 472.627 459.528C475.561 457.595 476.377 453.641 474.45 450.71C472.515 447.779 468.556 446.964 465.621 448.889C468.556 446.956 462.687 450.822 465.621 448.889Z" fill="#B0FFFF"/>
<path d="M510.211 427.459H529.858L587.49 371.229L586.179 325.367" stroke="#B0FFFF" stroke-width="3.35" stroke-miterlimit="10"/>
<path d="M503.054 435.774C507.644 435.774 511.378 432.044 511.378 427.459C511.378 422.875 507.644 419.145 503.054 419.145C498.464 419.145 494.729 422.875 494.729 427.459C494.729 432.044 498.464 435.774 503.054 435.774C507.644 435.774 498.464 435.774 503.054 435.774ZM503.054 421.093C506.572 421.093 509.427 423.945 509.427 427.459C509.427 430.974 506.572 433.825 503.054 433.825C499.535 433.825 496.68 430.974 496.68 427.459C496.68 423.945 499.535 421.093 503.054 421.093C506.572 421.093 499.535 421.093 503.054 421.093Z" fill="#B0FFFF"/>
<path d="M594.503 318.794C594.615 323.378 590.976 327.204 586.386 327.316C581.796 327.428 577.966 323.794 577.854 319.209C577.742 314.624 581.381 310.798 585.971 310.687C590.561 310.575 594.391 314.209 594.503 318.794C594.615 323.378 594.391 314.209 594.503 318.794ZM579.805 319.161C579.893 322.667 582.82 325.455 586.338 325.367C589.849 325.279 592.64 322.356 592.552 318.842C592.464 315.335 589.537 312.548 586.019 312.635C582.508 312.723 579.717 315.647 579.805 319.161C579.893 322.667 579.717 315.655 579.805 319.161Z" fill="#B0FFFF"/>
<path d="M433.467 326.949L388.758 287.244V233.97L414.219 213.043H515.073" stroke="#B0FFFF" stroke-width="3.35" stroke-miterlimit="10"/>
<path d="M445.222 326.262C441.792 323.211 436.514 323.522 433.467 326.949C430.412 330.375 430.724 335.647 434.155 338.69C437.585 341.741 442.863 341.429 445.91 338.003C448.965 334.576 448.653 329.305 445.222 326.262C448.653 329.313 441.792 323.211 445.222 326.262ZM435.45 337.236C432.827 334.904 432.588 330.87 434.923 328.25C437.258 325.631 441.296 325.391 443.919 327.723C446.542 330.056 446.782 334.089 444.447 336.709C442.112 339.329 438.073 339.568 435.45 337.236C438.073 339.568 432.827 334.904 435.45 337.236Z" fill="#B0FFFF"/>
<path d="M521.446 221.358C516.856 221.358 513.121 217.628 513.121 213.043C513.121 208.459 516.856 204.729 521.446 204.729C526.036 204.729 529.77 208.459 529.77 213.043C529.77 217.628 526.036 221.358 521.446 221.358C526.036 221.358 516.856 221.358 521.446 221.358ZM521.446 206.678C517.927 206.678 515.073 209.529 515.073 213.043C515.073 216.558 517.927 219.409 521.446 219.409C524.964 219.409 527.819 216.558 527.819 213.043C527.819 209.529 524.964 206.678 521.446 206.678C524.964 206.678 517.927 206.678 521.446 206.678Z" fill="#B0FFFF"/>
<path d="M592 228.475L621.668 258.115V320.695" stroke="#B0FFFF" stroke-width="3.35" stroke-miterlimit="10"/>
<path d="M581.604 229.856C584.851 233.099 590.137 233.099 593.383 229.856C596.63 226.614 596.63 221.334 593.383 218.091C590.137 214.848 584.851 214.848 581.604 218.091C578.358 221.334 578.358 226.614 581.604 229.856C584.851 233.099 578.358 226.614 581.604 229.856ZM592 219.473C594.487 221.957 594.487 225.991 592 228.475C589.513 230.959 585.475 230.959 582.988 228.475C580.501 225.991 580.501 221.957 582.988 219.473C585.475 216.989 589.513 216.989 592 219.473C594.487 221.957 589.513 216.989 592 219.473Z" fill="#B0FFFF"/>
<path d="M613.343 327.052C613.343 322.468 617.077 318.738 621.668 318.738C626.258 318.738 629.992 322.468 629.992 327.052C629.992 331.637 626.258 335.367 621.668 335.367C617.077 335.367 613.343 331.637 613.343 327.052C613.343 331.637 613.343 322.468 613.343 327.052ZM628.041 327.052C628.041 323.546 625.186 320.687 621.668 320.687C618.149 320.687 615.294 323.538 615.294 327.052C615.294 330.567 618.149 333.418 621.668 333.418C625.186 333.418 628.041 330.567 628.041 327.052C628.041 330.567 628.041 323.538 628.041 327.052Z" fill="#B0FFFF"/>
<path d="M221.421 -0.0704929L253.759 -25.6934H382.385" stroke="#B0FFFF" stroke-width="3.35" stroke-miterlimit="10"/>
<path d="M220.069 11.6147C223.668 8.76333 224.276 3.52374 221.421 -0.0704888C218.566 -3.66472 213.32 -4.27175 209.722 -1.42032C206.123 1.4311 205.516 6.67068 208.37 10.2649C211.225 13.8591 216.471 14.4662 220.069 11.6147C223.668 8.76333 216.471 14.4662 220.069 11.6147ZM210.937 0.113213C213.688 -2.06729 217.702 -1.60403 219.893 1.14356C222.077 3.89115 221.613 7.90072 218.862 10.0892C216.111 12.2697 212.097 11.8064 209.906 9.05886C207.723 6.31127 208.186 2.3017 210.937 0.113213C213.688 -2.06729 208.186 2.29371 210.937 0.113213Z" fill="#B0FFFF"/>
<path d="M48.6938 246.118L82.1517 279.537" stroke="#B0FFFF" stroke-width="3.35" stroke-miterlimit="10"/>
<path d="M36.9148 246.118C40.1615 249.361 45.4472 249.361 48.6938 246.118C51.9405 242.875 51.9405 237.596 48.6938 234.353C45.4472 231.11 40.1615 231.11 36.9148 234.353C33.6682 237.596 33.6682 242.875 36.9148 246.118C40.1615 249.361 33.6682 242.875 36.9148 246.118ZM47.3104 235.735C49.7974 238.219 49.7974 242.252 47.3104 244.737C44.8235 247.221 40.7852 247.221 38.2982 244.737C35.8113 242.252 35.8113 238.219 38.2982 235.735C40.7852 233.251 44.8235 233.251 47.3104 235.735C49.7974 238.219 44.8235 233.251 47.3104 235.735Z" fill="#B0FFFF"/>
<path d="M80.7683 289.92C77.5217 286.677 77.5217 281.398 80.7683 278.155C84.0149 274.912 89.3007 274.912 92.5473 278.155C95.7939 281.398 95.7939 286.677 92.5473 289.92C89.3007 293.163 84.0149 293.163 80.7683 289.92C84.0149 293.163 77.5217 286.677 80.7683 289.92ZM91.1639 279.537C88.6769 277.053 84.6386 277.053 82.1517 279.537C79.6647 282.021 79.6647 286.054 82.1517 288.538C84.6386 291.022 88.6769 291.022 91.1639 288.538C93.6508 286.054 93.6508 282.021 91.1639 279.537C93.6508 282.021 88.6769 277.053 91.1639 279.537Z" fill="#B0FFFF"/>
<path d="M77.1618 233.97L122.942 279.696" stroke="#B0FFFF" stroke-width="3.35" stroke-miterlimit="10"/>
<path d="M66.7662 235.344C70.0128 238.586 75.2986 238.586 78.5452 235.344C81.7919 232.101 81.7919 226.821 78.5452 223.578C75.2986 220.336 70.0128 220.336 66.7662 223.578C63.5196 226.821 63.5196 232.101 66.7662 235.344C70.0128 238.586 63.5196 232.101 66.7662 235.344ZM77.1618 224.96C79.6488 227.444 79.6488 231.478 77.1618 233.962C74.6749 236.446 70.6366 236.446 68.1496 233.962C65.6627 231.478 65.6627 227.444 68.1496 224.96C70.6366 222.476 74.6749 222.476 77.1618 224.96C79.6488 227.444 74.6749 222.476 77.1618 224.96Z" fill="#B0FFFF"/>
<path d="M121.559 290.072C118.312 286.829 118.312 281.549 121.559 278.307C124.806 275.064 130.091 275.064 133.338 278.307C136.585 281.549 136.585 286.829 133.338 290.072C130.091 293.314 124.806 293.314 121.559 290.072C124.806 293.314 118.312 286.829 121.559 290.072ZM131.955 279.688C129.468 277.204 125.429 277.204 122.942 279.688C120.455 282.172 120.455 286.206 122.942 288.69C125.429 291.174 129.468 291.174 131.955 288.69C134.442 286.206 134.442 282.172 131.955 279.688C134.442 282.172 129.468 277.204 131.955 279.688Z" fill="#B0FFFF"/>
<path d="M240.029 275.519H301.827V309.656L250.8 360.615" stroke="#B0FFFF" stroke-width="3.35" stroke-miterlimit="10"/>
<path d="M233.656 283.834C238.246 283.834 241.98 280.104 241.98 275.519C241.98 270.934 238.246 267.204 233.656 267.204C229.066 267.204 225.331 270.934 225.331 275.519C225.331 280.104 229.066 283.834 233.656 283.834C238.246 283.834 229.066 283.834 233.656 283.834ZM233.656 269.153C237.174 269.153 240.029 272.005 240.029 275.519C240.029 279.033 237.174 281.885 233.656 281.885C230.137 281.885 227.282 279.033 227.282 275.519C227.282 272.005 230.137 269.153 233.656 269.153C237.174 269.153 230.137 269.153 233.656 269.153Z" fill="#B0FFFF"/>
<path d="M240.413 359.233C243.659 355.99 248.945 355.99 252.192 359.233C255.438 362.475 255.438 367.755 252.192 370.998C248.945 374.241 243.659 374.241 240.413 370.998C237.166 367.755 237.166 362.475 240.413 359.233C243.659 355.99 237.166 362.475 240.413 359.233ZM250.808 369.616C253.295 367.132 253.295 363.099 250.808 360.615C248.321 358.13 244.283 358.13 241.796 360.615C239.309 363.099 239.309 367.132 241.796 369.616C244.283 372.1 248.321 372.1 250.808 369.616C253.295 367.132 248.321 372.1 250.808 369.616Z" fill="#B0FFFF"/>
<path d="M604.579 345.343V284.912" stroke="#B0FFFF" stroke-width="3.35" stroke-miterlimit="10"/>
<path d="M612.911 352.492C612.911 347.907 609.177 344.177 604.587 344.177C599.997 344.177 596.262 347.907 596.262 352.492C596.262 357.076 599.997 360.806 604.587 360.806C609.177 360.806 612.911 357.076 612.911 352.492C612.911 357.076 612.911 347.907 612.911 352.492ZM598.213 352.492C598.213 348.977 601.068 346.126 604.587 346.126C608.105 346.126 610.96 348.977 610.96 352.492C610.96 356.006 608.105 358.857 604.587 358.857C601.068 358.857 598.213 356.006 598.213 352.492C598.213 356.006 598.213 348.977 598.213 352.492Z" fill="#B0FFFF"/>
<path d="M612.911 278.546C612.911 283.131 609.177 286.861 604.587 286.861C599.997 286.861 596.262 283.131 596.262 278.546C596.262 273.962 599.997 270.232 604.587 270.232C609.177 270.232 612.911 273.962 612.911 278.546C612.911 283.131 612.911 273.962 612.911 278.546ZM598.213 278.546C598.213 282.061 601.068 284.912 604.587 284.912C608.105 284.912 610.96 282.061 610.96 278.546C610.96 275.032 608.105 272.18 604.587 272.18C601.068 272.18 598.213 275.032 598.213 278.546C598.213 282.061 598.213 275.032 598.213 278.546Z" fill="#B0FFFF"/>
<path d="M540.87 74.0425H584.875L603.411 103.06V188.491H552.641L527.068 153.986" stroke="#B0FFFF" stroke-width="3.35" stroke-miterlimit="10"/>
<path d="M532.537 82.3572C537.127 82.3572 540.862 78.6272 540.862 74.0426C540.862 69.4579 537.127 65.7279 532.537 65.7279C527.947 65.7279 524.213 69.4579 524.213 74.0426C524.213 78.6272 527.947 82.3572 532.537 82.3572C537.127 82.3572 527.947 82.3572 532.537 82.3572ZM532.537 67.6768C536.056 67.6768 538.911 70.5282 538.911 74.0426C538.911 77.5569 536.056 80.4083 532.537 80.4083C529.019 80.4083 526.164 77.5569 526.164 74.0426C526.164 70.5282 529.019 67.6768 532.537 67.6768C536.056 67.6768 529.019 67.6768 532.537 67.6768Z" fill="#B0FFFF"/>
<path d="M529.97 143.914C532.705 147.596 531.921 152.82 528.235 155.552C524.549 158.283 519.319 157.501 516.584 153.818C513.849 150.136 514.633 144.913 518.319 142.181C522.006 139.45 527.235 140.232 529.97 143.914C532.705 147.596 527.235 140.232 529.97 143.914ZM518.159 152.652C520.254 155.472 524.245 156.071 527.076 153.978C529.898 151.894 530.498 147.9 528.403 145.073C526.308 142.253 522.318 141.654 519.487 143.747C516.664 145.839 516.064 149.825 518.159 152.652C520.254 155.472 516.064 149.833 518.159 152.652Z" fill="#B0FFFF"/>
<path d="M630 205.232C630 200.647 626.266 196.917 621.676 196.917C617.085 196.917 613.351 200.647 613.351 205.232C613.351 209.817 617.085 213.547 621.676 213.547C626.266 213.547 630 209.817 630 205.232C630 209.817 630 200.647 630 205.232ZM615.302 205.232C615.302 201.718 618.157 198.866 621.676 198.866C625.194 198.866 628.049 201.718 628.049 205.232C628.049 208.746 625.194 211.598 621.676 211.598C618.157 211.598 615.302 208.746 615.302 205.232C615.302 208.746 615.302 201.718 615.302 205.232Z" fill="#B0FFFF"/>
<path d="M630 146.334C630 150.919 626.266 154.649 621.676 154.649C617.086 154.649 613.351 150.919 613.351 146.334C613.351 141.75 617.086 138.02 621.676 138.02C626.266 138.02 630 141.75 630 146.334C630 150.919 630 141.75 630 146.334ZM615.302 146.334C615.302 149.841 618.157 152.7 621.676 152.7C625.194 152.7 628.049 149.849 628.049 146.334C628.049 142.82 625.194 139.969 621.676 139.969C618.157 139.969 615.302 142.82 615.302 146.334C615.302 149.849 615.302 142.82 615.302 146.334Z" fill="#B0FFFF"/>
<path d="M343.889 229.465H214.896L154.585 165.072V131.271L194.112 98.2117" stroke="#B0FFFF" stroke-width="3.35" stroke-miterlimit="10"/>
<path d="M350.262 221.15C345.672 221.15 341.938 224.88 341.938 229.465C341.938 234.05 345.672 237.78 350.262 237.78C354.852 237.78 358.587 234.05 358.587 229.465C358.587 224.88 354.852 221.15 350.262 221.15C354.852 221.15 345.672 221.15 350.262 221.15ZM350.262 235.831C346.744 235.831 343.889 232.979 343.889 229.465C343.889 225.951 346.744 223.099 350.262 223.099C353.781 223.099 356.636 225.951 356.636 229.465C356.636 232.979 353.781 235.831 350.262 235.831C353.781 235.831 346.744 235.831 350.262 235.831Z" fill="#B0FFFF"/>
<path d="M204.34 100.504C200.822 103.451 195.56 102.98 192.609 99.4657C189.658 95.9513 190.13 90.6958 193.649 87.7485C197.167 84.8013 202.429 85.2725 205.38 88.7868C208.33 92.3012 207.859 97.5568 204.34 100.504C207.859 97.5568 200.822 103.451 204.34 100.504ZM194.904 89.2501C192.209 91.5025 191.849 95.528 194.112 98.2197C196.367 100.911 200.398 101.271 203.093 99.0104C205.787 96.758 206.147 92.7325 203.884 90.0408C201.629 87.3492 197.599 86.9897 194.904 89.2501C197.599 86.9977 192.209 91.5025 194.904 89.2501Z" fill="#B0FFFF"/>
<path d="M240.029 146.334H343.561V190.839" stroke="#B0FFFF" stroke-width="3.35" stroke-miterlimit="10"/>
<path d="M233.656 154.649C238.246 154.649 241.98 150.919 241.98 146.334C241.98 141.75 238.246 138.02 233.656 138.02C229.066 138.02 225.331 141.75 225.331 146.334C225.331 150.919 229.066 154.649 233.656 154.649C238.246 154.649 229.066 154.649 233.656 154.649ZM233.656 139.969C237.174 139.969 240.029 142.82 240.029 146.334C240.029 149.849 237.174 152.7 233.656 152.7C230.137 152.7 227.282 149.849 227.282 146.334C227.282 142.82 230.137 139.969 233.656 139.969C237.174 139.969 230.137 139.969 233.656 139.969Z" fill="#B0FFFF"/>
<path d="M335.237 197.205C335.237 192.62 338.971 188.89 343.561 188.89C348.151 188.89 351.886 192.62 351.886 197.205C351.886 201.789 348.151 205.519 343.561 205.519C338.971 205.519 335.237 201.789 335.237 197.205C335.237 201.789 335.237 192.62 335.237 197.205ZM349.934 197.205C349.934 193.698 347.08 190.839 343.561 190.839C340.043 190.839 337.188 193.69 337.188 197.205C337.188 200.719 340.043 203.571 343.561 203.571C347.08 203.571 349.934 200.719 349.934 197.205C349.934 200.719 349.934 193.69 349.934 197.205Z" fill="#B0FFFF"/>
<path d="M301.827 205.559V182.476H233.328" stroke="#B0FFFF" stroke-width="3.35" stroke-miterlimit="10"/>
<path d="M310.151 211.925C310.151 207.341 306.417 203.611 301.827 203.611C297.237 203.611 293.502 207.341 293.502 211.925C293.502 216.51 297.237 220.24 301.827 220.24C306.417 220.24 310.151 216.51 310.151 211.925C310.151 216.51 310.151 207.341 310.151 211.925ZM295.453 211.925C295.453 208.419 298.308 205.559 301.827 205.559C305.345 205.559 308.2 208.411 308.2 211.925C308.2 215.44 305.345 218.291 301.827 218.291C298.308 218.291 295.453 215.44 295.453 211.925C295.453 215.44 295.453 208.411 295.453 211.925Z" fill="#B0FFFF"/>
<path d="M226.954 174.162C231.545 174.162 235.279 177.892 235.279 182.476C235.279 187.061 231.545 190.791 226.954 190.791C222.364 190.791 218.63 187.061 218.63 182.476C218.63 177.892 222.364 174.162 226.954 174.162C231.545 174.162 222.364 174.162 226.954 174.162ZM226.954 188.842C230.473 188.842 233.328 185.991 233.328 182.476C233.328 178.962 230.473 176.111 226.954 176.111C223.436 176.111 220.581 178.962 220.581 182.476C220.581 185.991 223.436 188.842 226.954 188.842C230.473 188.842 223.436 188.842 226.954 188.842Z" fill="#B0FFFF"/>
<path d="M-17.3022 213.043H36.435" stroke="#B0FFFF" stroke-width="3.35" stroke-miterlimit="10"/>
<path d="M42.8004 221.358C38.2103 221.358 34.4759 217.628 34.4759 213.043C34.4759 208.459 38.2103 204.729 42.8004 204.729C47.3904 204.729 51.1249 208.459 51.1249 213.043C51.1249 217.628 47.3904 221.358 42.8004 221.358C47.3904 221.358 38.2103 221.358 42.8004 221.358ZM42.8004 206.678C39.2819 206.678 36.4271 209.529 36.4271 213.043C36.4271 216.558 39.2819 219.409 42.8004 219.409C46.3189 219.409 49.1737 216.558 49.1737 213.043C49.1737 209.529 46.3189 206.678 42.8004 206.678C46.3189 206.678 39.2819 206.678 42.8004 206.678Z" fill="#B0FFFF"/>
<path d="M47.1585 161.798H98.9366" stroke="#B0FFFF" stroke-width="3.35" stroke-miterlimit="10"/>
<path d="M38.834 170.112C43.4241 170.112 47.1585 166.382 47.1585 161.798C47.1585 157.213 43.4241 153.483 38.834 153.483C34.2439 153.483 30.5095 157.213 30.5095 161.798C30.5095 166.382 34.2439 170.112 38.834 170.112C43.4241 170.112 34.2439 170.112 38.834 170.112ZM38.834 155.432C42.3525 155.432 45.2073 158.283 45.2073 161.798C45.2073 165.312 42.3525 168.163 38.834 168.163C35.3155 168.163 32.4607 165.312 32.4607 161.798C32.4607 158.283 35.3155 155.432 38.834 155.432C42.3525 155.432 35.3155 155.432 38.834 155.432Z" fill="#B0FFFF"/>
<path d="M105.31 170.112C100.72 170.112 96.9854 166.382 96.9854 161.798C96.9854 157.213 100.72 153.483 105.31 153.483C109.9 153.483 113.634 157.213 113.634 161.798C113.634 166.382 109.9 170.112 105.31 170.112C109.9 170.112 100.72 170.112 105.31 170.112ZM105.31 155.432C101.791 155.432 98.9366 158.283 98.9366 161.798C98.9366 165.312 101.791 168.163 105.31 168.163C108.828 168.163 111.683 165.312 111.683 161.798C111.683 158.283 108.828 155.432 105.31 155.432C108.828 155.432 101.791 155.432 105.31 155.432Z" fill="#B0FFFF"/>
<path d="M270.768 256.829H324.497" stroke="#B0FFFF" stroke-width="3.35" stroke-miterlimit="10"/>
<path d="M264.395 265.144C268.985 265.144 272.719 261.414 272.719 256.829C272.719 252.244 268.985 248.514 264.395 248.514C259.805 248.514 256.07 252.244 256.07 256.829C256.07 261.414 259.805 265.144 264.395 265.144C268.985 265.144 259.805 265.144 264.395 265.144ZM264.395 250.463C267.913 250.463 270.768 253.315 270.768 256.829C270.768 260.343 267.913 263.195 264.395 263.195C260.876 263.195 258.021 260.343 258.021 256.829C258.021 253.315 260.876 250.463 264.395 250.463C267.913 250.463 260.876 250.463 264.395 250.463Z" fill="#B0FFFF"/>
<path d="M330.871 265.144C326.281 265.144 322.546 261.414 322.546 256.829C322.546 252.244 326.281 248.514 330.871 248.514C335.461 248.514 339.195 252.244 339.195 256.829C339.195 261.414 335.461 265.144 330.871 265.144C335.461 265.144 326.281 265.144 330.871 265.144ZM330.871 250.463C327.352 250.463 324.497 253.315 324.497 256.829C324.497 260.343 327.352 263.195 330.871 263.195C334.389 263.195 337.244 260.343 337.244 256.829C337.244 253.315 334.389 250.463 330.871 250.463C334.389 250.463 327.352 250.463 330.871 250.463Z" fill="#B0FFFF"/>
<path d="M306.329 51.4309L330.295 27.5013" stroke="#B0FFFF" stroke-width="3.35" stroke-miterlimit="10"/>
<path d="M307.712 61.8142C310.959 58.5714 310.959 53.2919 307.712 50.0491C304.466 46.8063 299.18 46.8063 295.933 50.0491C292.687 53.2919 292.687 58.5714 295.933 61.8142C299.18 65.057 304.466 65.057 307.712 61.8142C310.959 58.5714 304.466 65.057 307.712 61.8142ZM297.317 51.4309C299.804 48.9469 303.842 48.9469 306.329 51.4309C308.816 53.9149 308.816 57.9484 306.329 60.4324C303.842 62.9164 299.804 62.9164 297.317 60.4324C294.83 57.9484 294.83 53.9149 297.317 51.4309C299.804 48.9469 294.83 53.9149 297.317 51.4309Z" fill="#B0FFFF"/>
<path d="M342.066 27.5013C338.819 30.7441 333.533 30.7441 330.287 27.5013C327.04 24.2585 327.04 18.979 330.287 15.7362C333.533 12.4934 338.819 12.4934 342.066 15.7362C345.312 18.979 345.312 24.2585 342.066 27.5013C345.312 24.2585 338.819 30.7441 342.066 27.5013ZM331.67 17.118C329.183 19.602 329.183 23.6355 331.67 26.1195C334.157 28.6035 338.195 28.6035 340.682 26.1195C343.169 23.6355 343.169 19.602 340.682 17.118C338.195 14.6339 334.157 14.6339 331.67 17.118C334.157 14.6339 329.183 19.602 331.67 17.118Z" fill="#B0FFFF"/>
<path d="M80.2805 182.477H9.56641V139.641L38.7461 104.386" stroke="#B0FFFF" stroke-width="3.35" stroke-miterlimit="10"/>
<path d="M86.6538 174.162C82.0638 174.162 78.3293 177.892 78.3293 182.476C78.3293 187.061 82.0638 190.791 86.6538 190.791C91.2439 190.791 94.9783 187.061 94.9783 182.476C94.9783 177.892 91.2439 174.162 86.6538 174.162C91.2439 174.162 82.0638 174.162 86.6538 174.162ZM86.6538 188.842C83.1353 188.842 80.2805 185.991 80.2805 182.476C80.2805 178.962 83.1353 176.111 86.6538 176.111C90.1723 176.111 93.0271 178.962 93.0271 182.476C93.0271 185.991 90.1723 188.842 86.6538 188.842C90.1723 188.842 83.1353 188.842 86.6538 188.842Z" fill="#B0FFFF"/>
<path d="M49.2216 104.777C46.2949 108.316 41.0331 108.811 37.4986 105.887C33.9561 102.964 33.4603 97.7086 36.3871 94.1782C39.3138 90.6399 44.5756 90.1447 48.1101 93.068C51.6526 95.9913 52.1484 101.247 49.2216 104.777C52.1484 101.239 46.2949 108.316 49.2216 104.777ZM37.8904 95.4243C35.6514 98.1319 36.0352 102.149 38.7381 104.386C41.4489 106.622 45.4712 106.239 47.7103 103.539C49.9493 100.832 49.5655 96.814 46.8626 94.5776C44.1518 92.3412 40.1295 92.7246 37.8904 95.4243C40.1295 92.7166 35.6514 98.1319 37.8904 95.4243Z" fill="#B0FFFF"/>
<path d="M538.903 99.2021L485.301 96.8539V150.4L461.343 165.264" stroke="#B0FFFF" stroke-width="3.35" stroke-miterlimit="10"/>
<path d="M545.636 91.167C541.046 90.9673 537.151 94.5296 536.951 99.1143C536.751 103.699 540.318 107.589 544.908 107.788C549.498 107.988 553.392 104.426 553.592 99.8411C553.792 95.2565 550.226 91.3667 545.636 91.167C550.226 91.3667 541.046 90.9673 545.636 91.167ZM544.988 105.839C541.477 105.688 538.751 102.708 538.903 99.2021C539.054 95.6957 542.037 92.9721 545.548 93.1239C549.058 93.2756 551.785 96.2548 551.633 99.7612C551.481 103.268 548.498 105.991 544.988 105.839C548.498 105.991 541.477 105.688 544.988 105.839Z" fill="#B0FFFF"/>
<path d="M450.708 162.077C454.61 159.657 459.752 160.855 462.175 164.753C464.598 168.651 463.398 173.786 459.496 176.206C455.594 178.627 450.452 177.429 448.029 173.531C445.606 169.633 446.805 164.497 450.708 162.077C454.61 159.657 446.805 164.497 450.708 162.077ZM458.465 174.545C461.447 172.692 462.367 168.762 460.512 165.783C458.656 162.804 454.722 161.885 451.739 163.739C448.757 165.592 447.837 169.521 449.692 172.5C451.547 175.48 455.482 176.398 458.465 174.545C461.447 172.692 455.482 176.398 458.465 174.545Z" fill="#B0FFFF"/>
<path d="M496.68 188.491H432.172" stroke="#B0FFFF" stroke-width="3.35" stroke-miterlimit="10"/>
<path d="M503.054 180.176C498.464 180.176 494.729 183.906 494.729 188.491C494.729 193.075 498.464 196.805 503.054 196.805C507.644 196.805 511.378 193.075 511.378 188.491C511.378 183.906 507.644 180.176 503.054 180.176C507.644 180.176 498.464 180.176 503.054 180.176ZM503.054 194.857C499.535 194.857 496.68 192.005 496.68 188.491C496.68 184.976 499.535 182.125 503.054 182.125C506.572 182.125 509.427 184.976 509.427 188.491C509.427 192.005 506.572 194.857 503.054 194.857C506.572 194.857 499.535 194.857 503.054 194.857Z" fill="#B0FFFF"/>
<path d="M425.806 180.176C430.396 180.176 434.131 183.906 434.131 188.491C434.131 193.075 430.396 196.805 425.806 196.805C421.216 196.805 417.482 193.075 417.482 188.491C417.482 183.906 421.216 180.176 425.806 180.176C430.396 180.176 421.216 180.176 425.806 180.176ZM425.806 194.857C429.317 194.857 432.18 192.005 432.18 188.491C432.18 184.976 429.325 182.125 425.806 182.125C422.288 182.125 419.433 184.976 419.433 188.491C419.433 192.005 422.288 194.857 425.806 194.857C429.325 194.857 422.288 194.857 425.806 194.857Z" fill="#B0FFFF"/>
<path d="M363.337 5.09723H409.037L471.131 57.9803H503.382" stroke="#B0FFFF" stroke-width="3.35" stroke-miterlimit="10"/>
<path d="M356.963 13.4199C361.553 13.4199 365.288 9.68988 365.288 5.10524C365.288 0.520597 361.553 -3.20941 356.963 -3.20941C352.373 -3.20941 348.639 0.520597 348.639 5.10524C348.639 9.68988 352.373 13.4199 356.963 13.4199C361.553 13.4199 352.373 13.4199 356.963 13.4199ZM356.963 -1.26054C360.482 -1.26054 363.337 1.59088 363.337 5.10524C363.337 8.61959 360.482 11.471 356.963 11.471C353.445 11.471 350.59 8.61959 350.59 5.10524C350.59 1.59088 353.445 -1.26054 356.963 -1.26054C360.482 -1.26054 353.445 -1.26054 356.963 -1.26054Z" fill="#B0FFFF"/>
<path d="M509.755 66.295C505.165 66.295 501.43 62.565 501.43 57.9804C501.43 53.3957 505.165 49.6657 509.755 49.6657C514.345 49.6657 518.079 53.3957 518.079 57.9804C518.079 62.565 514.345 66.295 509.755 66.295C514.345 66.295 505.165 66.295 509.755 66.295ZM509.755 51.6146C506.236 51.6146 503.382 54.466 503.382 57.9804C503.382 61.4947 506.236 64.3461 509.755 64.3461C513.273 64.3461 516.128 61.4947 516.128 57.9804C516.128 54.466 513.273 51.6146 509.755 51.6146C513.273 51.6146 506.236 51.6146 509.755 51.6146Z" fill="#B0FFFF"/>
<path d="M550.81 131.127L573.872 157.037" stroke="#B0FFFF" stroke-width="3.35" stroke-miterlimit="10"/>
<path d="M539.047 130.44C542.101 133.867 547.371 134.178 550.802 131.127C554.232 128.076 554.544 122.812 551.489 119.386C548.435 115.959 543.165 115.648 539.734 118.699C536.304 121.75 535.992 127.014 539.047 130.44C542.101 133.867 535.992 127.014 539.047 130.44ZM550.034 120.68C552.369 123.299 552.129 127.333 549.506 129.665C546.883 131.998 542.845 131.766 540.51 129.138C538.175 126.518 538.407 122.485 541.038 120.153C543.661 117.82 547.699 118.06 550.034 120.68C552.369 123.299 547.699 118.06 550.034 120.68Z" fill="#B0FFFF"/>
<path d="M571.889 167.325C568.834 163.898 569.146 158.627 572.576 155.584C576.007 152.533 581.285 152.844 584.331 156.271C587.386 159.697 587.074 164.969 583.644 168.012C580.213 171.063 574.935 170.751 571.889 167.325C574.943 170.751 568.834 163.898 571.889 167.325ZM582.876 157.564C580.541 154.945 576.503 154.705 573.88 157.037C571.257 159.37 571.017 163.403 573.352 166.023C575.687 168.643 579.725 168.882 582.348 166.55C584.971 164.218 585.211 160.184 582.876 157.564C585.211 160.184 580.541 154.945 582.876 157.564Z" fill="#B0FFFF"/>
<path d="M268.905 113.731L288.608 94.1223L379.378 96.8539L423.551 132.996H448.725" stroke="#B0FFFF" stroke-width="3.35" stroke-miterlimit="10"/>
<path d="M270.272 124.114C273.527 120.879 273.535 115.6 270.296 112.349C267.057 109.098 261.772 109.09 258.517 112.325C255.262 115.56 255.254 120.839 258.493 124.09C261.732 127.341 267.017 127.349 270.272 124.114C273.527 120.879 267.017 127.349 270.272 124.114ZM259.9 113.715C262.387 111.239 266.434 111.247 268.913 113.731C271.392 116.215 271.384 120.256 268.897 122.732C266.41 125.208 262.363 125.2 259.884 122.716C257.406 120.232 257.414 116.191 259.9 113.715C262.387 111.239 257.414 116.191 259.9 113.715Z" fill="#B0FFFF"/>
<path d="M455.098 141.311C450.508 141.311 446.773 137.581 446.773 132.996C446.773 128.411 450.508 124.681 455.098 124.681C459.688 124.681 463.422 128.411 463.422 132.996C463.422 137.581 459.688 141.311 455.098 141.311C459.688 141.311 450.508 141.311 455.098 141.311ZM455.098 126.63C451.579 126.63 448.725 129.482 448.725 132.996C448.725 136.51 451.579 139.362 455.098 139.362C458.616 139.362 461.471 136.51 461.471 132.996C461.471 129.482 458.616 126.63 455.098 126.63C458.616 126.63 451.579 126.63 455.098 126.63Z" fill="#B0FFFF"/>
<path d="M424.671 60.3285L393.98 37.5251" stroke="#B0FFFF" stroke-width="3.35" stroke-miterlimit="10"/>
<path d="M435.234 56.1512C431.468 53.5235 426.27 54.45 423.639 58.2119C421.008 61.9739 421.936 67.1656 425.702 69.7933C429.469 72.4211 434.667 71.4946 437.298 67.7327C439.928 63.9707 439.001 58.779 435.234 56.1512C439.001 58.779 431.468 53.5235 435.234 56.1512ZM426.814 68.1879C423.935 66.1752 423.223 62.2055 425.239 59.3222C427.254 56.4468 431.228 55.7359 434.115 57.7487C436.994 59.7614 437.705 63.7311 435.69 66.6145C433.675 69.4898 429.701 70.2007 426.814 68.1879C429.693 70.2007 423.935 66.1752 426.814 68.1879Z" fill="#B0FFFF"/>
<path d="M393.524 27.0619C397.29 29.6897 398.21 34.8814 395.587 38.6433C392.956 42.4053 387.758 43.3238 383.992 40.704C380.226 38.0763 379.306 32.8846 381.929 29.1226C384.56 25.3607 389.758 24.4421 393.524 27.0619C397.29 29.6897 389.758 24.4342 393.524 27.0619ZM385.104 39.0986C387.982 41.1114 391.965 40.4005 393.98 37.5251C395.995 34.6498 395.283 30.6721 392.404 28.6594C389.526 26.6466 385.543 27.3575 383.528 30.2328C381.513 33.1082 382.225 37.0858 385.104 39.0986C387.982 41.1114 382.225 37.0858 385.104 39.0986Z" fill="#B0FFFF"/>
<path d="M376.595 57.6049L423.527 94.1223H455.586" stroke="#B0FFFF" stroke-width="3.35" stroke-miterlimit="10"/>
<path d="M366.599 60.7838C370.366 63.4116 375.564 62.4851 378.195 58.7231C380.825 54.9612 379.898 49.7695 376.131 47.1417C372.365 44.5139 367.167 45.4405 364.536 49.2024C361.905 52.9644 362.833 58.156 366.599 60.7838C370.366 63.4116 362.833 58.156 366.599 60.7838ZM375.02 48.7472C377.899 50.7599 378.61 54.7295 376.595 57.6129C374.58 60.4883 370.606 61.1992 367.719 59.1864C364.84 57.1736 364.129 53.204 366.144 50.3206C368.159 47.4452 372.133 46.7344 375.02 48.7472C377.899 50.7599 372.141 46.7344 375.02 48.7472Z" fill="#B0FFFF"/>
<path d="M461.959 102.437C457.369 102.437 453.635 98.707 453.635 94.1223C453.635 89.5377 457.369 85.8077 461.959 85.8077C466.549 85.8077 470.284 89.5377 470.284 94.1223C470.284 98.707 466.549 102.437 461.959 102.437C466.549 102.437 457.369 102.437 461.959 102.437ZM461.959 87.7566C458.441 87.7566 455.586 90.608 455.586 94.1223C455.586 97.6367 458.441 100.488 461.959 100.488C465.478 100.488 468.332 97.6367 468.332 94.1223C468.332 90.608 465.478 87.7566 461.959 87.7566C465.478 87.7566 458.441 87.7566 461.959 87.7566Z" fill="#B0FFFF"/>
<path d="M543.589 245.399H425.806V275.519L450.348 297.38" stroke="#B0FFFF" stroke-width="3.35" stroke-miterlimit="10"/>
<path d="M549.962 237.077C545.372 237.077 541.637 240.807 541.637 245.391C541.637 249.976 545.372 253.706 549.962 253.706C554.552 253.706 558.286 249.976 558.286 245.391C558.286 240.807 554.552 237.077 549.962 237.077C554.552 237.077 545.372 237.077 549.962 237.077ZM549.962 251.757C546.443 251.757 543.589 248.906 543.589 245.391C543.589 241.877 546.443 239.026 549.962 239.026C553.48 239.026 556.335 241.877 556.335 245.391C556.335 248.906 553.48 251.757 549.962 251.757C553.48 251.757 546.443 251.757 549.962 251.757Z" fill="#B0FFFF"/>
<path d="M449.556 307.827C446.134 304.776 445.83 299.505 448.885 296.086C451.939 292.668 457.217 292.364 460.64 295.415C464.062 298.466 464.366 303.738 461.311 307.156C458.257 310.575 452.979 310.878 449.556 307.827C452.979 310.878 446.134 304.776 449.556 307.827ZM459.344 296.869C456.721 294.529 452.683 294.76 450.348 297.38C448.005 300 448.237 304.033 450.86 306.366C453.483 308.706 457.521 308.474 459.856 305.854C462.199 303.235 461.967 299.201 459.344 296.869C461.967 299.209 456.721 294.529 459.344 296.869Z" fill="#B0FFFF"/>
<path d="M170.994 -2.25897H119.736L72.068 45.3446L84.9985 93.3316" stroke="#B0FFFF" stroke-width="3.35" stroke-miterlimit="10"/>
<path d="M177.367 -10.5816C172.777 -10.5816 169.043 -6.85159 169.043 -2.26695C169.043 2.31769 172.777 6.0477 177.367 6.0477C181.957 6.0477 185.692 2.31769 185.692 -2.26695C185.692 -6.85159 181.957 -10.5816 177.367 -10.5816C181.957 -10.5816 172.777 -10.5816 177.367 -10.5816ZM177.367 4.09883C173.849 4.09883 170.994 1.24741 170.994 -2.26695C170.994 -5.78131 173.849 -8.63273 177.367 -8.63273C180.886 -8.63273 183.741 -5.78131 183.741 -2.26695C183.741 1.24741 180.886 4.09883 177.367 4.09883C180.886 4.09883 173.849 4.09883 177.367 4.09883Z" fill="#B0FFFF"/>
<path d="M78.6172 101.638C77.4257 97.2133 80.0646 92.6367 84.4947 91.4466C88.9249 90.2565 93.5069 92.8923 94.6984 97.3172C95.8899 101.742 93.251 106.319 88.8209 107.509C84.3908 108.699 79.8087 106.071 78.6172 101.638C79.8087 106.063 77.4257 97.2133 78.6172 101.638ZM92.8112 97.8204C91.8996 94.4338 88.3971 92.413 84.9985 93.3316C81.608 94.2421 79.5848 97.7405 80.5044 101.135C81.416 104.522 84.9185 106.542 88.3171 105.624C91.7077 104.713 93.7308 101.215 92.8112 97.8204C93.7228 101.207 91.8996 94.4338 92.8112 97.8204Z" fill="#B0FFFF"/>
<path d="M132.578 109.785L192.113 66.0074H264.395L304.162 26.3671" stroke="#B0FFFF" stroke-width="3.35" stroke-miterlimit="10"/>
<path d="M132.386 120.256C136.081 117.541 136.881 112.317 134.154 108.627C131.435 104.937 126.205 104.138 122.511 106.862C118.816 109.577 118.017 114.801 120.743 118.491C123.47 122.181 128.692 122.98 132.386 120.256C136.081 117.541 128.692 122.972 132.386 120.256ZM123.67 108.435C126.501 106.351 130.499 106.958 132.578 109.785C134.666 112.613 134.058 116.606 131.227 118.683C128.396 120.768 124.398 120.161 122.319 117.333C120.24 114.506 120.839 110.512 123.67 108.435C126.501 106.351 120.839 110.52 123.67 108.435Z" fill="#B0FFFF"/>
<path d="M315.933 26.3831C312.686 29.6259 307.4 29.6179 304.154 26.3671C300.907 23.1243 300.915 17.8448 304.17 14.602C307.416 11.3592 312.702 11.3672 315.949 14.618C319.195 17.8607 319.187 23.1403 315.933 26.3831C319.179 23.1403 312.686 29.6259 315.933 26.3831ZM305.545 15.9917C303.058 18.4678 303.05 22.5093 305.537 24.9933C308.016 27.4773 312.063 27.4853 314.549 25.0013C317.036 22.5253 317.044 18.4837 314.557 15.9997C312.079 13.5157 308.032 13.5077 305.545 15.9917C308.032 13.5077 303.058 18.4678 305.545 15.9917Z" fill="#B0FFFF"/>
<path d="M272.111 11.0956L252.424 31.5428H177.367L139.384 62.9643" stroke="#B0FFFF" stroke-width="3.35" stroke-miterlimit="10"/>
<path d="M271.887 -0.669503C268.705 2.63719 268.809 7.90873 272.119 11.0876C275.43 14.2665 280.708 14.1627 283.89 10.864C287.073 7.55728 286.969 2.28575 283.667 -0.893143C280.356 -4.07204 275.078 -3.96821 271.895 -0.669503C275.078 -3.97619 268.713 2.63719 271.895 -0.669503H271.887ZM282.483 9.50616C280.044 12.0381 276.006 12.118 273.471 9.68188C270.936 7.24579 270.856 3.21226 273.295 0.680325C275.734 -1.85161 279.772 -1.93148 282.307 0.504613C284.842 2.9407 284.922 6.97422 282.483 9.50616C284.922 6.97422 280.044 12.0381 282.483 9.50616Z" fill="#B0FFFF"/>
<path d="M129.164 60.6241C132.698 57.7008 137.96 58.188 140.887 61.7263C143.814 65.2646 143.326 70.5122 139.783 73.4355C136.249 76.3588 130.987 75.8716 128.06 72.3333C125.134 68.803 125.621 63.5474 129.164 60.6241C132.698 57.7008 125.629 63.5474 129.164 60.6241ZM138.544 71.9339C141.247 69.6975 141.631 65.672 139.384 62.9723C137.144 60.2726 133.114 59.8893 130.411 62.1337C127.708 64.3701 127.325 68.3956 129.572 71.0953C131.811 73.7949 135.841 74.1783 138.544 71.9339C141.247 69.6975 135.841 74.1703 138.544 71.9339Z" fill="#B0FFFF"/>
<path d="M104.614 49.5219L129.907 24.9374" stroke="#B0FFFF" stroke-width="3.35" stroke-miterlimit="10"/>
<path d="M105.862 59.9212C109.148 56.7263 109.22 51.4468 106.022 48.1561C102.823 44.8734 97.5372 44.8015 94.2426 47.9964C90.956 51.1912 90.884 56.4708 94.0826 59.7615C97.2813 63.0442 102.567 63.1161 105.862 59.9212C109.148 56.7263 102.575 63.1161 105.862 59.9212ZM95.61 49.4021C98.1289 46.95 102.167 47.006 104.622 49.5219C107.077 52.0379 107.021 56.0714 104.502 58.5235C101.983 60.9755 97.945 60.9196 95.49 58.4037C93.0351 55.8877 93.0911 51.8542 95.61 49.4021C98.1289 46.95 93.0911 51.8542 95.61 49.4021Z" fill="#B0FFFF"/>
<path d="M140.287 26.4549C137 29.6498 131.715 29.5859 128.508 26.2952C125.309 23.0124 125.373 17.7329 128.668 14.5301C131.955 11.3352 137.24 11.3991 140.447 14.6898C143.646 17.9725 143.582 23.2521 140.287 26.4549C143.574 23.2601 137 29.6498 140.287 26.4549ZM130.035 15.9358C127.516 18.3879 127.461 22.4214 129.915 24.9374C132.37 27.4533 136.409 27.5092 138.928 25.0572C141.447 22.6051 141.503 18.5716 139.048 16.0556C136.593 13.5397 132.554 13.4838 130.035 15.9358C132.554 13.4838 127.516 18.3879 130.035 15.9358Z" fill="#B0FFFF"/>
<path d="M240.733 103.443L191.737 142.373" stroke="#B0FFFF" stroke-width="3.35" stroke-miterlimit="10"/>
<path d="M240.541 92.9722C236.95 95.8236 236.35 101.071 239.205 104.657C242.06 108.244 247.314 108.843 250.904 105.991C254.495 103.14 255.095 97.8923 252.24 94.306C249.385 90.7198 244.131 90.1208 240.541 92.9722C244.131 90.1208 236.95 95.8236 240.541 92.9722ZM249.689 104.466C246.938 106.654 242.924 106.191 240.733 103.443C238.542 100.696 239.005 96.6862 241.756 94.4977C244.507 92.3093 248.521 92.7725 250.712 95.5201C252.903 98.2677 252.44 102.277 249.689 104.466C252.44 102.277 246.938 106.654 249.689 104.466Z" fill="#B0FFFF"/>
<path d="M181.566 139.825C185.156 136.974 190.41 137.565 193.265 141.159C196.12 144.745 195.528 149.993 191.929 152.844C188.339 155.695 183.085 155.104 180.23 151.51C177.375 147.924 177.967 142.676 181.566 139.825C185.156 136.974 177.975 142.676 181.566 139.825ZM190.714 151.318C193.465 149.13 193.92 145.12 191.737 142.373C189.546 139.625 185.532 139.17 182.781 141.351C180.03 143.539 179.575 147.549 181.758 150.296C183.949 153.044 187.963 153.499 190.714 151.318C193.465 149.13 187.963 153.507 190.714 151.318Z" fill="#B0FFFF"/>
<path d="M503.054 306.397V368.09" stroke="#B0FFFF" stroke-width="3.35" stroke-miterlimit="10"/>
<path d="M494.729 300.271C494.729 304.856 498.464 308.586 503.054 308.586C507.644 308.586 511.378 304.856 511.378 300.271C511.378 295.687 507.644 291.957 503.054 291.957C498.464 291.957 494.729 295.687 494.729 300.271C494.729 304.856 494.729 295.687 494.729 300.271ZM509.427 300.271C509.427 303.786 506.572 306.637 503.054 306.637C499.535 306.637 496.68 303.786 496.68 300.271C496.68 296.757 499.535 293.906 503.054 293.906C506.572 293.906 509.427 296.757 509.427 300.271C509.427 303.786 509.427 296.757 509.427 300.271Z" fill="#B0FFFF"/>
<path d="M494.729 375.239C494.729 370.654 498.464 366.924 503.054 366.924C507.644 366.924 511.378 370.654 511.378 375.239C511.378 379.824 507.644 383.554 503.054 383.554C498.464 383.554 494.729 379.824 494.729 375.239C494.729 379.824 494.729 370.654 494.729 375.239ZM509.427 375.239C509.427 371.733 506.572 368.873 503.054 368.873C499.535 368.873 496.68 371.725 496.68 375.239C496.68 378.753 499.535 381.605 503.054 381.605C506.572 381.605 509.427 378.753 509.427 375.239C509.427 378.753 509.427 371.725 509.427 375.239Z" fill="#B0FFFF"/>
<path d="M526.508 306.397V368.09" stroke="#B0FFFF" stroke-width="3.35" stroke-miterlimit="10"/>
<path d="M518.183 300.271C518.183 304.856 521.918 308.586 526.508 308.586C531.098 308.586 534.832 304.856 534.832 300.271C534.832 295.687 531.098 291.957 526.508 291.957C521.918 291.957 518.183 295.687 518.183 300.271C518.183 304.856 518.183 295.687 518.183 300.271ZM532.881 300.271C532.881 303.786 530.026 306.637 526.508 306.637C522.989 306.637 520.134 303.786 520.134 300.271C520.134 296.757 522.989 293.906 526.508 293.906C530.026 293.906 532.881 296.757 532.881 300.271C532.881 303.786 532.881 296.757 532.881 300.271Z" fill="#B0FFFF"/>
<path d="M518.183 375.239C518.183 370.654 521.918 366.924 526.508 366.924C531.098 366.924 534.832 370.654 534.832 375.239C534.832 379.824 531.098 383.554 526.508 383.554C521.918 383.554 518.183 379.824 518.183 375.239C518.183 379.824 518.183 370.654 518.183 375.239ZM532.881 375.239C532.881 371.733 530.026 368.873 526.508 368.873C522.989 368.873 520.134 371.725 520.134 375.239C520.134 378.753 522.989 381.605 526.508 381.605C530.026 381.605 532.881 378.753 532.881 375.239C532.881 378.753 532.881 371.725 532.881 375.239Z" fill="#B0FFFF"/>
<path d="M549.962 306.397V368.09" stroke="#B0FFFF" stroke-width="3.35" stroke-miterlimit="10"/>
<path d="M541.637 300.271C541.637 304.856 545.372 308.586 549.962 308.586C554.552 308.586 558.286 304.856 558.286 300.271C558.286 295.687 554.552 291.957 549.962 291.957C545.372 291.957 541.637 295.687 541.637 300.271C541.637 304.856 541.637 295.687 541.637 300.271ZM556.335 300.271C556.335 303.786 553.48 306.637 549.962 306.637C546.443 306.637 543.589 303.786 543.589 300.271C543.589 296.757 546.443 293.906 549.962 293.906C553.48 293.906 556.335 296.757 556.335 300.271C556.335 303.786 556.335 296.757 556.335 300.271Z" fill="#B0FFFF"/>
<path d="M541.637 375.239C541.637 370.654 545.372 366.924 549.962 366.924C554.552 366.924 558.286 370.654 558.286 375.239C558.286 379.824 554.552 383.554 549.962 383.554C545.372 383.554 541.637 379.824 541.637 375.239C541.637 379.824 541.637 370.654 541.637 375.239ZM556.335 375.239C556.335 371.733 553.48 368.873 549.962 368.873C546.443 368.873 543.589 371.725 543.589 375.239C543.589 378.753 546.443 381.605 549.962 381.605C553.48 381.605 556.335 378.753 556.335 375.239C556.335 378.753 556.335 371.725 556.335 375.239Z" fill="#B0FFFF"/>
<path d="M197.855 250.751H149.219L121.383 217.9" stroke="#B0FFFF" stroke-width="3.35" stroke-miterlimit="10"/>
<path d="M206.179 242.436C201.589 242.436 197.855 246.166 197.855 250.751C197.855 255.336 201.589 259.066 206.179 259.066C210.769 259.066 214.504 255.336 214.504 250.751C214.504 246.166 210.769 242.436 206.179 242.436C210.769 242.436 201.589 242.436 206.179 242.436ZM206.179 257.117C202.661 257.117 199.806 254.265 199.806 250.751C199.806 247.237 202.661 244.385 206.179 244.385C209.698 244.385 212.553 247.237 212.553 250.751C212.553 254.265 209.698 257.117 206.179 257.117C209.698 257.117 202.661 257.117 206.179 257.117Z" fill="#B0FFFF"/>
<path d="M123.622 207.668C126.589 211.166 126.149 216.43 122.647 219.393C119.144 222.356 113.874 221.917 110.908 218.419C107.941 214.92 108.381 209.657 111.883 206.694C115.386 203.73 120.655 204.17 123.622 207.668C126.589 211.166 120.655 204.17 123.622 207.668ZM112.403 217.157C114.674 219.833 118.704 220.168 121.383 217.9C124.062 215.631 124.398 211.606 122.127 208.93C119.856 206.254 115.826 205.919 113.147 208.187C110.468 210.456 110.132 214.481 112.403 217.157C114.674 219.833 110.132 214.473 112.403 217.157Z" fill="#B0FFFF"/>
<path d="M364.696 315.519C358.323 315.407 336.86 315.519 336.86 315.519L301.827 343.123V399.352" stroke="#B0FFFF" stroke-width="3.35" stroke-miterlimit="10"/>
<path d="M374.62 307.612C370.254 306.198 365.544 308.594 364.128 312.955C362.713 317.316 365.112 322.02 369.478 323.434C373.844 324.848 378.554 322.452 379.97 318.091C381.385 313.73 378.986 309.025 374.62 307.612C378.986 309.025 370.254 306.198 374.62 307.612ZM370.078 321.573C366.735 320.487 364.904 316.893 365.984 313.554C367.071 310.215 370.67 308.386 374.012 309.465C377.355 310.551 379.194 314.145 378.107 317.484C377.019 320.822 373.421 322.651 370.078 321.573C373.421 322.659 366.735 320.487 370.078 321.573Z" fill="#B0FFFF"/>
<path d="M293.494 405.718C293.494 401.133 297.229 397.403 301.819 397.403C306.409 397.403 310.143 401.133 310.143 405.718C310.143 410.303 306.409 414.033 301.819 414.033C297.229 414.033 293.494 410.303 293.494 405.718C293.494 410.303 293.494 401.133 293.494 405.718ZM308.192 405.718C308.192 402.204 305.337 399.352 301.819 399.352C298.3 399.352 295.445 402.204 295.445 405.718C295.445 409.232 298.3 412.084 301.819 412.084C305.337 412.084 308.192 409.232 308.192 405.718C308.192 409.232 308.192 402.204 308.192 405.718Z" fill="#B0FFFF"/>
<path d="M338.068 359.999L359.746 343.123H402.536L455.098 381.94L398.426 423.681" stroke="#B0FFFF" stroke-width="3.35" stroke-miterlimit="10"/>
<path d="M336.62 371.677C340.243 368.857 340.89 363.618 338.068 359.999C335.245 356.381 329.999 355.734 326.376 358.554C322.754 361.373 322.106 366.613 324.929 370.231C327.752 373.849 332.998 374.496 336.62 371.677C340.243 368.857 332.998 374.496 336.62 371.677ZM327.584 360.095C330.359 357.939 334.365 358.434 336.524 361.206C338.683 363.977 338.187 367.979 335.413 370.135C332.638 372.292 328.631 371.797 326.472 369.025C324.313 366.253 324.809 362.252 327.584 360.095C330.359 357.939 324.809 362.252 327.584 360.095Z" fill="#B0FFFF"/>
<path d="M388.358 420.766C392.053 418.042 397.274 418.833 400.001 422.523C402.728 426.213 401.936 431.429 398.242 434.152C394.548 436.876 389.326 436.085 386.599 432.395C383.872 428.705 384.664 423.49 388.358 420.766C392.053 418.042 384.664 423.49 388.358 420.766ZM397.083 432.587C399.913 430.502 400.513 426.509 398.426 423.689C396.339 420.862 392.341 420.263 389.518 422.347C386.687 424.432 386.087 428.426 388.174 431.245C390.261 434.073 394.26 434.672 397.083 432.587C399.913 430.502 394.252 434.672 397.083 432.587Z" fill="#B0FFFF"/>
<path d="M405.303 380.295L377.107 401.852" stroke="#B0FFFF" stroke-width="3.35" stroke-miterlimit="10"/>
<path d="M406.854 368.634C403.208 371.421 402.512 376.653 405.303 380.295C408.094 383.937 413.332 384.632 416.978 381.844C420.625 379.057 421.32 373.825 418.529 370.183C415.739 366.541 410.501 365.846 406.854 368.634C410.501 365.846 403.208 371.421 406.854 368.634ZM415.787 380.295C412.996 382.427 408.989 381.9 406.854 379.113C404.719 376.325 405.247 372.324 408.038 370.191C410.829 368.059 414.835 368.586 416.97 371.373C419.105 374.161 418.577 378.162 415.787 380.295C418.577 378.162 412.996 382.427 415.787 380.295Z" fill="#B0FFFF"/>
<path d="M366.983 399.113C370.63 396.325 375.867 397.02 378.658 400.662C381.449 404.304 380.753 409.536 377.107 412.323C373.46 415.111 368.223 414.416 365.432 410.774C362.641 407.132 363.337 401.9 366.983 399.113C370.63 396.325 363.337 401.9 366.983 399.113ZM375.915 410.774C378.706 408.641 379.242 404.64 377.099 401.852C374.964 399.065 370.958 398.53 368.167 400.67C365.376 402.803 364.84 406.804 366.983 409.592C369.118 412.379 373.125 412.915 375.915 410.774C378.706 408.641 373.125 412.907 375.915 410.774Z" fill="#B0FFFF"/>
<path d="M374.62 379.105L344.873 401.852" stroke="#B0FFFF" stroke-width="3.35" stroke-miterlimit="10"/>
<path d="M374.62 368.634C370.974 371.421 370.278 376.653 373.069 380.295C375.859 383.937 381.097 384.632 384.744 381.844C388.39 379.057 389.086 373.825 386.295 370.183C383.504 366.541 378.266 365.846 374.62 368.634C378.266 365.846 370.974 371.421 374.62 368.634ZM383.552 380.295C380.761 382.427 376.755 381.9 374.62 379.113C372.485 376.325 373.013 372.324 375.803 370.191C378.594 368.059 382.601 368.586 384.736 371.373C386.871 374.161 386.343 378.162 383.552 380.295C386.343 378.162 380.761 382.427 383.552 380.295Z" fill="#B0FFFF"/>
<path d="M334.749 399.113C338.395 396.325 343.633 397.02 346.424 400.662C349.215 404.304 348.519 409.536 344.873 412.323C341.226 415.111 335.988 414.416 333.198 410.774C330.407 407.132 331.102 401.9 334.749 399.113C338.395 396.325 331.102 401.9 334.749 399.113ZM343.681 410.774C346.472 408.641 347.008 404.64 344.865 401.852C342.73 399.065 338.723 398.53 335.932 400.67C333.142 402.803 332.606 406.804 334.749 409.592C336.884 412.379 340.89 412.915 343.681 410.774C346.472 408.641 340.89 412.907 343.681 410.774Z" fill="#B0FFFF"/>
</g>
</g>
<defs>
<filter id="filter0_b_5_8" x="-4" y="-4" width="624" height="647" filterUnits="userSpaceOnUse" color-interpolation-filters="sRGB">
<feFlood flood-opacity="0" result="BackgroundImageFix"/>
<feGaussianBlur in="BackgroundImageFix" stdDeviation="2"/>
<feComposite in2="SourceAlpha" operator="in" result="effect1_backgroundBlur_5_8"/>
<feBlend mode="normal" in="SourceGraphic" in2="effect1_backgroundBlur_5_8" result="shape"/>
</filter>
<linearGradient id="paint0_linear_5_8" x1="127.109" y1="272.931" x2="453.339" y2="272.931" gradientUnits="userSpaceOnUse">
<stop stop-color="#3DDEED"/>
<stop offset="1" stop-color="#3DDEED" stop-opacity="0"/>
</linearGradient>
<linearGradient id="paint1_linear_5_8" x1="326.264" y1="405.718" x2="530.994" y2="405.718" gradientUnits="userSpaceOnUse">
<stop stop-color="#3DDEED"/>
<stop offset="1" stop-color="#3DDEED" stop-opacity="0"/>
</linearGradient>
<linearGradient id="paint2_linear_5_8" x1="405.087" y1="257.811" x2="575.943" y2="257.811" gradientUnits="userSpaceOnUse">
<stop stop-color="#3DDEED"/>
<stop offset="1" stop-color="#3DDEED" stop-opacity="0"/>
</linearGradient>
<linearGradient id="paint3_linear_5_8" x1="258.517" y1="389.991" x2="427.574" y2="389.991" gradientUnits="userSpaceOnUse">
<stop stop-color="#3DDEED"/>
<stop offset="1" stop-color="#3DDEED" stop-opacity="0"/>
</linearGradient>
<clipPath id="clip0_5_8">
<rect width="616" height="639" fill="white"/>
</clipPath>
</defs>
</svg>
