<svg width="88" height="91" viewBox="0 0 88 91" fill="none" xmlns="http://www.w3.org/2000/svg">
<g clip-path="url(#clip0_14_145)">
<path d="M75.7664 57.9888V78.7888H12.2044V57.9888H0V84.8944C0 88.2539 2.74453 91 6.13139 91H81.8978C85.2847 91 88.0292 88.2539 88.0292 84.8944V57.9888H75.8248H75.7664Z" fill="#BFD1FF"/>
<path d="M45.1095 0.788751L62.5985 21.9393C62.5985 21.9393 65.2555 24.4517 62.365 24.4517H52.4963C52.4963 24.4517 52.4963 26.1461 52.4963 28.7461C52.4963 36.1955 52.4963 49.7213 52.4963 55.2427C52.4963 55.2427 52.8759 56.7326 50.6277 56.7326C48.3795 56.7326 38.3941 56.7326 36.7591 56.7326C35.1241 56.7326 35.1825 55.4764 35.1825 55.4764C35.1825 50.1303 35.1825 36.1371 35.1825 28.9213V25.0652C35.1825 25.0652 29.6058 25.0652 26.073 25.0652C22.5401 25.0652 25.1971 22.4359 25.1971 22.4359C25.1971 22.4359 40.0876 2.65841 42.1606 0.584257C43.6496 -0.905631 45.0803 0.759538 45.0803 0.759538L45.1095 0.788751Z" fill="#BFD1FF"/>
</g>
<defs>
<clipPath id="clip0_14_145">
<rect width="88" height="91" fill="white"/>
</clipPath>
</defs>
</svg>
