<svg width="601" height="141" viewBox="0 0 601 141" fill="none" xmlns="http://www.w3.org/2000/svg">
<path d="M2.62616 97.2581C1.17112 97.1162 0 96.3359 0 95.5201V44.8692C0 44.0534 1.17112 43.2731 2.62616 43.1312C4.08119 42.9893 5.25232 43.5569 5.25232 44.4081V95.9812C5.25232 96.8324 4.08119 97.4 2.62616 97.2581Z" fill="#15FF98"/>
<path d="M16.8926 119.178C15.4375 118.966 14.2664 118.079 14.2664 117.192V23.1973C14.2664 22.3106 15.4375 21.4238 16.8926 21.211C18.3476 20.9982 19.5187 21.5302 19.5187 22.417V118.008C19.5187 118.895 18.3476 119.427 16.8926 119.214V119.178Z" fill="#15FF98"/>
<path d="M31.1945 84.7018C29.7395 84.6309 28.5684 83.8506 28.5684 82.9284V57.4256C28.5684 56.5034 29.7395 55.723 31.1945 55.6521C32.6496 55.5812 33.8207 56.2906 33.8207 57.2128V83.1057C33.8207 84.0279 32.6496 84.7373 31.1945 84.6664V84.7018Z" fill="#15FF98"/>
<path d="M45.5319 85.9433C44.0769 85.8723 42.8702 85.0565 42.8702 84.1343V56.2906C42.8702 55.3329 44.0414 54.5171 45.5319 54.4816C46.9869 54.4107 48.1935 55.1555 48.1935 56.1132V84.3471C48.1935 85.3048 47.0224 86.0497 45.5319 85.9788V85.9433Z" fill="#15FF98"/>
<path d="M59.9048 94.1368C58.4498 94.0658 57.2432 93.1791 57.2432 92.2214V48.2389C57.2432 47.2457 58.4143 46.3945 59.9048 46.3235C61.3598 46.2526 62.5665 46.9974 62.5665 47.9906V92.5406C62.5665 93.5338 61.3598 94.2786 59.9048 94.2077V94.1368Z" fill="#15FF98"/>
<path d="M74.3132 99.1735C72.8582 99.0671 71.6516 98.1803 71.6516 97.1872V43.2022C71.6516 42.1736 72.8582 41.2868 74.3132 41.2159C75.7682 41.1095 76.9748 41.8898 76.9748 42.9184V97.5064C76.9748 98.535 75.7682 99.2799 74.3132 99.209V99.1735Z" fill="#15FF98"/>
<path d="M88.757 88.2842C87.302 88.2487 86.0954 87.3265 86.0954 86.2979V54.0914C86.0954 53.0627 87.302 52.176 88.757 52.105C90.2121 52.0696 91.4187 52.8499 91.4187 53.914V86.4398C91.4187 87.5039 90.2121 88.3197 88.757 88.2487V88.2842Z" fill="#15FF98"/>
<path d="M103.236 109.14C101.746 109.034 100.575 108.076 100.575 107.012V33.377C100.575 32.3129 101.781 31.3553 103.236 31.2488C104.727 31.1424 105.898 31.9582 105.898 33.0223V107.367C105.898 108.467 104.691 109.247 103.236 109.14Z" fill="#15FF98"/>
<path d="M117.751 110.098C116.261 109.992 115.09 109.034 115.09 107.935V32.4549C115.09 31.3553 116.296 30.3976 117.751 30.2912C119.242 30.1848 120.413 31.0361 120.413 32.1356V108.254C120.413 109.353 119.206 110.205 117.751 110.098Z" fill="#15FF98"/>
<path d="M132.266 88.8518C130.776 88.8163 129.569 87.8587 129.569 86.7591V53.7013C129.569 52.5663 130.776 51.644 132.266 51.6086C133.757 51.5731 134.963 52.4598 134.963 53.5949V86.901C134.963 88.036 133.757 88.9228 132.266 88.8873V88.8518Z" fill="#15FF98"/>
<path d="M146.816 86.7945C145.326 86.7945 144.119 85.8013 144.119 84.6663V55.7584C144.119 54.6234 145.326 53.6657 146.816 53.6302C148.307 53.6302 149.514 54.517 149.514 55.652V84.7727C149.514 85.9432 148.307 86.8299 146.816 86.7945Z" fill="#15FF98"/>
<path d="M161.367 91.1927C159.876 91.1573 158.67 90.1996 158.67 89.0291V51.4311C158.67 50.2606 159.876 49.3029 161.367 49.2675C162.857 49.232 164.064 50.1542 164.064 51.3247V89.1709C164.064 90.3414 162.857 91.2637 161.367 91.2282V91.1927Z" fill="#15FF98"/>
<path d="M175.988 89.845C174.498 89.845 173.291 88.8163 173.291 87.6458V52.7791C173.291 51.6086 174.498 50.6154 175.988 50.5799C177.479 50.5445 178.685 51.5021 178.685 52.6727V87.7522C178.685 88.9582 177.479 89.8804 175.988 89.845Z" fill="#15FF98"/>
<path d="M190.574 87.5749C189.083 87.5749 187.877 86.5462 187.877 85.3757V55.0491C187.877 53.8431 189.083 52.85 190.574 52.85C192.064 52.85 193.271 53.7722 193.271 54.9782V85.4467C193.271 86.6527 192.064 87.6103 190.574 87.5749Z" fill="#15FF98"/>
<path d="M205.195 86.0496C203.705 86.0496 202.498 85.021 202.498 83.815V56.5388C202.498 55.3328 203.705 54.3397 205.195 54.3042C206.686 54.3042 207.892 55.2619 207.892 56.4679V83.8505C207.892 85.0565 206.686 86.0496 205.195 86.0142V86.0496Z" fill="#15FF98"/>
<path d="M219.852 130.21C218.362 130.139 217.155 129.11 217.155 127.868V12.5209C217.155 11.2794 218.362 10.2508 219.852 10.1798C221.343 10.1089 222.549 11.0666 222.549 12.308V128.046C222.549 129.287 221.343 130.245 219.852 130.174V130.21Z" fill="#15FF98"/>
<path d="M234.509 114.177C233.018 114.177 231.812 113.113 231.812 111.872V28.5177C231.812 27.2763 233.018 26.2476 234.509 26.2122C235.999 26.2122 237.206 27.1698 237.206 28.4113V111.978C237.206 113.219 235.999 114.213 234.509 114.177Z" fill="#15FF98"/>
<path d="M249.166 96.0877C247.675 96.0877 246.469 95.059 246.469 93.8176V46.6073C246.469 45.3659 247.675 44.3373 249.166 44.3373C250.656 44.3373 251.863 45.3304 251.863 46.5719V93.8531C251.863 95.0945 250.656 96.0877 249.166 96.0877Z" fill="#15FF98"/>
<path d="M263.822 85.6595C262.332 85.6595 261.125 84.6309 261.125 83.3895V57.0354C261.125 55.794 262.332 54.7654 263.822 54.7654C265.313 54.7654 266.52 55.7585 266.52 57.0354V83.4249C266.52 84.6664 265.313 85.695 263.822 85.695V85.6595Z" fill="#15FF98"/>
<path d="M278.479 93.6402C276.989 93.6402 275.782 92.6116 275.782 91.3347V49.0193C275.782 47.7778 276.989 46.7492 278.479 46.7137C279.97 46.7137 281.176 47.7069 281.176 48.9838V91.3347C281.176 92.5761 279.97 93.6048 278.479 93.6048V93.6402Z" fill="#15FF98"/>
<path d="M293.172 94.5624C291.681 94.5624 290.474 93.5338 290.474 92.2923V48.1325C290.474 46.8556 291.681 45.8624 293.172 45.8624C294.662 45.8624 295.869 46.891 295.869 48.1325V92.3278C295.869 93.6047 294.662 94.5979 293.172 94.5979V94.5624Z" fill="#15FF98"/>
<path d="M307.828 110.914C306.338 110.914 305.131 109.885 305.131 108.644V31.7454C305.131 30.4685 306.338 29.4753 307.828 29.4753C309.319 29.4753 310.525 30.504 310.525 31.7809V108.644C310.525 109.921 309.319 110.914 307.828 110.949V110.914Z" fill="#15FF98"/>
<path d="M322.521 140.389C321.03 140.389 319.824 139.396 319.824 138.155V2.23463C319.824 0.99319 321.03 -0.0354335 322.521 3.62329e-05C324.011 3.62329e-05 325.218 1.06413 325.218 2.30557V138.084C325.218 139.325 324.011 140.389 322.521 140.389Z" fill="#15FF98"/>
<path d="M337.177 90.0578C335.687 90.0578 334.48 89.0646 334.48 87.7877V52.6017C334.48 51.3603 335.687 50.3317 337.177 50.3317C338.668 50.3317 339.875 51.3603 339.875 52.6017C339.875 64.3068 339.875 76.0472 339.875 87.7523C339.875 88.9937 338.668 90.0223 337.177 90.0223V90.0578Z" fill="#15FF98"/>
<path d="M351.834 90.838C350.344 90.838 349.137 89.8449 349.137 88.6034V51.8213C349.137 50.5799 350.344 49.5512 351.834 49.5867C353.325 49.5867 354.531 50.6153 354.531 51.8568V88.568C354.531 89.8094 353.325 90.838 351.834 90.838Z" fill="#15FF98"/>
<path d="M366.491 100.273C365.001 100.273 363.794 99.3154 363.794 98.0739V42.3509C363.794 41.1095 365.001 40.1163 366.491 40.1518C367.982 40.1518 369.188 41.1804 369.188 42.4219V97.9675C369.188 99.209 367.982 100.238 366.491 100.238V100.273Z" fill="#15FF98"/>
<path d="M381.148 105.203C379.657 105.203 378.451 104.246 378.451 103.04V37.3852C378.451 36.1437 379.657 35.1861 381.148 35.2215C382.638 35.2215 383.845 36.2856 383.845 37.4916V102.933C383.845 104.175 382.638 105.168 381.148 105.203Z" fill="#15FF98"/>
<path d="M395.805 91.1927C394.314 91.1927 393.108 90.235 393.108 89.0291V51.3957C393.108 50.1897 394.314 49.1965 395.805 49.232C397.295 49.232 398.502 50.2606 398.502 51.4666V88.9581C398.502 90.1641 397.295 91.1927 395.805 91.1927Z" fill="#15FF98"/>
<path d="M410.426 113.716C408.936 113.787 407.729 112.829 407.729 111.623V28.7305C407.729 27.5246 408.936 26.6024 410.426 26.6378C411.917 26.7088 413.123 27.7019 413.123 28.9079V111.411C413.123 112.617 411.917 113.645 410.426 113.681V113.716Z" fill="#15FF98"/>
<path d="M425.012 113.149C423.521 113.219 422.315 112.297 422.315 111.091V29.298C422.315 28.092 423.521 27.2053 425.012 27.2408C426.502 27.3117 427.709 28.3049 427.709 29.5108V110.914C427.709 112.084 426.502 113.113 425.012 113.184V113.149Z" fill="#15FF98"/>
<path d="M439.598 89.5257C438.107 89.5257 436.901 88.639 436.901 87.4685V52.9209C436.901 51.7504 438.107 50.8282 439.598 50.8637C441.088 50.8637 442.295 51.8568 442.295 53.0273V87.362C442.295 88.5325 441.088 89.4902 439.598 89.5257Z" fill="#15FF98"/>
<path d="M454.183 86.7945C452.693 86.7945 451.486 85.9078 451.486 84.7728V55.6521C451.486 54.4816 452.693 53.5948 454.183 53.6303C455.674 53.6303 456.881 54.6235 456.881 55.7585V84.6663C456.881 85.8014 455.674 86.7591 454.183 86.7945Z" fill="#15FF98"/>
<path d="M468.734 90.4125C467.243 90.4479 466.037 89.5612 466.037 88.4262V51.9278C466.037 50.7927 467.243 49.906 468.734 49.9415C470.224 49.9769 471.431 50.9346 471.431 52.0696V88.2843C471.431 89.4193 470.224 90.3415 468.734 90.4125Z" fill="#15FF98"/>
<path d="M483.249 88.4261C481.758 88.4616 480.587 87.6103 480.587 86.5108V53.8786C480.587 52.779 481.794 51.8923 483.249 51.9632C484.739 51.9987 485.91 52.9209 485.91 54.0205C485.91 64.8033 485.91 75.5861 485.91 86.3689C485.91 87.4684 484.704 88.3907 483.249 88.4261Z" fill="#15FF98"/>
<path d="M497.763 85.7305C496.273 85.7659 495.102 84.9147 495.102 83.8506V56.5388C495.102 55.4393 496.308 54.6235 497.763 54.659C499.254 54.6944 500.425 55.6166 500.425 56.6807V83.7442C500.425 84.8082 499.218 85.7305 497.763 85.7659V85.7305Z" fill="#15FF98"/>
<path d="M512.243 83.8505C510.788 83.886 509.581 83.0702 509.581 82.0061V58.3477C509.581 57.2836 510.788 56.4678 512.243 56.5033C513.698 56.5388 514.905 57.4255 514.905 58.4541V81.8642C514.905 82.8928 513.698 83.7796 512.243 83.815V83.8505Z" fill="#15FF98"/>
<path d="M526.687 119.888C525.232 120.03 524.025 119.32 524.025 118.327C524.025 86.227 524.025 54.1624 524.025 22.0622C524.025 21.0336 525.232 20.3242 526.687 20.5016C528.142 20.6434 529.348 21.6011 529.348 22.6297V117.795C529.348 118.824 528.142 119.746 526.687 119.923V119.888Z" fill="#15FF98"/>
<path d="M541.095 105.203C539.64 105.31 538.434 104.6 538.434 103.607V36.7821C538.434 35.789 539.64 35.0796 541.095 35.186C542.55 35.2924 543.757 36.2146 543.757 37.1723V103.182C543.757 104.175 542.586 105.061 541.095 105.168V105.203Z" fill="#15FF98"/>
<path d="M555.468 89.9513C554.013 90.0222 552.806 89.3128 552.806 88.3552V52.0341C552.806 51.0764 553.978 50.3671 555.468 50.438C556.923 50.5089 558.13 51.3247 558.13 52.2824V88.1069C558.13 89.0646 556.959 89.8804 555.468 89.9513Z" fill="#15FF98"/>
<path d="M569.805 81.5096C568.35 81.545 567.179 80.8356 567.179 79.9134V60.5115C567.179 59.5893 568.35 58.8799 569.805 58.9153C571.26 58.9508 572.432 59.7311 572.432 60.6534V79.7716C572.432 80.6938 571.26 81.4386 569.805 81.5096Z" fill="#15FF98"/>
<path d="M584.107 86.5462C582.652 86.6172 581.481 85.9787 581.481 85.092V55.2974C581.481 54.4106 582.652 53.7367 584.107 53.8431C585.562 53.914 586.734 54.6944 586.734 55.5456V84.8437C586.734 85.7304 585.562 86.4753 584.107 86.5462Z" fill="#15FF98"/>
<path d="M598.374 86.4044C596.919 86.4753 595.748 85.8723 595.748 85.0211V55.3684C595.748 54.5171 596.919 53.9141 598.374 53.985C599.829 54.056 601 54.8008 601 55.6521V84.7373C601 85.5531 599.829 86.298 598.374 86.4044Z" fill="#15FF98"/>
</svg>
