<svg width="1514" height="306" viewBox="0 0 1514 306" fill="none" xmlns="http://www.w3.org/2000/svg">
<g opacity="0.1">
<path d="M794.918 31.0357C798.119 31.0357 800.964 32.0782 803.525 34.1084C818.464 46.07 820.171 91.2826 822.021 139.184C824.297 198.388 826.645 259.568 852.254 273.944C888.462 294.246 919.976 241.845 953.268 186.372C963.582 169.198 974.253 151.42 985.066 136.001C1035.57 63.9575 1063.17 81.2963 1092.34 99.6777C1116.17 114.712 1140.78 130.185 1179.84 97.2634C1193.35 85.9054 1206.73 104.781 1220.81 124.863C1226.86 133.423 1233.05 142.257 1239.31 148.457C1260.44 169.637 1275.87 144.561 1293.73 115.535C1315.57 80.0343 1340.25 39.8149 1382.86 67.3046C1465.52 120.583 1484.3 116.687 1518.45 109.609L1522.5 108.786C1522.5 108.786 1522.93 109.006 1522.93 109.335C1522.93 109.719 1522.79 109.993 1522.57 110.048L1518.52 110.871C1485.37 117.785 1465.38 121.9 1382.51 68.5117C1340.39 41.3512 1315.85 81.2415 1294.22 116.468C1276.16 145.878 1260.51 171.337 1238.88 149.609C1232.62 143.299 1226.36 134.465 1220.31 125.851C1206.37 106.097 1193.21 87.4417 1180.19 98.4705C1140.85 131.667 1116.03 116.029 1092.05 100.94C1063.1 82.7229 1035.71 65.4939 985.564 137.044C974.751 152.462 964.08 170.185 953.766 187.359C920.26 243.107 888.604 295.782 851.898 275.206C825.791 260.556 823.372 198.937 821.096 139.294C819.246 91.7764 817.539 46.9479 803.027 35.3155C792.926 27.1948 777.205 35.8642 755.152 61.7627C746.616 71.6941 739.431 80.8574 733.029 88.9232C700.306 130.185 688.071 145.604 629.81 116.742C577.596 90.8985 557.606 145.549 539.964 193.724C526.377 230.926 513.502 266.043 487.893 257.154C453.818 245.302 437.315 211.063 419.815 174.904C401.746 137.538 381.33 95.2332 337.937 71.0357C291.342 45.0275 250.439 62.9699 202.991 83.7655C146.153 108.676 81.7031 136.879 -7.85772 91.9411C-8.07113 91.8313 -8.21341 91.4472 -8.14227 91.118C-8.14227 90.7888 -7.85772 90.5693 -7.64431 90.679C81.7031 135.508 146.011 107.359 202.777 82.5035C250.297 61.653 291.342 43.7106 338.15 69.8286C381.757 94.1907 402.315 136.66 420.384 174.136C437.813 210.185 454.245 244.204 488.035 255.947C513.075 264.671 525.239 231.53 539.253 193.121C557.037 144.506 577.169 89.417 629.952 115.535C687.857 144.232 700.022 128.868 732.46 87.9356C738.862 79.8697 746.118 70.7065 754.583 60.7751C771.514 40.9671 784.745 31.2003 794.704 31.2003L794.918 31.0357Z" fill="#15FF98"/>
</g>
<g opacity="0.13">
<path d="M792.855 32.6818C795.771 32.6818 798.475 33.5597 800.822 35.3704C815.547 46.4541 817.824 90.1303 820.314 136.331C823.301 192.188 826.645 255.562 853.179 268.841C891.166 287.826 923.319 237.346 957.322 183.903C966.855 168.978 976.672 153.505 986.702 139.623C1037.35 69.2799 1064.1 83.6008 1092.41 98.7449C1115.46 111.091 1139.22 123.82 1178.06 94.1358C1192.22 83.3265 1204.66 102.366 1217.9 122.558C1224.3 132.38 1230.98 142.531 1237.88 149.225C1258.8 169.307 1273.88 144.616 1291.38 116.084C1312.79 81.1317 1337.05 41.4609 1379.38 67.1948C1466.23 119.925 1486.22 115.919 1522.5 108.731C1522.72 108.731 1522.93 108.951 1522.93 109.28C1522.93 109.609 1522.79 109.938 1522.57 109.993C1486.15 117.236 1466.09 121.187 1379.09 68.4019C1337.26 42.9424 1313.15 82.284 1291.95 116.962C1274.24 145.878 1258.94 170.898 1237.53 150.322C1230.49 143.573 1223.8 133.368 1217.4 123.491C1204.38 103.573 1192.14 84.808 1178.41 95.2881C1139.29 125.192 1115.32 112.353 1092.2 99.952C1064.1 84.9177 1037.56 70.7065 987.2 140.61C977.169 154.492 967.353 169.911 957.892 184.835C923.675 238.553 891.379 289.252 852.965 270.103C825.862 256.55 822.519 192.792 819.531 136.495C817.112 90.6242 814.836 47.332 800.538 36.5775C790.294 28.8409 774.431 38.3882 752.165 65.8231C744.411 75.3704 737.653 84.2044 731.749 91.9959C699.026 134.904 686.79 150.926 628.743 122.778C576.956 97.9767 556.895 148.567 539.253 193.23C525.595 227.744 512.719 260.391 487.11 251.228C453.036 239.102 436.248 207.387 418.463 173.807C400.181 139.348 379.481 100.281 336.514 74.5473C288.284 45.6859 246.669 63.738 198.509 84.6434C142.809 108.841 79.7113 136.221 -7.71545 91.8313C-7.92886 91.7216 -8.07113 91.3375 -8 91.0082C-8 90.679 -7.71545 90.4596 -7.50204 90.5693C79.7113 134.849 142.738 107.469 198.296 83.3265C246.598 62.3663 288.284 44.2593 336.728 73.2853C379.907 99.129 400.679 138.306 419.032 172.929C437.528 207.771 453.463 237.894 487.252 249.911C512.292 258.855 524.457 228.073 538.542 192.462C556.326 147.469 576.529 96.4403 628.885 121.516C686.577 149.499 698.67 133.532 731.18 90.9534C737.084 83.1619 743.842 74.3279 751.667 64.7805C769.095 43.3265 782.682 32.7366 792.784 32.7366L792.855 32.6818Z" fill="#15FF98"/>
</g>
<g opacity="0.16">
<path d="M790.721 34.2181C793.424 34.2181 795.914 34.9863 798.119 36.5775C812.631 46.8382 815.476 88.9781 818.535 133.642C822.305 188.951 826.502 251.612 854.032 263.793C894.011 281.461 927.018 232.627 962.017 180.94C970.554 168.375 979.304 155.37 988.267 143.244C1039.13 74.4925 1065.17 85.9054 1092.62 97.9218C1114.89 107.689 1137.87 117.73 1176.21 91.0631C1191.15 80.6928 1202.89 100.171 1215.33 120.748C1222.02 131.776 1228.85 143.134 1236.46 150.103C1257.16 169.088 1271.89 144.835 1289.03 116.742C1310.02 82.284 1333.85 43.1619 1375.89 67.1948C1459.83 114.877 1482.74 116.468 1522.57 108.786C1522.79 108.786 1523 109.006 1523 109.335C1523 109.719 1522.86 109.993 1522.64 110.048C1482.74 117.73 1459.69 116.139 1375.61 68.402C1333.99 44.6982 1310.37 83.4362 1289.53 117.675C1272.17 146.097 1257.23 170.679 1236.04 151.255C1228.35 144.232 1221.45 132.764 1214.77 121.735C1202.53 101.433 1190.93 82.284 1176.49 92.3251C1137.87 119.211 1114.75 109.06 1092.41 99.2387C1065.09 87.2771 1039.27 75.974 988.694 144.287C979.73 156.358 970.981 169.362 962.444 181.927C927.303 233.834 894.153 282.888 853.748 265.055C825.72 252.654 821.452 189.499 817.681 133.807C814.694 89.5268 811.848 47.771 797.763 37.7847C787.377 30.4321 771.372 40.9671 748.964 69.9383C741.992 78.9918 735.803 87.3869 730.326 94.7943C696.678 140.556 685.368 156.029 627.391 128.868C576.031 104.835 555.97 151.475 538.257 192.627C524.528 224.561 511.51 254.739 486.043 245.357C451.969 232.956 435.607 204.973 416.685 172.654C398.189 141.104 377.275 105.329 334.878 78.2236C284.94 46.3992 242.827 64.5611 193.957 85.631C139.395 109.17 77.5061 135.782 -7.78659 91.9411C-8 91.8313 -8.14227 91.4472 -8.07113 91.118C-8.07113 90.7888 -7.78659 90.5693 -7.57318 90.679C77.5772 134.41 139.253 107.853 193.743 84.369C242.685 63.2442 285.011 45.0275 335.163 77.0165C377.773 104.177 398.759 140.117 417.254 171.776C436.105 203.985 452.324 231.804 486.256 244.15C511.225 253.313 523.461 224.89 537.617 191.914C555.472 150.432 575.746 103.354 627.605 127.661C685.154 154.602 696.394 139.294 729.828 93.8066C735.305 86.3992 741.423 78.0041 748.466 68.9506C766.392 45.7408 780.335 34.3279 790.65 34.3279L790.721 34.2181Z" fill="#15FF98"/>
</g>
<g opacity="0.19">
<path d="M788.658 35.5898C791.148 35.5898 793.424 36.2483 795.487 37.62C809.785 47.0576 813.2 87.7709 816.757 130.898C821.31 185.604 826.431 247.606 854.957 258.635C897.283 275.041 931.429 227.524 967.637 177.154C974.822 167.112 982.291 156.742 989.903 146.811C1041.05 79.5953 1065.24 87.716 1093.19 97.1536C1113.61 104.067 1136.8 111.859 1174.5 87.9355C1190.22 77.9492 1201.39 97.9218 1213.27 119.156C1220.03 131.283 1227 143.793 1235.11 150.871C1255.53 168.759 1269.97 144.945 1286.68 117.401C1307.31 83.3813 1330.65 44.8628 1372.48 67.1399C1457.13 111.968 1481.81 116.523 1522.64 108.841C1522.86 108.841 1523.07 109.06 1523.07 109.39C1523.07 109.774 1522.93 110.048 1522.72 110.103C1481.74 117.785 1457.06 113.23 1372.19 68.347C1330.86 46.3443 1307.67 84.5885 1287.18 118.333C1270.25 146.262 1255.6 170.405 1234.68 152.078C1226.5 144.89 1219.46 132.27 1212.63 120.089C1200.97 99.2387 1190.01 79.5405 1174.72 89.1975C1136.8 113.285 1113.54 105.439 1092.98 98.4705C1065.24 89.1427 1041.26 81.0219 990.33 147.908C982.789 157.84 975.32 168.21 968.135 178.251C931.784 228.786 897.497 276.523 854.815 260.007C825.791 248.759 820.598 186.317 816.045 131.173C812.489 88.4294 809.145 48.1001 795.202 38.9369C784.603 31.9684 768.526 43.4911 745.976 74.0535C739.716 82.5583 734.025 90.5144 729.117 97.5926C695.469 145.165 684.158 161.187 626.395 134.959C575.462 111.804 555.33 154.492 537.546 192.133C523.745 221.433 510.656 249.088 485.261 239.486C450.973 226.701 434.256 200.967 414.835 171.228C396.198 142.586 375.07 110.103 333.384 81.8999C281.81 47.0027 239.057 65.2743 189.617 86.5089C136.194 109.39 75.5854 135.343 -7.71545 91.9959C-7.92886 91.8861 -8.07113 91.502 -8 91.1728C-8 90.8436 -7.71545 90.6241 -7.50204 90.7339C75.5854 133.971 136.051 108.073 189.404 85.192C236.923 64.8354 281.81 45.5761 333.669 80.6379C375.497 108.951 396.696 141.488 415.333 170.24C434.611 199.87 451.257 225.494 485.403 238.224C510.372 247.661 522.678 221.543 536.906 191.31C554.832 153.34 575.106 110.322 626.538 133.697C683.874 159.76 695.113 143.848 728.547 96.6049C733.527 89.5816 739.147 81.6255 745.478 73.0658C763.973 48.0453 778.201 35.6996 788.729 35.6996L788.658 35.5898Z" fill="#15FF98"/>
</g>
<g opacity="0.22">
<path d="M786.524 36.9067C788.8 36.9067 790.863 37.5103 792.784 38.6626C806.94 47.332 810.852 86.6735 814.978 128.32C820.314 182.421 826.431 243.711 855.882 253.587C901.196 268.841 935.27 224.067 974.68 172.27C980.086 165.137 985.706 157.73 991.468 150.487C1043.11 84.5885 1066.66 90.0755 1093.9 96.4403C1113.61 101.049 1135.88 106.207 1172.65 84.8628C1189.3 75.2058 1199.97 95.8916 1211.28 117.785C1218.04 130.953 1225.08 144.506 1233.62 151.694C1253.75 168.539 1267.9 145.165 1284.27 118.059C1304.47 84.5336 1327.37 46.5638 1368.99 67.0302C1450.73 107.085 1479.04 116.797 1522.72 108.786C1522.93 108.786 1523.14 109.006 1523.14 109.39C1523.14 109.774 1523 110.048 1522.79 110.103C1479.04 118.114 1450.65 108.402 1368.78 68.2922C1327.66 48.0453 1304.9 85.7408 1284.84 118.992C1268.26 146.427 1253.96 170.13 1233.33 152.846C1224.65 145.549 1217.54 131.886 1210.71 118.608C1199.61 97.0439 1189.09 76.6873 1172.94 86.07C1136.02 107.524 1113.61 102.311 1093.83 97.7024C1066.73 91.3923 1043.4 85.9602 991.966 151.53C986.275 158.772 980.655 166.18 975.249 173.313C935.626 225.329 901.48 270.213 855.811 254.904C825.862 244.863 819.744 183.08 814.338 128.539C810.283 87.2771 806.371 48.3196 792.641 39.9246C781.9 33.3402 765.61 45.8505 742.917 78.1139C737.297 86.07 732.175 93.5871 727.694 100.171C694.046 149.609 682.736 166.289 625.257 140.995C574.75 118.717 554.548 157.401 536.763 191.53C522.892 218.141 509.803 243.326 484.407 233.56C449.692 220.226 432.477 196.632 412.559 169.307C393.85 143.628 372.651 114.492 331.961 85.4664C278.751 47.3869 233.437 66.701 185.491 87.1674C133.135 109.499 73.807 134.794 -7.57318 91.941C-7.78659 91.8313 -7.92886 91.4472 -7.85772 91.118C-7.85772 90.7888 -7.57318 90.5693 -7.35977 90.679C73.807 133.423 132.993 108.182 185.278 85.8505C233.366 65.3292 278.751 45.9602 332.246 84.2044C373.007 113.34 394.277 142.531 412.986 168.265C432.833 195.48 449.977 218.964 484.549 232.298C509.447 241.9 521.825 218.141 536.194 190.706C554.121 156.303 574.466 117.346 625.471 139.787C682.522 164.918 693.833 148.402 727.196 99.2936C731.677 92.6543 736.799 85.1921 742.419 77.236C761.413 50.2949 775.924 37.0714 786.666 37.0714L786.524 36.9067Z" fill="#15FF98"/>
</g>
<g opacity="0.25">
<path d="M784.39 38.059C786.452 38.059 788.373 38.5528 790.152 39.5405C804.166 47.4417 808.576 85.4664 813.2 125.686C819.389 179.129 826.36 239.76 856.735 248.429C906.033 262.531 942.17 217.428 984.07 165.137C986.986 161.461 989.974 157.73 992.962 153.999C1045.25 89.1976 1067.16 91.941 1094.9 95.4527C1113.75 97.867 1135.16 100.556 1170.73 81.6255C1188.3 72.2428 1198.55 93.6969 1209.36 116.413C1216.12 130.514 1223.09 145.165 1232.05 152.353C1251.97 168.21 1265.7 145.219 1281.7 118.608C1301.55 85.5213 1324.03 48.0453 1365.36 66.8107C1449.87 104.835 1478.75 116.468 1522.57 108.621C1522.79 108.621 1523 108.841 1523 109.225C1523 109.609 1522.86 109.883 1522.64 109.938C1478.61 117.84 1449.8 106.152 1365.15 68.0727C1324.32 49.5268 1301.98 86.7284 1282.27 119.54C1266.13 146.481 1252.11 169.801 1231.77 153.505C1222.59 146.207 1215.62 131.447 1208.79 117.236C1198.12 94.904 1188.02 73.7792 1171.02 82.8327C1135.38 101.818 1113.89 99.129 1094.9 96.7147C1067.3 93.2579 1045.53 90.4596 993.46 154.986C990.472 158.717 987.484 162.449 984.568 166.07C942.526 218.525 906.246 263.793 856.664 249.582C825.72 240.748 818.677 179.678 812.488 125.796C807.865 85.9603 803.525 48.2648 789.938 40.6379C779.054 34.4925 762.622 47.9904 739.716 82.0096C734.807 89.3622 730.397 96.0563 726.129 102.531C692.481 153.944 681.17 171.228 623.977 146.866C573.897 125.521 553.694 160.199 535.839 190.816C521.896 214.794 508.664 237.401 483.34 227.414C447.629 213.368 430.628 192.682 409.073 166.454C390.436 143.793 369.237 118.114 330.325 88.8135C275.408 47.4966 229.667 66.9753 181.223 87.5515C129.934 109.335 71.8152 134.081 -7.64431 91.6667C-7.85772 91.557 -7.92886 91.1729 -7.92886 90.8437C-7.92886 90.5144 -7.64431 90.295 -7.4309 90.4047C71.8152 132.654 129.863 108.018 181.01 86.2346C229.596 65.6036 275.479 46.07 330.61 87.5515C369.664 116.907 390.791 142.641 409.5 165.357C430.983 191.475 447.985 212.106 483.482 226.097C508.38 235.919 520.829 214.575 535.198 189.829C553.196 158.992 573.541 123.985 624.048 145.549C680.886 169.746 692.126 152.572 725.489 101.488C729.543 95.343 734.096 88.3196 739.076 80.9671C758.496 52.0508 773.434 37.8395 784.318 37.8395L784.39 38.059Z" fill="#15FF98"/>
</g>
<g opacity="0.27">
<path d="M782.042 39.0466C783.963 39.0466 785.741 39.4856 787.448 40.3635C801.32 47.5514 805.944 82.6132 811.35 123.217C818.322 176.056 826.289 235.919 857.66 243.381C912.435 256.495 950.493 210.679 994.598 157.675C1047.95 93.5322 1068.37 93.9163 1096.68 94.4101C1114.68 94.7394 1135.09 95.1234 1168.95 78.5528C1187.52 69.4993 1197.34 91.7764 1207.72 115.37C1214.34 130.46 1221.24 145.988 1230.63 153.176C1250.19 168.1 1263.71 145.494 1279.29 119.376C1298.78 86.7284 1320.83 49.8011 1361.88 66.7558C1369.77 69.9931 1377.24 73.0658 1384.35 75.9739C1450.73 103.409 1481.03 115.919 1522.64 108.621C1522.86 108.567 1523.07 108.841 1523.07 109.225C1523.07 109.609 1522.93 109.883 1522.72 109.938C1480.96 117.236 1450.65 104.726 1384.14 77.2359C1377.1 74.3278 1369.63 71.2551 1361.66 68.0178C1321.04 51.1728 1299.13 87.8807 1279.86 120.309C1264.06 146.811 1250.4 169.636 1230.34 154.383C1220.74 147.085 1213.84 131.392 1207.15 116.193C1196.91 92.9835 1187.24 71.0357 1169.24 79.8148C1135.31 96.4403 1114.82 96.0562 1096.75 95.727C1068.65 95.1783 1048.31 94.8491 995.167 158.717C950.92 211.886 912.72 257.812 857.66 244.643C825.791 237.016 817.753 176.66 810.71 123.436C805.588 84.9177 800.822 48.5391 787.377 41.5706C776.28 35.8093 759.705 50.4047 736.657 86.1797C732.318 92.8738 728.476 99.0192 724.706 105C691.13 158.388 679.748 176.385 622.839 153.011C573.185 132.599 552.983 163.326 535.127 190.377C521.113 211.667 507.811 231.804 482.486 221.598C444.926 206.454 427.64 188.018 403.738 162.503C386.381 143.957 364.755 120.857 328.76 92.4897C272.207 47.8806 226.039 67.4691 177.097 88.2099C126.875 109.499 69.9656 133.697 -7.71545 91.7764C-7.92886 91.6667 -7.99999 91.2826 -7.99999 90.9534C-7.99999 90.6241 -7.71545 90.4047 -7.50204 90.5144C69.8945 132.325 126.733 108.182 176.884 86.9479C225.897 66.1523 272.207 46.5089 329.045 91.3374C365.04 119.76 386.665 142.86 404.094 161.406C427.925 186.866 445.14 205.192 482.557 220.336C507.455 230.377 519.975 211.392 534.487 189.444C552.485 162.119 572.901 131.173 622.91 151.749C679.463 174.959 689.778 158.553 724.066 104.067C727.836 98.0864 731.677 91.941 736.017 85.2469C756.148 53.9712 770.945 38.9918 782.042 38.9918V39.0466Z" fill="#15FF98"/>
</g>
<g opacity="0.3">
<path d="M779.908 39.9794C781.615 39.9794 783.251 40.3635 784.816 41.0768C798.546 47.6063 803.668 81.5158 809.572 120.748C817.397 172.929 826.289 232.023 858.585 238.279C915.423 249.307 952.983 211.667 996.234 161.296C1051.29 97.1536 1070.43 95.4527 1099.38 92.819C1115.53 91.3923 1135.66 89.5816 1167.1 75.4253C1186.67 66.6461 1196.13 89.856 1206.16 114.438C1212.7 130.405 1219.39 146.866 1229.21 153.999C1248.48 167.99 1261.64 145.823 1276.87 120.199C1295.93 87.9904 1317.63 51.5021 1358.39 66.7558C1374.54 72.6818 1389.05 78.3334 1401.78 83.2716C1454.99 103.903 1484.37 115.261 1522.64 108.731C1522.86 108.731 1523.07 108.951 1523.07 109.335C1523.07 109.719 1522.93 109.993 1522.72 110.048C1484.3 116.632 1454.92 105.219 1401.64 84.5336C1388.84 79.5954 1374.4 73.9986 1358.25 68.0178C1317.91 52.9287 1296.43 89.1427 1277.44 121.077C1262 147.085 1248.7 169.527 1228.92 155.206C1218.96 147.963 1212.13 131.283 1205.52 115.206C1195.63 91.0631 1186.31 68.2373 1167.32 76.7421C1135.73 90.8985 1115.6 92.7092 1099.45 94.1358C1070.57 96.7147 1051.51 98.4157 996.661 162.339C953.268 212.874 915.565 250.679 858.514 239.54C825.649 233.176 816.757 173.587 808.861 121.022C803.027 82.1742 797.977 48.594 784.674 42.284C773.363 36.9616 756.646 52.6543 733.527 90.2949C729.828 96.3306 726.413 101.982 723.141 107.305C706.139 135.398 694.9 153.999 680.815 162.723C666.801 171.447 650.155 170.405 621.558 159.102C572.403 139.623 552.129 166.399 534.274 189.938C520.118 208.594 506.815 226.152 481.49 215.727C439.449 198.333 422.803 182.696 392.641 154.328C376.635 139.294 356.717 120.528 327.195 96.1111C269.006 48.1002 222.411 67.8532 173.114 88.7586C123.887 109.609 68.1872 133.258 -7.71545 91.7764C-7.92886 91.6667 -7.99999 91.2826 -7.99999 90.9534C-7.99999 90.6242 -7.71545 90.4047 -7.50204 90.5144C68.1161 131.886 123.745 108.292 172.9 87.4417C222.34 66.4815 269.006 46.6735 327.48 94.904C357.073 119.321 376.991 138.086 392.997 153.121C423.087 181.434 439.662 197.071 481.633 214.41C506.602 224.726 519.193 208.1 533.776 188.896C551.773 165.137 572.189 138.196 621.7 157.785C677.898 180.062 688.284 162.942 722.501 106.372C725.702 101.049 729.188 95.3429 732.887 89.3622C753.445 55.9465 768.597 39.9246 779.908 39.9246V39.9794Z" fill="#15FF98"/>
</g>
<g opacity="0.33">
<path d="M777.703 40.8025C779.268 40.8025 780.691 41.1317 782.113 41.7353C795.771 47.6063 801.249 80.3635 807.651 118.388C816.33 169.856 826.147 228.237 859.368 233.23C916.988 241.955 952.414 215.947 997.657 164.918C1055.56 99.5679 1072.71 96.2757 1103.86 90.2401C1118.73 87.3868 1137.3 83.8203 1165.11 72.3526C1185.67 63.9026 1195.27 89.1427 1204.52 113.615C1210.85 130.405 1217.47 147.798 1227.64 154.822C1246.63 167.881 1259.44 146.152 1274.24 120.967C1292.94 89.1976 1314.21 53.203 1354.69 66.6461C1376.89 73.8889 1395.81 80.9671 1412.52 87.1674C1457.13 103.738 1486.58 114.712 1522.5 108.731C1522.72 108.731 1522.93 108.951 1522.93 109.335C1522.93 109.719 1522.79 109.993 1522.57 110.048C1486.58 116.084 1457.06 105.11 1412.38 88.4842C1395.67 82.284 1376.81 75.2607 1354.55 67.963C1314.43 54.6297 1293.37 90.3498 1274.8 121.9C1259.79 147.414 1246.78 169.417 1227.36 156.029C1216.97 148.841 1210.36 131.283 1203.88 114.328C1194.35 89.1976 1185.39 65.439 1165.33 73.6694C1137.44 85.1372 1118.87 88.7037 1103.93 91.5569C1072.92 97.5377 1055.78 100.83 998.013 166.015C952.627 217.209 917.13 243.272 859.225 234.547C825.435 229.444 815.547 170.624 806.798 118.717C800.466 81.1317 794.989 48.6489 781.829 42.9973C770.305 38.059 753.445 54.904 730.184 94.465C727.054 99.7874 724.137 104.781 721.363 109.554C686.933 168.759 676.547 186.646 620.207 165.247C571.62 146.756 551.275 169.527 533.349 189.609C518.481 206.235 505.677 220.61 480.352 209.911C425.435 186.701 412.275 175.233 357.001 127.112C347.825 119.102 337.439 110.103 325.488 99.7874C265.662 48.2648 218.712 68.1825 169.059 89.2524C118.552 110.706 66.2665 132.874 -7.85772 91.8313C-8.07113 91.7216 -8.14227 91.3375 -8.07113 91.0083C-8.07113 90.679 -7.78659 90.4596 -7.57318 90.5693C66.3377 131.502 118.481 109.39 168.917 87.9355C218.712 66.8107 265.733 46.8382 325.844 98.5803C337.795 108.841 348.181 117.894 357.357 125.905C413.982 175.123 425.719 185.384 480.566 208.594C505.534 219.184 518.268 204.973 532.922 188.457C550.991 168.21 571.407 145.274 620.349 163.93C676.262 185.219 686.577 167.442 720.794 108.621C723.568 103.848 726.485 98.7997 729.615 93.5323C750.6 57.867 766.036 40.8025 777.561 40.8025H777.703Z" fill="#15FF98"/>
</g>
<g opacity="0.36">
<path d="M775.497 41.5158C776.849 41.5158 778.201 41.7353 779.481 42.2291C793.068 47.4417 798.973 79.2113 805.873 115.974C815.405 166.783 826.147 224.342 860.363 228.128C917.699 234.438 952.77 219.403 999.364 168.539C1062.6 99.5679 1075.27 96.0014 1113.04 85.4664C1125.84 81.8999 1141.71 77.4554 1163.48 69.2799C1185.1 61.1592 1194.35 87.4417 1203.24 112.846C1209.43 130.46 1215.83 148.731 1226.29 155.59C1244.93 167.826 1257.45 146.482 1271.89 121.79C1289.32 91.9959 1311.08 54.904 1351.35 66.5913C1378.02 74.1633 1400.08 82.2291 1419.64 89.3073C1459.62 103.848 1488.43 114.328 1522.64 108.731C1522.86 108.731 1523.07 108.951 1523.07 109.335C1523.07 109.719 1522.93 109.993 1522.72 110.048C1488.36 115.7 1459.48 105.165 1419.43 90.6242C1399.93 83.546 1377.81 75.4801 1351.21 67.9081C1311.37 56.2758 1290.67 91.557 1272.46 122.723C1257.8 147.744 1245.14 169.362 1226.01 156.852C1215.26 149.774 1208.79 131.337 1202.53 113.505C1193.35 87.332 1184.67 62.6406 1163.62 70.5419C1141.85 78.7174 1125.92 83.1619 1113.11 86.7284C1075.48 97.2085 1062.82 100.775 999.791 169.637C953.054 220.665 917.842 235.754 860.363 229.444C825.649 225.604 814.765 167.606 805.233 116.413C798.403 80.0343 792.499 48.594 779.41 43.546C767.53 38.9918 750.955 56.4952 727.267 98.5254C724.706 103.08 722.287 107.414 719.94 111.584C685.581 173.148 675.195 191.694 619.211 171.283C571.193 153.779 550.848 172.599 532.922 189.17C517.983 202.997 505.036 214.959 479.641 203.985C471.745 200.583 464.56 197.565 458.229 194.877C413.199 175.947 398.047 169.582 324.136 103.409C262.674 48.3197 215.44 68.402 165.502 89.6914C115.991 110.761 64.8438 132.545 -7.64431 91.8862C-7.85772 91.7764 -7.92886 91.3924 -7.85772 91.0631C-7.85772 90.7339 -7.57318 90.5144 -7.35977 90.679C64.8438 131.173 115.92 109.499 165.289 88.4843C215.369 67.1399 262.746 47.0028 324.492 102.311C398.332 168.429 413.484 174.794 458.442 193.669C464.773 196.303 471.958 199.321 479.854 202.778C504.965 213.642 517.77 201.79 532.566 188.128C550.635 171.392 571.051 152.462 619.424 170.075C674.982 190.322 685.296 171.886 719.442 110.761C721.789 106.591 724.208 102.257 726.769 97.7024C748.181 59.6777 763.902 41.6255 775.711 41.5707L775.497 41.5158Z" fill="#15FF98"/>
</g>
<g opacity="0.39">
<path d="M773.292 42.1194C774.502 42.1194 775.64 42.3389 776.778 42.6681C790.294 47.2223 796.625 78.0042 804.023 113.669C814.409 163.765 826.147 220.556 861.217 223.025C921.612 227.25 954.406 221.159 1000.86 172.161C1074.13 94.8492 1077.47 93.7518 1133.31 75.535C1141.49 72.8464 1150.74 69.8286 1161.48 66.1523C1184.18 58.3608 1193.07 85.7408 1201.68 112.133C1207.65 130.569 1213.84 149.609 1224.72 156.358C1243.01 167.716 1255.17 146.811 1269.33 122.613C1286.47 93.2031 1307.74 56.6598 1347.72 66.4815C1377.31 73.7243 1401.71 82.5035 1423.27 90.295C1460.19 103.573 1489.28 114.054 1522.57 108.676C1522.79 108.676 1523 108.896 1523 109.28C1523 109.664 1522.86 109.938 1522.64 109.993C1489.28 115.37 1460.12 104.89 1423.12 91.557C1401.64 83.8203 1377.24 75.0412 1347.65 67.7984C1308.03 58.0865 1287.75 92.8738 1269.9 123.546C1255.6 148.073 1243.22 169.252 1224.51 157.62C1213.41 150.706 1207.15 131.392 1201.04 112.792C1192.22 85.5762 1183.82 59.8423 1161.7 67.4143C1150.88 71.0906 1141.64 74.1084 1133.53 76.797C1077.83 94.9589 1074.48 96.0563 1001.36 173.203C954.69 222.421 921.825 228.567 861.288 224.287C825.649 221.763 813.84 164.534 803.383 114.054C796.056 78.7723 789.796 48.3197 776.707 43.9301C764.614 39.8149 747.897 58.4705 724.137 102.586C722.145 106.317 720.153 109.938 718.304 113.45C684.016 177.373 673.63 196.687 618.001 177.318C570.624 160.803 550.279 175.672 532.353 188.786C517.272 199.815 504.254 209.362 478.716 198.059C461.999 190.652 449.052 186.317 437.599 182.421C405.588 171.667 384.531 164.534 322.571 106.975C259.473 48.2648 212.025 68.5117 161.803 89.9657C113.359 110.652 63.2077 132.051 -7.64431 91.8313C-7.85772 91.7216 -7.92886 91.3375 -7.85772 91.0083C-7.85772 90.6791 -7.57318 90.4596 -7.35977 90.6242C63.2788 130.734 113.288 109.39 161.589 88.7586C211.954 67.2497 259.544 46.9479 322.927 105.878C384.745 163.327 405.801 170.46 437.741 181.159C449.194 185 462.212 189.39 478.929 196.797C504.183 207.99 517.13 198.553 532.068 187.634C550.137 174.465 570.553 159.486 618.215 176.056C673.417 195.261 683.66 176.111 717.735 112.627C719.584 109.115 721.576 105.494 723.568 101.763C745.407 61.3238 761.341 42.1194 773.363 42.1194H773.292Z" fill="#15FF98"/>
</g>
<g opacity="0.42">
<path d="M771.016 42.6132C772.083 42.6132 773.079 42.7778 774.075 43.0521C787.52 47.0027 794.278 76.8518 802.174 111.42C813.413 160.802 826.147 216.77 862.142 217.977C866.197 218.086 870.18 218.251 874.022 218.416C926.094 220.391 957.536 221.543 1002.42 175.837C1016.15 161.845 1027.18 150.322 1036.92 140.171C1084.8 90.0754 1089.78 84.8628 1159.71 63.1344C1183.54 55.727 1192.07 84.1495 1200.4 111.639C1206.16 130.844 1212.13 150.706 1223.37 157.291C1241.3 167.881 1253.18 147.359 1266.91 123.601C1283.7 94.5747 1304.61 58.4705 1344.31 66.5363C1376.46 73.0658 1402.92 82.5583 1426.33 90.9534C1462.04 103.793 1490.21 113.944 1522.64 108.786C1522.86 108.786 1523.07 109.005 1523.07 109.39C1523.07 109.774 1522.93 110.048 1522.72 110.103C1490.13 115.261 1461.89 105.11 1426.11 92.2153C1402.78 83.8203 1376.32 74.3278 1344.16 67.7983C1304.82 59.8422 1284.05 95.6721 1267.41 124.479C1253.46 148.567 1241.44 169.362 1223.02 158.498C1211.56 151.749 1205.52 131.612 1199.61 112.188C1191.43 85.1372 1183.04 57.1536 1159.78 64.3964C1089.99 86.0699 1085.01 91.2826 1037.28 141.269C1027.53 151.42 1016.58 162.942 1002.78 176.934C957.607 222.86 926.094 221.708 873.951 219.732C870.109 219.568 866.125 219.458 862.071 219.294C825.506 218.086 812.702 161.68 801.391 111.914C793.637 77.7298 786.879 48.155 773.932 44.369C761.626 40.7476 744.767 60.5555 720.936 106.756C719.442 109.664 717.948 112.517 716.525 115.315C682.309 181.763 671.994 201.79 616.721 183.464C570.198 167.99 549.781 178.964 531.855 188.567C516.561 196.797 503.4 203.875 477.649 192.188C457.588 183.08 442.65 179.842 429.418 176.934C401.817 170.898 377.916 165.631 320.864 110.652C256.13 48.2647 208.468 68.7311 158.033 90.3498C110.585 110.706 61.5004 131.776 -7.78659 91.8861C-8 91.7764 -8.07113 91.3923 -8 91.0631C-8 90.7339 -7.71545 90.5693 -7.50204 90.679C61.5004 130.405 110.513 109.444 157.819 89.0878C208.468 67.3594 256.272 46.893 321.291 109.499C378.2 164.369 400.893 169.307 429.561 175.617C442.792 178.525 457.802 181.818 477.862 190.926C503.4 202.503 516.49 195.48 531.642 187.305C549.71 177.593 570.126 166.619 616.863 182.147C671.638 200.309 681.882 180.391 715.885 114.438C717.308 111.694 718.802 108.841 720.296 105.878C742.49 62.9698 758.709 42.6132 771.016 42.6132Z" fill="#15FF98"/>
</g>
<g opacity="0.45">
<path d="M768.74 42.9973C769.593 42.9973 770.447 43.107 771.3 43.3265C784.745 46.6735 791.93 75.6447 800.253 109.225C812.346 157.839 826.004 212.929 862.853 212.929C863.351 212.929 863.849 212.929 864.347 212.929C875.871 212.929 886.186 213.477 896.216 213.971C936.266 216.056 965.147 217.483 1003.99 179.458C1027.68 156.193 1043.54 138.47 1056.27 124.204C1087.15 89.5816 1098.74 76.5775 1157.86 60.0617C1182.83 53.0933 1191.01 82.6132 1198.97 111.145C1204.81 131.996 1210.28 151.694 1221.81 158.114C1239.38 167.936 1250.4 148.786 1264.28 124.534C1280.71 95.8916 1301.2 60.2263 1340.68 66.4815C1374.75 71.9136 1402.99 82.1193 1427.96 91.118C1461.54 103.244 1490.56 113.724 1522.5 108.786C1522.72 108.786 1522.93 109.005 1522.93 109.39C1522.93 109.774 1522.79 110.048 1522.57 110.103C1490.49 115.096 1461.47 104.561 1427.75 92.38C1402.85 83.3813 1374.54 73.1207 1340.53 67.7435C1301.41 61.5432 1281.14 96.9341 1264.77 125.357C1251.26 148.951 1239.52 169.362 1221.45 159.266C1209.64 152.682 1203.81 131.776 1198.12 111.584C1190.29 83.4911 1182.18 54.4101 1157.79 61.214C1098.81 77.7298 1087.29 90.6241 1056.56 125.192C1043.82 139.458 1027.96 157.236 1004.27 180.501C965.29 218.745 936.266 217.263 896.074 215.178C885.688 214.63 874.875 214.081 862.853 214.136H862.711C825.364 214.136 811.564 158.608 799.399 109.609C791.148 76.4129 784.034 47.7709 771.087 44.5336C758.496 41.3512 741.565 62.4211 717.664 110.706L714.676 116.742C680.53 185.768 670.287 206.619 615.44 189.335C569.984 175.014 549.639 182.037 531.713 188.237C516.205 193.615 502.76 198.224 476.653 186.152C455.099 176.166 439.804 174.739 425.079 173.368C397.62 170.844 373.932 168.594 319.299 114.108C252.929 47.9355 205.125 68.6214 154.476 90.4595C107.953 110.542 59.9354 131.228 -7.78659 91.7764C-8 91.6667 -8.07113 91.2826 -8 90.9534C-7.92886 90.6241 -7.71545 90.4595 -7.50204 90.5693C60.0065 129.966 107.953 109.28 154.334 89.2524C205.125 67.3594 253.142 46.6186 319.726 113.066C374.216 167.387 397.834 169.582 425.15 172.106C439.947 173.477 455.241 174.904 476.938 184.945C502.902 196.962 516.205 192.353 531.642 187.03C549.639 180.83 570.055 173.752 615.654 188.128C670.073 205.247 680.246 184.561 714.178 115.974L717.166 109.938C739.645 64.4513 756.148 42.9973 768.74 42.9973Z" fill="#15FF98"/>
</g>
<g opacity="0.48">
<path d="M766.463 43.2716C767.175 43.2716 767.886 43.3265 768.597 43.4911C781.971 46.2346 789.583 74.3827 798.404 106.975C811.35 154.931 826.076 209.252 863.849 207.771C881.206 207.112 896.501 208.649 909.946 209.966C943.806 213.313 970.483 216.001 1005.48 182.97C1034.29 155.809 1051.15 134.685 1064.67 117.73C1089.21 87.0576 1102.73 70.1577 1155.86 56.8244C1181.9 50.2949 1189.87 80.9122 1197.48 110.542C1203.1 132.16 1208.36 152.572 1220.17 158.772C1237.39 167.826 1248.06 149.06 1261.57 125.302C1277.72 96.989 1297.78 61.8176 1336.98 66.3169C1372.55 70.3772 1402.42 81.2963 1428.82 90.9534C1462.04 103.08 1490.7 113.56 1522.36 108.731C1522.57 108.731 1522.79 108.951 1522.79 109.335C1522.79 109.719 1522.64 109.993 1522.43 110.048C1490.63 114.877 1461.89 104.396 1428.67 92.2702C1402.35 82.668 1372.48 71.749 1336.98 67.6886C1298.14 63.1893 1278.22 98.1962 1262.21 126.289C1249.05 149.444 1237.67 169.417 1219.96 160.089C1207.79 153.669 1202.46 133.038 1196.77 111.145C1189.23 81.9547 1181.4 51.7764 1155.94 58.1962C1102.94 71.4746 1089.49 88.3196 1065.09 118.882C1051.51 135.837 1034.65 157.016 1005.84 184.177C970.625 217.373 943.807 214.685 909.874 211.337C896.358 210.021 881.135 208.484 863.849 209.143C863.351 209.143 862.853 209.143 862.426 209.143C825.151 209.143 809.928 152.846 797.692 107.524C788.942 75.3155 781.473 47.4417 768.455 44.808C755.65 42.1742 738.578 64.4513 714.605 114.877L712.969 118.333C678.965 190.103 668.722 211.722 614.231 195.535C570.411 182.476 549.283 185.823 532.282 188.457C515.636 191.036 502.547 193.121 475.657 180.336C453.32 169.746 437.457 170.295 422.163 170.844C395.842 171.776 370.944 172.654 317.734 117.785C249.799 47.8258 201.782 68.6763 150.99 90.7339C105.463 110.487 58.3704 130.953 -7.85772 91.8313C-8.07113 91.7215 -8.14227 91.3375 -8.07113 91.0082C-8 90.679 -7.78659 90.5144 -7.57318 90.6241C58.4415 129.636 105.392 109.225 150.777 89.5268C201.782 67.3594 249.87 46.454 318.09 116.742C371.158 171.392 395.913 170.514 422.091 169.582C437.457 169.033 453.391 168.484 475.871 179.129C502.618 191.804 515.707 189.774 532.211 187.195C549.212 184.561 570.411 181.214 614.373 194.273C641.761 202.394 657.553 200.912 670.785 189.005C684.229 176.824 695.398 153.23 712.328 117.565L713.964 114.108C736.799 65.9877 753.516 43.3265 766.392 43.3265L766.463 43.2716Z" fill="#15FF98"/>
</g>
<g opacity="0.51">
<path d="M764.187 43.4362C764.756 43.4362 765.325 43.4362 765.894 43.5459C779.339 45.7407 787.306 73.0658 796.625 104.781C810.497 151.968 826.147 205.466 864.845 202.668C885.972 201.132 903.757 204.15 919.549 206.783C950.422 211.941 974.751 216.001 1007.19 186.591C1038.63 158.059 1055.56 134.081 1069.22 114.822C1090.49 84.6982 1104.58 64.7805 1154.23 53.6968C1181.4 47.6612 1189.01 79.4307 1196.41 110.158C1201.75 132.49 1206.8 153.56 1218.96 159.595C1235.82 167.936 1246.21 149.499 1259.37 126.235C1275.16 98.3059 1294.79 63.5185 1333.78 66.2071C1370.48 68.786 1401.85 80.3635 1429.53 90.6241C1461.18 102.366 1491.13 113.395 1522.64 108.676C1522.86 108.676 1523.07 108.896 1523.07 109.28C1523.07 109.664 1522.93 109.938 1522.72 109.993C1491.06 114.767 1461.11 103.628 1429.31 91.8861C1401.64 81.6804 1370.34 70.048 1333.71 67.524C1295.08 64.8354 1275.59 99.3484 1259.94 127.112C1247.13 149.774 1236.04 169.362 1218.75 160.802C1206.23 154.602 1201.11 133.258 1195.7 110.597C1188.44 80.3086 1180.9 49.0329 1154.37 54.9589C1104.93 65.9877 1090.99 85.7956 1069.79 115.754C1056.13 135.069 1039.2 159.102 1007.62 187.689C974.964 217.263 950.493 213.203 919.478 207.99C903.757 205.357 885.901 202.394 864.916 203.875C825.791 206.728 809.216 150.432 795.914 105.274C786.737 73.9438 778.77 46.893 765.823 44.7531C752.734 42.6132 735.519 66.1523 711.617 118.827L711.332 119.486C677.471 194.053 667.228 216.55 613.235 201.461C572.545 190.103 551.702 189.499 534.985 189.06C516.703 188.567 503.543 188.182 474.946 174.3C452.253 163.326 435.963 165.96 420.242 168.539C393.779 172.874 368.739 176.934 316.311 121.296C246.811 47.4417 198.723 68.5117 147.789 90.7887C103.186 110.322 57.0899 130.514 -7.64431 91.7215C-7.85772 91.6118 -7.92886 91.2277 -7.85772 90.8985C-7.78659 90.5693 -7.57318 90.4047 -7.35977 90.5144C57.161 129.198 103.186 109.06 147.647 89.5816C198.723 67.1948 247.024 46.07 316.809 120.199C368.952 175.617 393.85 171.557 420.242 167.277C436.034 164.698 452.395 162.01 475.23 173.093C503.685 186.92 516.845 187.305 535.056 187.798C551.773 188.237 572.616 188.841 613.449 200.254C666.943 215.233 676.262 194.767 710.834 118.772L711.119 118.114C734.238 67.3045 751.24 43.3813 764.329 43.3813L764.187 43.4362Z" fill="#15FF98"/>
</g>
<g opacity="0.54">
<path d="M761.839 43.546C762.266 43.546 762.693 43.546 763.12 43.6008C776.565 45.1921 785.03 71.8039 794.776 102.641C808.789 146.811 826.218 201.735 865.77 197.62C889.743 195.151 909.305 199.925 926.592 204.204C954.264 211.008 978.094 216.934 1008.83 190.268C1041.76 161.68 1058.41 134.904 1071.78 113.45C1091.13 82.3937 1105.14 59.952 1152.38 50.679C1180.69 45.1372 1188.02 78.059 1195.06 109.883C1200.18 132.929 1205.02 154.657 1217.47 160.418C1233.9 168.045 1244 150.048 1256.81 127.222C1272.24 99.6228 1291.52 65.2744 1330.22 66.2071C1367.78 67.1399 1399.15 78.882 1429.53 90.2949C1461.25 102.202 1491.13 113.45 1522.64 108.786C1522.86 108.786 1523.07 109.005 1523.07 109.39C1523.07 109.774 1522.93 110.048 1522.72 110.103C1491.13 114.767 1461.11 103.519 1429.31 91.6118C1399.01 80.2538 1367.71 68.5117 1330.22 67.5789C1329.72 67.5789 1329.22 67.5789 1328.65 67.5789C1291.31 67.5789 1272.53 101.159 1257.38 128.21C1244.93 150.432 1234.19 169.582 1217.26 161.79C1204.38 155.809 1199.47 133.807 1194.28 110.432C1187.31 79.0466 1180.12 46.6187 1152.38 52.0508C1105.36 61.214 1091.41 83.546 1072.21 114.438C1058.76 136.001 1042.12 162.778 1009.11 191.475C978.237 218.361 954.192 212.435 926.449 205.576C909.234 201.296 889.672 196.468 865.77 198.992C825.72 203.162 808.149 147.798 794.064 103.354C784.39 72.8464 776.067 46.5638 763.049 44.9726C749.746 43.4362 732.389 68.2373 708.487 123.107C675.48 198.827 665.521 221.653 612.026 207.716C580.655 199.54 561.519 195.864 546.082 192.901C520.9 188.073 508.309 185.658 473.95 168.594C451.115 157.291 434.54 162.064 418.463 166.728C392.925 174.136 366.534 181.763 314.746 125.082C243.681 47.2771 195.522 68.5665 144.446 91.118C100.768 110.432 55.596 130.405 -7.71545 91.8862C-7.92886 91.7764 -8 91.3923 -7.92886 91.0631C-7.85772 90.7339 -7.64431 90.5693 -7.4309 90.679C55.6672 129.033 100.697 109.115 144.303 89.856C195.45 67.2497 243.823 45.8505 315.173 123.985C366.747 180.391 392.997 172.819 418.392 165.466C434.54 160.802 451.186 155.974 474.234 167.332C508.522 184.342 521.113 186.756 546.225 191.584C561.661 194.547 580.797 198.224 612.168 206.399C665.236 220.281 675.124 197.565 707.918 122.339C731.251 68.7311 748.466 43.6008 761.91 43.6008L761.839 43.546Z" fill="#15FF98"/>
</g>
<g opacity="0.56">
<path d="M759.421 43.546C759.421 43.546 759.919 43.546 760.203 43.546C773.719 44.5336 782.611 70.487 792.855 100.501C807.722 143.957 826.218 198.004 866.623 192.517C892.873 188.951 913.716 195.919 932.069 202.064C958.247 210.789 980.869 218.361 1010.32 193.889C1044.04 165.85 1059.55 137.647 1073.2 112.737C1090.85 80.6379 1104.79 55.2332 1150.46 47.5515C1179.91 42.5583 1186.95 76.6873 1193.71 109.609C1198.55 133.313 1203.17 155.7 1215.97 161.187C1232.05 168.1 1241.87 150.487 1254.25 128.155C1269.4 100.885 1288.25 66.9204 1326.66 66.0974C1364.93 65.3292 1397.59 77.6749 1429.17 89.7462C1460.97 101.872 1491.06 113.34 1522.64 108.731C1522.93 108.676 1523.07 108.951 1523.07 109.335C1523.07 109.719 1522.93 109.993 1522.72 110.048C1490.99 114.657 1460.9 103.189 1429.03 91.0631C1397.52 79.0467 1364.93 66.5912 1326.73 67.4691C1288.68 68.2922 1269.9 102.037 1254.89 129.143C1242.3 151.804 1232.41 169.691 1215.83 162.558C1202.6 156.852 1197.98 134.136 1193 110.103C1186.31 77.62 1179.48 43.9849 1150.6 48.9232C1105.29 56.5501 1091.41 81.7901 1073.84 113.669C1060.11 138.635 1044.54 166.948 1010.67 195.096C981.011 219.787 958.247 212.16 931.927 203.381C913.574 197.236 892.802 190.322 866.695 193.889C825.791 199.431 807.153 145 792.215 101.214C782.042 71.5295 773.292 45.9054 760.203 44.9177C746.616 43.93 729.188 70.048 705.286 127.167C672.421 205.96 661.679 226.097 610.745 213.752C537.759 196.084 528.938 191.529 491.663 172.27C486.114 169.417 479.996 166.235 472.954 162.668C450.119 151.091 434.042 157.785 416.97 164.863C391.218 175.562 364.542 186.591 313.11 128.704C240.48 46.893 192.249 68.4568 141.173 91.2277C98.4202 110.322 54.1733 130.075 -7.78659 91.8862C-8 91.7764 -8.07113 91.3923 -8 91.0631C-7.92886 90.7339 -7.71545 90.5693 -7.50204 90.679C54.2444 128.704 98.3491 109.005 140.96 89.9657C192.178 67.0851 240.622 45.4664 313.537 127.606C364.684 185.219 391.147 174.191 416.756 163.601C433.117 156.797 450.119 149.774 473.167 161.461C480.21 165.027 486.399 168.21 491.876 171.063C529.081 190.267 537.973 194.877 610.816 212.49C637.066 218.855 652.218 216.221 664.88 203.107C677.756 189.774 688.355 165.302 704.574 126.454C728.121 69.9931 745.549 43.6008 759.35 43.6008L759.421 43.546Z" fill="#15FF98"/>
</g>
<g opacity="0.59">
<path d="M757.002 43.4362C757.002 43.4362 757.215 43.4362 757.358 43.4362C770.945 43.8752 780.264 69.1701 791.005 98.4156C806.727 141.104 826.289 194.273 867.477 187.414C895.576 182.75 917.415 192.023 936.622 200.199C961.733 210.844 983.358 220.062 1011.81 197.455C1045.96 170.35 1060.9 139.568 1074.13 112.462C1090.92 78.0041 1104.22 50.7339 1148.54 44.4239C1179.2 40.0343 1186.17 76.9067 1192.36 109.39C1196.98 133.752 1201.32 156.687 1214.48 161.955C1230.13 168.265 1239.66 150.981 1251.69 129.143C1266.48 102.202 1284.91 68.6214 1323.11 66.0425C1361.95 63.3539 1395.81 76.4678 1428.53 89.1427C1460.54 101.543 1490.85 113.285 1522.57 108.731C1522.79 108.731 1523 108.951 1523 109.335C1523 109.719 1522.86 109.993 1522.64 110.048C1490.78 114.602 1460.47 102.86 1428.39 90.4595C1395.74 77.7846 1361.95 64.7256 1323.18 67.3594C1285.33 69.9383 1267.05 103.299 1252.33 130.075C1240.16 152.243 1230.49 169.746 1214.34 163.326C1200.75 157.894 1196.34 134.575 1191.72 109.883C1185.31 76.2483 1178.77 41.5158 1148.75 45.7956C1104.72 52.0508 1091.56 79.1015 1074.91 113.34C1061.61 140.61 1046.6 171.447 1012.31 198.717C983.572 221.543 961.804 212.27 936.551 201.571C917.415 193.45 895.647 184.177 867.69 188.841C825.933 195.754 806.3 142.202 790.436 99.1838C779.766 70.2675 770.589 45.2469 757.429 44.808C757.287 44.808 757.216 44.808 757.073 44.808C743.273 44.808 725.773 72.2977 702.227 131.283C686.506 170.569 676.049 195.37 663.244 209.088C650.582 222.586 635.572 225.604 609.607 219.842C552.342 207.058 534.131 195.151 511.154 180.062C500.768 173.258 488.96 165.521 472.1 156.742C449.337 144.945 433.046 153.724 415.831 162.997C389.795 176.989 362.835 191.475 311.687 132.27C237.492 46.4541 189.262 68.2373 138.186 91.2826C96.2861 110.213 53.0351 129.746 -7.64431 91.8862C-7.85772 91.7764 -7.92886 91.3923 -7.85772 91.0631C-7.78659 90.7339 -7.57318 90.5693 -7.35977 90.679C53.0351 128.374 96.215 108.896 137.972 90.0755C189.262 66.9204 237.706 45.0823 312.114 131.228C362.977 190.103 389.724 175.672 415.547 161.79C432.904 152.462 449.337 143.628 472.314 155.535C489.244 164.314 501.053 172.051 511.439 178.855C534.416 193.889 552.485 205.796 609.678 218.525C659.687 229.664 670.002 209.472 701.516 130.569C725.275 71.2003 742.917 43.5459 757.002 43.5459V43.4362Z" fill="#15FF98"/>
</g>
<g opacity="0.62">
<path d="M1150.96 41.0768C1179.2 41.0768 1185.53 77.236 1191.08 109.28C1195.42 134.246 1199.54 157.84 1212.99 162.778C1228.28 168.429 1237.46 151.53 1249.12 130.13C1263.64 103.464 1281.63 70.3224 1319.55 65.9328C1358.82 61.3786 1393.82 75.1509 1427.68 88.4842C1459.97 101.214 1490.56 113.23 1522.5 108.676C1522.72 108.621 1522.93 108.896 1522.93 109.28C1522.93 109.664 1522.79 109.938 1522.57 109.993C1490.49 114.547 1459.9 102.476 1427.46 89.7462C1393.67 76.4678 1358.67 62.6955 1319.55 67.2497C1281.99 71.6393 1264.06 104.561 1249.62 131.008C1237.81 152.737 1228.49 169.856 1212.77 164.04C1198.9 158.882 1194.7 134.959 1190.29 109.609C1184.25 74.8766 1177.92 38.8821 1146.76 42.5583C1103.79 47.5515 1090.63 78.0041 1075.41 113.176C1062.6 142.695 1048.16 176.111 1013.73 202.174C985.706 223.409 964.649 212.435 940.321 199.76C920.545 189.444 898.066 177.757 868.473 183.519C825.933 191.804 805.161 139.184 788.444 96.9342C777.347 68.786 767.744 44.4788 754.512 44.4788H754.37C740.214 44.6434 722.572 73.4499 698.955 135.233C668.935 213.697 658.051 235.864 608.256 225.768C555.188 215.014 535.483 198.608 514.64 181.269C502.689 171.283 490.311 161.022 470.962 150.761C448.341 138.8 431.908 149.609 414.48 161.077C388.159 178.416 360.914 196.358 309.909 135.782C234.22 45.8505 185.989 67.9081 134.842 91.2277C93.8675 109.993 51.399 129.362 -7.92886 91.7764C-8.14227 91.6667 -8.21341 91.2826 -8.14227 90.9534C-8.07113 90.6242 -7.85772 90.4596 -7.64431 90.5693C51.4701 127.99 93.7252 108.676 134.629 89.9657C185.918 66.5364 234.362 44.4239 310.336 134.685C360.985 194.877 388.017 177.044 414.124 159.87C431.695 148.292 448.27 137.373 471.176 149.499C490.596 159.76 502.974 170.075 514.924 180.062C535.696 197.346 555.33 213.697 608.256 224.451C657.553 234.438 668.366 212.435 698.172 134.52C722.003 72.3526 739.787 43.3814 754.228 43.2168C754.228 43.2168 754.299 43.2168 754.37 43.2168C767.957 43.2168 777.703 67.7984 788.942 96.2757C805.517 138.251 826.147 190.487 868.188 182.311C897.923 176.495 920.474 188.237 940.321 198.608C964.507 211.228 985.421 222.092 1013.24 201.077C1047.52 175.123 1061.89 141.872 1074.63 112.517C1089.99 77.0165 1103.22 46.3992 1146.55 41.3512C1147.97 41.1866 1149.39 41.0768 1150.74 41.0768H1150.96Z" fill="#15FF98"/>
</g>
<g opacity="0.65">
<path d="M1148.4 38.1139C1178.34 38.1139 1184.39 75.8642 1189.8 109.28C1193.92 134.849 1197.76 158.992 1211.56 163.656C1226.5 168.704 1235.39 152.188 1246.63 131.283C1260.79 104.945 1278.43 72.188 1316.06 65.9877C1355.62 59.4582 1391.82 73.9438 1426.75 87.9356C1459.4 100.995 1490.28 113.34 1522.5 108.841C1522.72 108.786 1522.93 109.06 1522.93 109.444C1522.93 109.829 1522.79 110.103 1522.57 110.158C1490.21 114.657 1459.26 102.311 1426.54 89.2524C1391.61 75.3155 1355.54 60.8848 1316.06 67.3594C1278.72 73.5048 1261.22 106.043 1247.13 132.215C1235.68 153.45 1226.72 170.24 1211.35 165.027C1197.12 160.199 1193.21 135.672 1189.01 109.719C1183.25 73.8341 1177.28 36.6873 1144.91 39.6502C1102.87 43.4911 1090.35 75.974 1075.84 113.56C1063.6 145.274 1049.73 181.214 1015.3 206.015C987.769 225.823 967.353 213.148 943.664 198.553C923.39 185.988 900.342 171.776 869.327 178.69C826.004 188.347 804.166 136.66 786.595 95.1235C775.071 67.963 765.183 44.4239 752.094 44.4239C751.88 44.4239 751.667 44.4239 751.524 44.4239C737.084 45.1921 719.371 75.4253 695.896 139.458C682.238 176.66 671.567 204.15 658.763 218.855C646.527 232.846 632.086 236.523 607.189 231.969C556.041 222.641 536.479 202.723 515.707 181.653C503.258 169.033 490.454 155.974 470.108 145C447.701 132.874 431.055 145.768 413.484 159.431C386.879 180.117 359.278 201.571 308.415 139.513C231.232 45.4116 183.002 67.7435 131.926 91.3924C91.7334 109.993 50.2608 129.198 -7.78659 91.8862C-8 91.7765 -8.07113 91.3924 -8 91.0631C-7.92886 90.7339 -7.71545 90.5693 -7.50204 90.6791C50.3319 127.826 91.7334 108.676 131.712 90.1304C182.93 66.4267 231.374 43.9849 308.842 138.471C359.349 200.034 386.665 178.8 413.128 158.224C430.841 144.451 447.558 131.447 470.322 143.738C490.738 154.767 503.614 167.881 516.063 180.556C536.763 201.571 556.255 221.434 607.189 230.706C631.873 235.206 646.242 231.584 658.265 217.812C670.998 203.272 681.597 175.892 695.184 138.8C718.802 74.3279 736.728 43.9301 751.453 43.107C751.667 43.107 751.88 43.107 752.094 43.107C765.538 43.107 775.64 66.8656 787.235 94.3553C804.664 135.617 826.36 186.92 869.255 177.373C900.413 170.405 923.533 184.726 943.949 197.346C967.424 211.886 987.769 224.396 1015.01 204.863C1049.23 180.226 1063.03 144.451 1075.2 112.901C1089.85 74.9863 1102.44 42.2291 1144.91 38.3882C1146.12 38.2785 1147.26 38.2236 1148.4 38.2236V38.1139Z" fill="#15FF98"/>
</g>
<g opacity="0.68">
<path d="M1145.76 35.0411C1177.56 35.0411 1183.39 74.4376 1188.52 109.28C1192.36 135.398 1196.06 160.089 1210.07 164.424C1224.58 168.868 1233.19 152.737 1244.07 132.27C1257.95 106.262 1275.16 73.834 1312.51 65.8779C1352.34 57.3731 1389.62 72.5171 1425.69 87.1673C1458.76 100.61 1489.99 113.285 1522.57 108.786C1522.79 108.731 1523 109.005 1523 109.39C1523 109.774 1522.86 110.048 1522.64 110.103C1489.92 114.602 1458.69 101.927 1425.54 88.4842C1389.55 73.8889 1352.34 58.7448 1312.65 67.2496C1275.59 75.1509 1258.44 107.359 1244.64 133.258C1233.62 153.999 1224.87 170.405 1209.93 165.85C1195.35 161.351 1191.65 136.276 1187.73 109.719C1182.54 74.3827 1176.57 34.3278 1143.06 36.5775C1101.73 39.321 1089.85 73.8889 1076.05 113.944C1064.38 147.853 1051.15 186.317 1016.86 209.691C989.761 228.182 968.847 213.148 946.723 197.291C926.022 182.421 902.547 165.576 870.251 173.642C826.147 184.671 803.17 133.916 784.745 93.1481C772.581 66.2071 762.053 42.9424 748.537 44.2044C733.74 45.631 716.027 77.2359 692.695 143.628C665.307 221.598 654.352 245.905 605.837 238.114C555.899 230.103 535.412 205.466 515.636 181.653C502.974 166.399 489.813 150.652 469.041 139.129C446.847 126.838 430.13 141.818 412.417 157.62C385.456 181.708 357.642 206.619 306.779 143.134C228.102 44.8628 179.872 67.4691 128.867 91.3923C89.5282 109.829 48.9092 128.923 -7.92886 91.8861C-8.14227 91.7764 -8.21341 91.3923 -8.14227 91.0631C-8.07113 90.7339 -7.85772 90.5693 -7.64431 90.679C48.9092 127.551 89.457 108.512 128.653 90.1303C179.872 66.0974 228.244 43.3813 307.206 142.092C357.642 205.082 385.243 180.336 411.99 156.468C429.845 140.501 446.705 125.412 469.255 137.867C490.169 149.444 503.329 165.247 516.063 180.556C535.768 204.259 556.184 228.786 605.908 236.797C651.578 244.15 662.96 225.604 691.983 142.97C715.743 75.2606 733.171 44.369 748.466 42.8875C762.408 41.5706 773.008 65.0549 785.314 92.3251C803.668 132.819 826.431 183.244 870.038 172.325C902.547 164.204 926.094 181.159 946.937 196.084C969.842 212.545 989.69 226.756 1016.44 208.484C1050.51 185.274 1063.67 147.03 1075.27 113.34C1089.14 72.9561 1101.16 38.059 1142.92 35.3155C1143.84 35.2606 1144.7 35.2058 1145.62 35.2058L1145.76 35.0411Z" fill="#15FF98"/>
</g>
<g opacity="0.71">
<path d="M1143.06 32.0233C1176.78 32.0233 1182.33 73.0658 1187.31 109.39C1190.93 136.056 1194.35 161.296 1208.72 165.247C1222.88 169.143 1231.13 153.34 1241.66 133.368C1255.17 107.634 1272.03 75.5898 1309.09 65.823C1349.07 55.2881 1387.48 71.1454 1424.62 86.3992C1458.12 100.226 1489.71 113.23 1522.64 108.786C1522.86 108.786 1523.07 109.005 1523.07 109.39C1523.07 109.774 1522.93 110.048 1522.72 110.103C1489.64 114.602 1456.49 100.94 1424.4 87.716C1387.34 72.4623 1349.07 56.6598 1309.23 67.1399C1272.39 76.8518 1255.67 108.676 1242.22 134.246C1231.55 154.547 1223.16 170.569 1208.58 166.564C1193.71 162.449 1190.22 136.824 1186.52 109.719C1181.62 73.2853 1176 31.9136 1141.28 33.3951C1100.66 35.096 1089.35 71.8038 1076.26 114.328C1065.17 150.432 1052.57 191.31 1018.5 213.203C991.681 230.432 971.265 213.697 949.569 195.974C928.512 178.745 904.681 159.211 871.247 168.429C826.36 180.775 802.316 131.008 783.038 90.9534C770.305 64.561 759.278 41.7901 745.691 43.7106C730.61 45.7956 712.826 78.8271 689.707 147.579C661.964 230.048 650.013 250.295 604.841 244.04C555.828 237.236 535.341 208.813 515.494 181.324C502.618 163.491 489.315 145 468.259 133.093C446.278 120.693 429.418 137.647 411.634 155.7C398.261 169.198 384.46 183.134 367.53 185.658C348.465 188.512 328.049 175.727 305.356 146.701C225.186 44.2044 177.097 67.085 126.163 91.3374C87.6786 109.664 47.8422 128.649 -7.71545 91.8861C-7.92886 91.7764 -8 91.3923 -7.92886 91.0631C-7.85772 90.7339 -7.64431 90.5693 -7.4309 90.679C47.9133 127.277 87.6075 108.402 125.95 90.1303C177.097 65.7682 225.399 42.7778 305.854 145.713C356.29 210.185 384.176 181.927 411.207 154.657C429.205 136.495 446.207 119.321 468.472 131.941C489.671 143.903 502.974 162.449 515.92 180.391C535.625 207.771 555.97 236.029 604.77 242.833C628.458 246.125 642.188 241.845 653.783 227.634C665.378 213.422 674.697 189.335 688.924 147.085C712.471 76.9616 729.97 44.7531 745.478 42.5583C759.563 40.583 770.66 63.6283 783.536 90.2949C802.743 130.075 826.645 179.513 871.034 167.277C904.681 158.004 928.654 177.593 949.782 194.931C971.265 212.545 991.61 229.17 1018.07 212.106C1051.86 190.377 1064.38 149.719 1075.41 113.834C1088.07 72.7366 1100.02 33.8889 1141.14 32.1879C1141.71 32.1879 1142.35 32.1879 1142.92 32.1879L1143.06 32.0233Z" fill="#15FF98"/>
</g>
<g opacity="0.74">
<path d="M1140.14 28.9506C1175.92 28.9506 1181.26 71.749 1185.96 109.554C1189.44 137.977 1192.5 162.503 1207.15 166.07C1220.88 169.417 1228.85 153.999 1239.02 134.465C1252.18 109.005 1268.62 77.3457 1305.54 65.7682C1345.66 53.203 1385.14 69.7188 1423.27 85.631C1455.7 99.1838 1489.28 113.23 1522.57 108.786C1522.79 108.786 1523 109.005 1523 109.39C1523 109.774 1522.86 110.048 1522.64 110.103C1489.21 114.602 1455.56 100.556 1423.05 86.9479C1385 71.0357 1345.59 54.5748 1305.68 67.0851C1269.04 78.5528 1252.75 110.048 1239.66 135.343C1229.42 155.151 1221.24 170.844 1207.08 167.387C1191.86 163.711 1188.66 137.538 1185.17 109.883C1180.55 72.572 1175.28 30.3224 1140.14 30.3224C1139.93 30.3224 1139.65 30.3224 1139.43 30.3224C1099.38 30.9808 1088.14 71.749 1076.26 114.931C1065.24 155.041 1053.85 196.468 1020.06 216.879C993.46 232.956 973.399 214.465 952.13 194.877C930.789 175.233 906.673 153.011 872.172 163.381C826.574 177.099 801.391 128.265 781.188 88.9781C767.886 63.1893 756.433 40.8573 742.632 43.3814C727.267 46.1797 709.412 80.583 686.577 151.694C659.901 234.767 648.234 255.288 603.632 250.13C555.259 244.479 534.772 212.27 514.996 181.049C501.409 159.65 488.533 139.458 467.405 127.222C445.709 114.657 428.778 133.697 410.852 153.834C397.336 168.978 383.393 184.671 366.391 188.292C347.113 192.462 326.697 180.007 303.934 150.268C222.269 43.4911 174.252 66.701 123.46 91.2826C85.7579 109.499 46.7751 128.374 -7.64431 91.8313C-7.85772 91.7215 -7.92886 91.3375 -7.85772 91.0082C-7.78659 90.679 -7.57318 90.5144 -7.35977 90.6242C46.7751 126.948 85.6157 108.182 123.247 90.0206C148.927 77.62 173.185 65.8779 201.995 70.3224C234.576 75.3704 267.156 100.446 304.432 149.225C326.982 178.745 347.185 191.091 366.32 186.975C383.18 183.354 397.051 167.771 410.425 152.682C428.494 132.38 445.638 113.176 467.69 125.905C489.031 138.251 502.547 159.486 515.565 180.007C535.27 211.008 555.686 243.107 603.703 248.704C647.879 253.861 659.403 233.45 685.937 150.981C709.269 78.498 726.698 44.8628 742.632 41.9547C756.86 39.3759 768.455 61.8724 781.9 87.9904C801.96 127.003 827 175.562 872.172 161.955C906.958 151.475 931.215 173.861 952.627 193.615C973.755 213.038 993.673 231.42 1019.92 215.508C1053.36 195.261 1064.74 154.054 1075.69 114.218C1087.64 70.6516 1099.03 29.5542 1139.57 28.8409C1139.86 28.8409 1140.07 28.8409 1140.36 28.8409L1140.14 28.9506Z" fill="#15FF98"/>
</g>
<g opacity="0.77">
<path d="M1137.16 25.8231C1137.16 25.8231 1137.44 25.8231 1137.58 25.8231C1175.21 26.1523 1180.26 70.5419 1184.67 109.774C1187.95 138.69 1190.72 163.711 1205.73 166.838C1219.1 169.637 1226.36 155.316 1236.53 135.508C1249.41 110.322 1265.41 78.9918 1302.05 65.6584C1342.24 51.0082 1382.79 68.1825 1421.92 84.808C1454.85 98.7997 1488.93 113.23 1522.57 108.731C1522.79 108.676 1523 108.951 1523 109.335C1523 109.719 1522.86 109.993 1522.64 110.048C1488.78 114.547 1454.71 100.062 1421.7 86.07C1382.58 69.4993 1342.17 52.3251 1302.19 66.9204C1265.84 80.1989 1249.91 111.31 1237.1 136.331C1227.21 155.7 1219.39 171.008 1205.66 168.1C1190.15 164.808 1187.09 138.196 1183.96 109.993C1179.62 71.31 1174.64 27.4143 1137.65 27.1399C1137.51 27.1399 1137.37 27.1399 1137.23 27.1399C1098.03 27.1399 1087.5 70.048 1076.26 115.48C1065.88 157.785 1055.06 201.516 1021.7 220.391C995.309 235.316 975.533 215.123 954.619 193.669C931.998 170.514 908.665 146.591 873.168 158.169C826.858 173.258 800.538 125.357 779.481 86.8382C765.61 61.5432 753.659 39.7051 739.645 42.8327C723.71 46.3992 706.424 81.1866 683.518 155.645C657.767 239.486 645.531 260.062 602.494 256.056C554.69 251.612 534.203 215.508 514.355 180.61C500.626 156.468 487.679 133.697 466.481 121.187C444.997 108.512 427.996 129.527 409.998 151.804C396.34 168.649 382.255 186.043 365.111 190.816C345.62 196.303 325.132 184.177 302.369 153.779C264.524 103.189 231.73 77.0713 199.078 71.5844C170.339 66.7558 146.224 78.6077 120.686 91.118C83.7661 109.28 45.6369 127.99 -7.64431 91.7215C-7.85772 91.6118 -7.92886 91.2277 -7.85772 90.8985C-7.78659 90.5693 -7.57318 90.4047 -7.35977 90.5144C45.6369 126.619 83.6238 107.908 120.473 89.856C144.943 77.8395 170.268 65.3841 199.221 70.2675C232.015 75.7545 264.951 101.982 302.938 152.737C325.488 182.915 345.833 194.931 365.04 189.499C382.042 184.726 396.055 167.442 409.571 150.706C427.782 128.265 444.926 107.03 466.765 119.925C488.177 132.545 501.195 155.48 514.996 179.678C534.7 214.41 555.117 250.295 602.565 254.739C645.175 258.69 657.269 238.278 682.878 155.041C705.855 80.144 723.354 45.1372 739.574 41.5158C754.014 38.2785 766.108 60.3361 780.05 85.9054C801.036 124.15 827.143 171.776 873.026 156.852C908.807 145.219 933.349 170.35 955.046 192.517C975.818 213.752 995.38 233.834 1021.49 219.074C1054.57 200.364 1065.24 156.907 1075.62 114.877C1086.93 69.0055 1097.53 25.7133 1137.3 25.7133L1137.16 25.8231Z" fill="#15FF98"/>
</g>
<g opacity="0.8">
<path d="M1134.1 22.6955C1134.67 22.6955 1135.16 22.6955 1135.73 22.6955C1174.57 23.9575 1179.27 69.6639 1183.39 110.048C1186.38 139.458 1189.01 164.918 1204.31 167.606C1217.26 169.911 1224.3 155.919 1233.97 136.605C1245.85 112.956 1262.07 80.6379 1298.49 65.5487C1338.69 48.6489 1380.3 66.5912 1420.56 83.9301C1453.93 98.3059 1488.5 113.176 1522.57 108.731C1522.79 108.731 1523 108.951 1523 109.335C1523 109.719 1522.86 109.993 1522.64 110.048C1488.43 114.547 1453.78 99.6228 1420.35 85.2469C1380.23 67.963 1338.69 50.0755 1298.71 66.8656C1262.5 81.7901 1246.35 113.999 1234.54 137.483C1225.08 156.413 1217.54 171.337 1204.17 168.923C1188.3 166.125 1185.67 140.226 1182.61 110.268C1178.56 70.4321 1173.93 25.2744 1135.73 24.0124C1135.16 24.0124 1134.67 24.0124 1134.17 24.0124C1096.39 24.0124 1086.58 68.8409 1076.12 116.193C1066.37 160.693 1056.2 206.674 1023.19 224.012C996.874 237.84 977.454 215.892 956.824 192.682C934.061 166.948 910.443 140.391 874.022 153.121C826.929 169.582 799.613 122.613 777.56 84.8628C763.12 60.0617 750.6 38.6626 736.444 42.4486C720.224 46.7833 702.867 82.9973 680.317 159.815C668.295 200.802 659.118 227.579 647.665 243.217C636.71 258.196 623.265 263.738 601.213 262.202C553.907 258.964 533.42 219.019 513.573 180.391C499.772 153.56 486.754 128.21 465.485 115.37C444.286 102.641 427.213 125.631 409.145 149.938C382.255 186.097 351.737 227.085 300.804 157.455C262.817 105.604 228.671 77.5103 196.304 71.6393C167.423 66.4266 142.24 78.9369 117.912 91.118C81.7743 109.17 44.4276 127.826 -7.71545 91.8313C-7.92886 91.7216 -8 91.3375 -7.92886 90.9534C-7.85772 90.6242 -7.64431 90.4596 -7.4309 90.6242C44.4276 126.454 81.632 107.853 117.627 89.856C142.027 77.6749 167.209 65.0549 196.304 70.3773C228.813 76.3032 263.101 104.451 301.23 156.468C323.781 187.305 344.197 198.992 363.617 192.298C380.761 186.372 394.917 167.332 408.575 148.951C426.857 124.369 444.144 101.159 465.698 114.163C487.181 127.112 500.27 152.572 514.142 179.568C533.918 217.977 554.334 257.702 601.213 260.94C643.184 263.848 654.992 243.107 679.605 159.321C702.298 82.0645 719.798 45.631 736.301 41.2415C750.884 37.3457 763.547 58.9644 778.13 84.0398C799.968 121.571 827.214 168.21 873.879 151.914C910.657 139.074 935.412 167.003 957.322 191.694C977.739 214.739 997.088 236.523 1022.98 222.86C1055.63 205.686 1065.66 159.979 1075.41 115.809C1085.94 67.963 1095.9 22.7504 1134.17 22.7504L1134.1 22.6955Z" fill="#15FF98"/>
</g>
<g opacity="0.83">
<path d="M1131.25 19.5679C1132.1 19.5679 1132.96 19.5679 1133.88 19.6228C1173.86 21.9273 1178.27 68.9506 1182.04 110.432C1184.82 140.336 1187.16 166.18 1202.74 168.375C1215.33 170.185 1222.02 156.578 1231.34 137.702C1242.86 114.328 1258.73 82.3389 1294.94 65.439C1335.13 46.4541 1375.89 64.2319 1419 83.0522C1452.93 97.867 1488 113.121 1522.57 108.676C1522.79 108.676 1523 108.896 1523 109.28C1523 109.664 1522.86 109.938 1522.64 109.993C1487.93 114.492 1452.79 99.1838 1418.86 84.369C1375.82 65.6036 1335.2 47.8258 1295.15 66.7559C1259.23 83.4911 1243.43 115.316 1231.98 138.58C1222.52 157.73 1215.69 171.557 1202.67 169.691C1186.52 167.387 1184.03 141.104 1181.26 110.597C1177.49 69.6091 1173.15 23.1345 1133.81 20.8848C1095.11 18.6351 1085.79 66.4266 1075.84 116.962C1066.66 163.601 1057.27 211.776 1024.69 227.634C998.51 240.364 979.303 216.715 958.958 191.639C935.981 163.327 912.222 134.081 874.875 147.963C827.143 165.741 798.617 119.705 775.711 82.7778C760.63 58.4705 747.683 37.4554 733.242 41.8999C716.668 47.0028 699.381 84.5885 677.187 163.875C653.712 247.606 641.476 269.993 600.004 268.237C553.196 266.152 532.637 222.366 512.719 180.007C498.848 150.432 485.759 122.503 464.489 109.444C443.646 96.605 426.431 121.516 408.291 147.908C381.046 187.469 350.243 232.243 299.167 161.022C260.54 107.195 226.039 77.9493 193.459 71.6393C164.435 65.9877 139.395 78.7175 115.208 91.0083C79.8536 109.006 43.2183 127.606 -7.71545 91.7764C-7.92886 91.6118 -8 91.2277 -7.92886 90.8985C-7.85772 90.5693 -7.64431 90.4047 -7.4309 90.5693C43.2894 126.18 79.7113 107.634 114.995 89.7463C139.253 77.4006 164.364 64.6708 193.601 70.3224C226.253 76.6873 260.967 106.043 299.665 160.034C322.287 191.53 342.774 202.942 362.408 194.877C379.694 187.744 393.992 167.003 407.793 146.92C426.146 120.254 443.503 95.0686 464.773 108.182C486.256 121.406 499.417 149.499 513.359 179.184C533.135 221.324 553.552 264.89 600.004 266.92C641.05 268.731 653.143 246.454 676.475 163.327C698.812 83.6557 716.241 45.8505 733.1 40.6379C747.897 36.0837 761.057 57.3183 776.28 81.845C799.044 118.608 827.356 164.314 874.733 146.701C891.592 140.446 907.313 142.476 922.75 152.956C936.408 162.229 948.075 176.605 959.385 190.597C979.588 215.453 998.582 238.937 1024.48 226.372C1056.63 210.734 1066.02 162.833 1075.12 116.523C1084.94 66.6461 1094.19 19.4582 1131.25 19.4582V19.5679Z" fill="#15FF98"/>
</g>
<g opacity="0.85">
<path d="M1128.62 16.3855C1129.76 16.3855 1130.9 16.3855 1132.03 16.5501C1150.39 18.0316 1162.98 28.786 1170.59 49.4171C1177.21 67.3594 1179.13 90.5144 1180.83 110.926C1183.32 141.269 1185.53 167.497 1201.39 169.198C1213.56 170.514 1220.03 157.236 1228.92 138.91C1240.16 115.809 1255.53 84.1496 1291.52 65.439C1331.71 44.3142 1373.4 62.7504 1417.58 82.284C1452.01 97.4829 1487.65 113.23 1522.64 108.731C1522.86 108.731 1523.07 108.951 1523.07 109.335C1523.07 109.719 1522.93 109.993 1522.72 110.048C1487.5 114.602 1451.86 98.7998 1417.36 83.546C1373.33 64.0673 1331.71 45.6859 1291.74 66.701C1256.02 85.3018 1240.73 116.742 1229.56 139.733C1220.46 158.388 1213.91 171.886 1201.32 170.514C1184.82 168.759 1182.61 142.037 1180.05 111.091C1176.57 68.8958 1172.58 21.1043 1132.03 17.8121C1093.76 14.6845 1085.01 64.7806 1075.76 117.84C1067.23 166.564 1058.48 216.934 1026.32 231.255C1000.15 242.942 981.224 217.538 961.093 190.706C937.973 159.815 914.071 127.826 875.871 142.915C827.427 162.01 797.763 116.962 774.004 80.7476C758.354 56.8793 744.767 36.3032 730.112 41.4061C713.182 47.332 695.896 86.3444 674.128 167.936C651.578 252.27 639.627 275.041 598.866 274.273C552.485 273.45 531.926 225.768 512.008 179.623C498.065 147.359 484.905 116.852 463.635 103.464C443.077 90.5144 425.862 117.401 407.579 145.823C380.05 188.731 348.821 237.401 297.674 164.589C258.477 108.786 223.478 78.3334 190.827 71.5295C161.661 65.439 136.763 78.3334 112.648 90.8437C78.004 108.786 42.2224 127.332 -7.64431 91.7216C-7.85772 91.557 -7.92886 91.1729 -7.85772 90.8437C-7.78659 90.5144 -7.57318 90.3498 -7.35977 90.5144C42.2935 125.905 77.9329 107.414 112.434 89.5817C136.621 77.0714 161.589 64.1221 190.898 70.2675C223.763 77.0714 258.833 107.634 298.172 163.601C320.793 195.809 341.423 206.893 361.198 197.455C378.627 189.17 393.068 166.674 407.01 144.89C425.435 116.193 442.792 89.033 463.848 102.257C485.332 115.754 498.563 146.427 512.577 178.855C532.353 224.726 552.84 272.133 598.866 272.956C599.506 272.956 600.075 272.956 600.715 272.956C639.556 272.956 651.364 249.801 673.417 167.387C695.327 85.3567 712.826 46.07 729.97 40.0892C744.98 34.8217 758.709 55.6722 774.502 79.76C798.19 115.754 827.641 160.583 875.658 141.598C914.285 126.344 938.329 158.553 961.591 189.609C981.509 216.276 1000.36 241.461 1026.11 229.938C1057.77 215.782 1066.52 165.796 1074.98 117.401C1084.02 65.439 1092.62 16.2758 1128.69 16.2758L1128.62 16.3855Z" fill="#15FF98"/>
</g>
<g opacity="0.88">
<path d="M1126.06 13.2031C1127.41 13.2031 1128.76 13.2579 1130.18 13.4225C1172.51 17.9219 1176.35 69.8286 1179.48 111.53C1181.76 142.311 1183.75 168.868 1199.9 170.076C1211.71 170.844 1217.9 158.004 1226.36 140.117C1237.24 117.236 1252.18 85.9603 1287.89 65.439C1328.01 42.1743 1370.7 61.2689 1415.87 81.5158C1450.87 97.1537 1487.01 113.34 1522.57 108.786C1522.79 108.786 1523 109.006 1523 109.39C1523 109.774 1522.86 110.048 1522.64 110.103C1487 114.657 1450.73 98.4706 1415.73 82.7778C1370.63 62.6407 1328.09 43.6009 1288.18 66.701C1252.68 87.1125 1237.81 118.224 1227 140.995C1218.32 159.156 1212.06 172.325 1199.83 171.392C1183.04 170.185 1181.05 143.08 1178.7 111.749C1175.5 68.402 1171.87 19.2387 1130.11 14.7943C1092.13 10.7339 1084.02 63.2991 1075.41 118.882C1067.58 169.691 1059.4 222.202 1027.82 235.041C1001.71 245.631 982.932 218.58 963.085 189.883C939.823 156.358 915.85 121.68 876.725 137.977C827.57 158.443 796.839 114.328 772.154 78.8821C755.793 55.4527 741.708 35.2607 726.84 41.022C709.625 47.771 692.339 88.2099 670.927 172.161C649.657 255.727 637.422 280.089 597.585 280.473C597.372 280.473 597.229 280.473 597.016 280.473C551.418 280.473 530.859 229.115 511.012 179.458C496.998 144.451 483.767 111.365 462.568 97.7572C442.294 84.7531 425.008 113.505 406.726 143.958C378.84 190.322 347.327 242.833 295.966 168.429C256.13 110.652 220.775 78.9918 187.981 71.749C158.673 65.2744 133.917 78.3334 109.944 90.9534C76.0122 108.841 41.0131 127.332 -7.78659 91.9411C-8 91.7765 -8.07113 91.3924 -8 91.0631C-7.92886 90.7339 -7.71545 90.5693 -7.50204 90.7339C41.0131 125.905 75.9411 107.469 109.731 89.6914C133.775 77.0165 158.602 63.9027 188.123 70.4321C221.131 77.7298 256.557 109.444 296.535 167.442C347.327 241.077 378.556 189.006 406.228 143.025C424.723 112.298 442.152 83.2168 462.924 96.5501C484.407 110.322 497.709 143.573 511.723 178.745C531.499 228.128 551.916 279.211 597.087 279.211C597.301 279.211 597.443 279.211 597.656 279.211C636.995 278.882 649.088 254.685 670.216 171.722C691.699 87.332 709.127 46.6187 726.627 39.8149C741.921 33.8341 756.148 54.3005 772.652 77.9493C797.194 113.176 827.783 157.071 876.583 136.77C916.063 120.309 940.25 155.206 963.654 188.951C983.358 217.373 1002 244.259 1027.75 233.834C1058.91 221.214 1067.02 169.033 1074.77 118.663C1083.16 64.5611 1091.06 13.4225 1126.13 13.4225L1126.06 13.2031Z" fill="#15FF98"/>
</g>
<g opacity="0.91">
<path d="M1123.64 10.0206C1125.13 10.0206 1126.7 10.1303 1128.33 10.3498C1171.87 16.0014 1175.36 69.3347 1178.13 112.188C1180.19 143.354 1181.97 170.295 1198.33 170.844C1198.48 170.844 1198.69 170.844 1198.83 170.844C1209.93 170.844 1215.76 158.388 1223.73 141.269C1234.33 118.663 1248.84 87.716 1284.27 65.3292C1324.24 39.9245 1367.92 59.6776 1414.16 80.583C1449.73 96.6598 1486.44 113.285 1522.43 108.731C1522.64 108.731 1522.86 108.951 1522.86 109.335C1522.86 109.719 1522.72 109.993 1522.5 110.048C1486.36 114.602 1449.52 97.9767 1413.95 81.845C1367.85 60.9945 1324.32 41.2963 1284.55 66.5363C1249.27 88.8134 1234.83 119.595 1224.3 142.092C1216.05 159.76 1210.07 172.49 1198.19 172.16C1181.12 171.557 1179.27 144.122 1177.21 112.353C1175.78 91.0631 1174.22 66.8656 1167.67 47.8258C1160.13 25.9876 1147.19 14.1358 1128.12 11.6667C1090.49 6.78325 1082.95 61.6529 1075.05 119.815C1067.87 172.654 1060.4 227.25 1029.24 238.608C1003.13 248.155 984.568 219.348 964.863 188.896C941.53 152.737 917.415 115.37 877.436 132.819C827.641 154.602 795.771 111.42 770.162 76.7421C753.161 53.7517 738.507 33.8889 723.354 40.4184C705.784 47.9904 688.569 89.856 667.655 176.221C658.122 215.617 649.515 245.412 638.489 262.915C628.458 278.882 616.223 285.741 596.305 286.454C595.664 286.454 594.953 286.454 594.313 286.454C550.137 286.454 529.792 231.859 510.087 179.019C496.002 141.269 482.7 105.604 461.572 91.7215C441.583 78.6625 424.297 109.28 405.943 141.708C377.773 191.529 345.833 247.99 294.401 171.886C253.925 112.078 218.285 79.2661 185.278 71.5295C155.899 64.6708 131.214 77.8944 107.383 90.679C74.2338 108.512 39.8749 126.948 -7.85772 91.8313C-8.07113 91.6667 -8.14227 91.2826 -8.07113 90.9534C-8 90.6241 -7.78659 90.4595 -7.57318 90.6241C39.946 125.576 74.0915 107.195 107.099 89.417C131.001 76.5775 155.756 63.299 185.278 70.2126C218.428 77.9492 254.28 110.926 294.828 170.898C345.691 246.125 377.346 190.158 405.303 140.775C420.811 113.395 435.536 87.2771 451.969 87.2771C455.17 87.2771 458.442 88.2647 461.785 90.4595C483.198 104.506 496.571 140.336 510.727 178.306C530.29 230.816 550.564 285.137 594.313 285.137C594.953 285.137 595.664 285.137 596.305 285.137C635.003 283.711 646.74 259.184 666.943 175.672C688 88.9232 705.357 46.7833 723.212 39.1015C738.791 32.4074 753.587 52.4897 770.731 75.6996C796.198 110.213 827.925 153.121 877.365 131.502C917.699 113.834 942.028 151.475 965.503 187.853C984.995 218.086 1003.42 246.619 1029.17 237.236C1059.83 226.097 1067.23 171.886 1074.34 119.431C1082.02 63.1893 1089.28 9.9657 1123.57 9.9657L1123.64 10.0206Z" fill="#15FF98"/>
</g>
<g opacity="0.94">
<path d="M1121.51 6.83813C1123.14 6.83813 1124.78 6.94787 1126.56 7.22222C1171.23 14.1358 1174.36 68.8958 1176.92 112.956C1178.84 145.768 1180.34 171.667 1196.91 171.667C1208.01 171.667 1213.56 159.431 1221.31 142.531C1231.55 120.144 1245.57 89.5267 1280.85 65.2743C1320.76 37.7298 1365.36 58.1413 1412.6 79.7599C1448.66 96.2757 1486.01 113.34 1522.57 108.786C1522.79 108.786 1523 109.005 1523 109.39C1523 109.774 1522.86 110.048 1522.64 110.103C1485.94 114.712 1448.59 97.5926 1412.45 81.0768C1365.36 59.5679 1320.83 39.2112 1281.21 66.5363C1246.14 90.6241 1232.19 121.132 1221.95 143.354C1214.05 160.528 1208.36 172.929 1196.91 172.984C1179.62 172.984 1177.99 145.219 1176.14 113.121C1173.65 69.6091 1170.52 15.3978 1126.49 8.59396C1089.07 2.77778 1082.24 60.1715 1074.98 120.912C1068.44 175.727 1061.68 232.407 1031.02 242.284C1004.91 250.734 986.488 220.281 966.997 188.018C943.593 149.225 919.336 109.17 878.574 127.771C828.067 150.871 795.06 108.676 768.526 74.7668C750.884 52.1605 735.59 32.6817 720.153 39.9245C702.227 48.3745 685.154 91.6667 664.667 180.336C644.179 269.225 631.162 290.185 595.238 292.599C550.066 295.617 529.294 236.193 509.305 178.8C495.149 138.306 481.846 100.062 460.79 85.9053C441.156 72.7915 423.799 105.274 405.374 139.623C387.661 172.709 367.672 210.185 342.418 212.49C326.626 213.971 310.478 201.845 292.979 175.562C251.933 113.724 215.867 79.7051 182.717 71.5295C153.195 64.2318 128.724 77.6749 105.036 90.6241C72.5977 108.402 39.0212 126.838 -7.71545 91.8861C-7.92886 91.7215 -8 91.3374 -7.92886 91.0082C-7.85772 90.679 -7.64431 90.5144 -7.4309 90.679C39.0212 125.412 72.4554 107.085 104.751 89.3621C128.511 76.358 153.124 62.8601 182.788 70.2126C216.08 78.4431 252.289 112.572 293.477 174.575C310.763 200.583 326.697 212.545 342.347 211.173C367.245 208.923 387.234 171.667 404.805 138.745C423.372 104.012 440.871 71.2551 461.074 84.6982C482.415 99.0192 495.789 137.483 510.016 178.141C529.934 235.206 550.564 294.246 595.238 291.283C630.806 288.923 643.61 268.128 663.955 179.897C684.514 90.7888 701.8 47.2222 719.94 38.6625C735.732 31.2003 751.169 50.8985 769.024 73.7243C795.416 107.469 828.281 149.444 878.361 126.509C919.549 107.689 943.949 148.018 967.495 187.085C986.844 219.074 1005.05 249.307 1030.81 241.022C1060.9 231.31 1067.66 175.069 1074.13 120.693C1077.83 89.9108 1081.31 60.8848 1088.71 39.321C1096.18 17.5926 1106.92 6.94787 1121.43 6.94787L1121.51 6.83813Z" fill="#15FF98"/>
</g>
<g opacity="0.97">
<path d="M1119.23 3.60083C1121.01 3.60083 1122.79 3.76544 1124.71 4.09466C1170.52 12.3251 1173.36 68.5665 1175.64 113.779C1177.28 146.975 1178.63 173.258 1195.49 172.435C1206.23 171.941 1211.21 160.748 1218.89 143.738C1228.78 121.626 1242.37 91.3375 1277.44 65.2195C1317.2 35.535 1362.8 56.6049 1411.03 78.882C1447.74 95.8368 1485.65 113.34 1522.64 108.731C1522.86 108.731 1523.07 108.951 1523.07 109.335C1523.07 109.719 1522.93 109.993 1522.72 110.048C1485.51 114.657 1447.52 97.0988 1410.82 80.144C1362.73 57.9218 1317.27 36.9067 1277.79 66.4266C1242.94 92.38 1229.42 122.558 1219.53 144.561C1212.06 161.241 1206.66 173.313 1195.56 173.807C1177.92 174.63 1176.49 146.481 1174.86 113.944C1172.65 69.225 1169.81 13.5871 1124.64 5.4664C1087.5 -1.2277 1081.31 58.6351 1074.7 121.955C1068.79 178.69 1062.68 237.401 1032.58 245.85C1006.41 253.148 988.196 221.049 968.918 187.085C945.443 145.713 921.114 102.915 879.57 122.668C828.423 147.195 794.278 105.933 766.819 72.7366C748.466 50.5144 732.602 31.3649 716.81 39.3759C698.528 48.7037 681.526 93.4225 661.608 184.396C651.151 231.968 643.468 256.77 634.149 272.846C624.617 289.307 612.951 296.77 594.099 298.635C549.283 302.97 528.512 239.705 508.451 178.471C494.295 135.233 480.85 94.3553 459.865 79.9794C440.516 66.7558 423.941 99.4582 404.734 137.318C386.736 172.874 366.249 213.148 340.427 215.892C324.705 217.593 308.629 205.576 291.414 179.184C249.799 115.206 213.448 79.8697 180.156 71.2003C150.563 63.5185 126.235 77.1811 102.617 90.3498C70.8193 108.182 37.9542 126.619 -7.78659 91.8862C-8 91.7215 -8.07113 91.3375 -8 91.0082C-7.92886 90.679 -7.64431 90.5144 -7.50204 90.679C37.9542 125.192 70.677 106.866 102.333 89.0878C121.255 78.4979 140.462 67.7435 162.585 67.7435C195.948 67.7435 235.927 92.1605 291.912 178.196C308.984 204.314 324.848 216.221 340.355 214.575C365.822 211.886 386.167 171.831 404.094 136.44C422.66 99.7874 440.231 65.2195 460.078 78.7723C481.348 93.3676 494.793 134.41 509.091 177.867C529.081 238.717 549.71 301.653 594.028 297.373C628.885 293.971 641.405 272.792 660.825 184.012C680.886 92.5995 698.03 47.6612 716.525 38.2236C732.602 29.9931 748.608 49.3621 767.175 71.749C794.491 104.726 828.494 145.823 879.215 121.461C921.256 101.488 945.727 144.561 969.344 186.262C988.48 220.007 1006.62 251.831 1032.3 244.643C1061.89 236.358 1067.94 178.141 1073.77 121.79C1076.97 91.1729 1080.25 59.513 1087.36 37.1262C1094.47 14.6845 1104.93 3.71057 1119.09 3.71057L1119.23 3.60083Z" fill="#15FF98"/>
</g>
<path d="M1117.02 0.418396C1118.87 0.418396 1120.87 0.637873 1122.86 1.02196C1169.88 10.6242 1172.3 68.3471 1174.29 114.767C1175.71 148.292 1176.85 174.739 1193.99 173.258C1204.38 172.38 1209.15 161.461 1216.33 145C1225.93 123.107 1239.02 93.1482 1273.81 65.1646C1313.43 33.3402 1359.96 55.0137 1409.18 78.0041C1446.46 95.3978 1484.94 113.34 1522.5 108.731C1522.72 108.731 1522.93 108.951 1522.93 109.335C1522.93 109.719 1522.79 109.993 1522.57 110.048C1484.87 114.657 1446.24 96.6598 1408.97 79.2661C1359.88 56.3306 1313.5 34.712 1274.09 66.3718C1239.45 94.2456 1226.43 124.04 1216.9 145.823C1209.79 162.01 1204.74 173.697 1193.99 174.63C1176.07 176.166 1174.86 147.798 1173.44 114.931C1171.44 69.0055 1169.02 11.8313 1122.64 2.3937C1085.72 -5.12344 1080.18 57.1537 1074.27 123.162C1069.01 181.818 1063.6 242.503 1034.01 249.527C1007.83 255.727 989.761 221.927 970.625 186.152C947.008 142.092 922.679 96.5501 880.282 117.565C828.494 143.244 793.211 102.97 764.827 70.5967C745.691 48.8135 729.259 29.9383 713.182 38.7723C694.615 48.9781 677.685 95.1783 658.265 188.512C639.769 277.51 626.893 300.281 592.677 304.671C548.288 310.377 527.445 243.162 507.313 178.196C493.086 132.161 479.641 88.7037 458.656 74.0535C439.662 60.7751 423.016 95.1783 403.809 135.069C385.385 173.203 364.542 216.385 338.221 219.513C322.571 221.324 306.708 209.362 289.706 182.805C195.522 35.8642 147.006 63.5734 100.056 90.3498C68.9697 108.128 36.816 126.454 -7.85772 91.8862C-8.07113 91.7215 -8.14226 91.3375 -8.07113 91.0082C-7.99999 90.679 -7.71544 90.5693 -7.57317 90.679C36.8871 125.027 67.4047 107.524 99.7718 89.0878C146.935 62.1468 195.664 34.3279 290.204 181.818C307.064 208.1 322.714 220.007 338.15 218.196C364.186 215.123 384.887 172.161 403.24 134.246C421.878 95.6722 439.449 59.2387 459.011 72.8464C480.21 87.6612 493.726 131.337 508.095 177.593C527.302 239.65 547.149 303.738 587.555 303.738C589.262 303.738 590.969 303.628 592.677 303.409C626.467 299.074 639.2 276.413 657.553 188.073C677.045 94.3553 694.117 47.9355 712.969 37.5652C729.33 28.5665 745.976 47.5515 765.254 69.5542C793.495 101.763 828.565 141.872 879.997 116.358C922.821 95.1235 947.363 140.94 971.123 185.329C990.116 220.83 1008.11 254.355 1033.79 248.265C1062.82 241.406 1068.22 181.214 1073.42 122.997C1076.26 91.1728 1079.18 58.251 1086.01 34.9863C1092.84 11.8862 1102.94 0.528133 1116.81 0.528133L1117.02 0.418396Z" fill="#15FF98"/>
</svg>
