<svg width="1514" height="309" viewBox="0 0 1514 309" fill="none" xmlns="http://www.w3.org/2000/svg">
<g opacity="0.1">
<path d="M723.995 277.653C720.794 277.653 717.948 276.61 715.458 274.58C700.591 262.509 698.883 216.857 697.034 168.462C694.758 108.709 692.41 46.8711 666.943 32.3855C630.877 11.8642 599.577 64.8135 566.427 120.781C556.184 138.119 545.513 156.062 534.772 171.645C484.478 244.402 457.019 226.899 427.996 208.298C404.307 193.154 379.765 177.461 340.925 210.712C327.48 222.18 314.177 203.085 300.163 182.838C294.188 174.224 287.999 165.28 281.739 158.97C260.754 137.571 245.388 162.92 227.604 192.221C205.907 228.051 181.294 268.654 138.897 240.945C56.6631 187.118 37.9542 191.069 3.95093 198.257L-0.0327142 199.08C-0.0327142 199.08 -0.459534 198.86 -0.459534 198.531C-0.459534 198.147 -0.31726 197.818 -0.103851 197.818L3.87979 196.995C36.8871 190.026 56.7342 185.856 139.181 239.793C181.081 267.228 205.481 226.953 227.035 191.398C245.033 161.658 260.611 136.034 282.095 157.927C288.355 164.292 294.544 173.236 300.59 181.905C314.462 201.823 327.551 220.698 340.498 209.56C379.694 176.034 404.378 191.782 428.209 207.091C457.019 225.527 484.265 242.92 534.203 170.657C544.944 155.074 555.543 137.187 565.858 119.848C599.221 63.5515 630.664 10.3828 667.228 31.1235C693.193 45.8834 695.611 108.161 697.888 168.407C699.666 216.364 701.444 261.686 715.814 273.428C725.844 281.604 741.494 272.879 763.475 246.761C771.941 236.72 779.125 227.502 785.528 219.327C818.108 177.68 830.273 162.097 888.249 191.233C940.179 217.351 960.097 162.152 977.667 113.483C991.183 75.8972 1003.99 40.4513 1029.45 49.45C1063.39 61.4116 1079.82 95.9795 1097.25 132.523C1115.17 170.218 1135.52 212.962 1178.7 237.434C1225.01 263.661 1265.77 245.554 1313 224.594C1369.56 199.464 1433.65 170.931 1522.79 216.309C1523 216.418 1523.14 216.803 1523.07 217.132C1523.07 217.461 1522.79 217.68 1522.57 217.571C1433.65 172.303 1369.63 200.726 1313.22 225.856C1265.91 246.871 1225.08 265.033 1178.49 238.696C1135.09 214.114 1114.68 171.206 1096.68 133.346C1079.39 96.9671 1063.03 62.6187 1029.38 50.712C1004.49 41.878 992.393 75.4033 978.379 114.141C960.666 163.25 940.605 218.833 888.107 192.44C830.486 163.469 818.393 178.942 786.097 220.314C779.766 228.435 772.51 237.708 764.045 247.749C747.185 267.722 734.025 277.653 724.137 277.653H723.995Z" fill="#15FF98"/>
</g>
<g opacity="0.13">
<path d="M726.129 275.952C723.212 275.952 720.58 275.019 718.162 273.263C703.507 262.07 701.231 217.955 698.812 171.261C695.896 114.855 692.552 50.8765 666.09 37.4883C628.316 18.3388 596.305 69.3128 562.444 123.25C552.983 138.339 543.166 153.922 533.207 167.968C482.771 239.025 456.166 224.539 427.996 209.23C405.09 196.775 381.401 183.881 342.774 213.84C328.689 224.759 316.311 205.499 303.151 185.143C296.749 175.211 290.133 164.951 283.233 158.202C262.461 137.955 247.38 162.866 230.023 191.672C208.753 227.008 184.567 267.008 142.454 241.055C56.0229 187.831 36.1046 191.837 0.0384215 199.134C-0.174988 199.134 -0.388397 198.915 -0.388397 198.531C-0.388397 198.147 -0.246125 197.818 -0.032715 197.818C36.1758 190.52 56.1651 186.514 142.738 239.848C184.424 265.527 208.326 225.801 229.454 190.794C247.096 161.604 262.319 136.364 283.589 157.104C290.56 163.908 297.247 174.224 303.649 184.21C316.596 204.292 328.831 223.277 342.418 212.687C381.33 182.509 405.161 195.458 428.209 207.968C456.166 223.167 482.557 237.488 532.709 166.926C542.668 152.934 552.413 137.351 561.875 122.262C595.949 68.0508 628.103 16.8025 666.303 36.1715C693.264 49.834 696.607 114.251 699.595 171.096C702.014 217.406 704.29 261.137 718.517 272.001C728.69 279.793 744.482 270.136 766.605 242.481C774.359 232.824 781.046 223.936 786.951 216.034C819.531 172.742 831.695 156.501 889.458 184.923C941.032 209.999 960.95 158.86 978.521 113.812C992.108 78.9149 1004.98 45.9931 1030.38 55.2112C1064.24 67.4472 1080.96 99.4911 1098.67 133.401C1116.81 168.188 1137.44 207.639 1180.19 233.647C1228.21 262.783 1269.61 244.567 1317.49 223.442C1372.9 199.025 1435.72 171.316 1522.72 216.144C1522.93 216.254 1523.07 216.638 1523 216.967C1523 217.296 1522.72 217.516 1522.5 217.406C1435.72 172.687 1373.04 200.342 1317.7 224.704C1269.68 245.883 1228.14 264.155 1179.91 234.855C1136.94 208.737 1116.24 169.176 1098.03 134.278C1079.68 99.107 1063.81 68.7092 1030.17 56.5281C1005.27 47.4746 993.175 78.5857 979.09 114.525C961.377 159.957 941.246 211.535 889.174 186.185C831.767 157.927 819.673 174.059 787.377 217.022C781.473 224.868 774.786 233.812 767.032 243.469C749.675 265.143 736.159 275.842 726.058 275.842L726.129 275.952Z" fill="#15FF98"/>
</g>
<g opacity="0.16">
<path d="M728.192 274.416C725.489 274.416 723.07 273.647 720.865 272.056C706.424 261.741 703.579 219.162 700.591 174.059C696.892 118.202 692.624 54.9369 665.236 42.6461C625.471 24.8134 592.606 74.0864 557.82 126.267C549.355 138.942 540.605 152.111 531.642 164.347C480.992 233.757 455.17 222.289 427.782 210.108C405.659 200.287 382.753 190.081 344.553 217.077C329.685 227.557 318.019 207.914 305.641 187.118C299.025 175.979 292.196 164.512 284.656 157.488C264.097 138.339 249.372 162.811 232.37 191.178C211.456 225.966 187.768 265.472 145.939 241.219C62.4251 193.044 39.5903 191.453 -0.0327142 199.189C-0.246124 199.189 -0.459534 198.97 -0.459534 198.586C-0.459534 198.202 -0.31726 197.872 -0.103851 197.872C39.5903 190.081 62.4963 191.727 146.153 239.957C187.554 263.881 211.1 224.759 231.801 190.191C249.016 161.494 263.955 136.693 285.011 156.281C292.623 163.359 299.523 174.937 306.21 186.13C318.445 206.597 329.898 225.966 344.268 215.815C382.682 188.709 405.73 198.915 427.925 208.791C455.099 220.863 480.779 232.276 531.144 163.305C540.036 151.069 548.785 137.955 557.251 125.28C592.179 72.8244 625.257 23.332 665.378 41.3292C693.264 53.8395 697.532 117.598 701.302 173.894C704.29 218.558 707.135 260.808 721.149 270.849C731.535 278.257 747.399 267.667 769.736 238.421C776.707 229.313 782.825 220.808 788.231 213.346C821.736 167.091 832.976 151.562 890.596 178.942C941.744 203.25 961.733 156.117 979.304 114.58C992.962 82.3169 1005.91 51.8642 1031.23 61.3567C1065.17 73.9218 1081.46 102.125 1100.24 134.772C1118.59 166.652 1139.43 202.811 1181.69 230.136C1231.34 262.289 1273.31 243.963 1321.9 222.674C1376.17 198.915 1437.71 172.029 1522.64 216.309C1522.86 216.418 1523 216.802 1522.93 217.132C1522.93 217.461 1522.64 217.68 1522.43 217.571C1437.71 173.401 1376.32 200.232 1322.11 223.936C1273.38 245.225 1231.27 263.661 1181.4 231.343C1139.01 203.908 1118.09 167.639 1099.67 135.65C1080.96 103.112 1064.74 75.0192 1031.02 62.5638C1006.19 53.2908 993.958 82.0425 979.873 115.294C962.089 157.214 941.957 204.731 890.312 180.15C833.047 152.934 821.879 168.407 788.587 214.333C783.18 221.796 777.063 230.3 770.02 239.464C752.165 262.893 738.293 274.471 728.049 274.471L728.192 274.416Z" fill="#15FF98"/>
</g>
<g opacity="0.19">
<path d="M730.255 273.044C727.765 273.044 725.56 272.331 723.497 270.959C709.269 261.412 705.855 220.314 702.298 176.748C697.745 121.494 692.623 58.8875 664.311 47.749C622.198 31.1783 588.195 79.1893 552.2 129.999C545.015 140.15 537.617 150.575 530.077 160.671C479.143 228.545 455.099 220.369 427.284 210.822C406.939 203.853 383.891 195.952 346.402 220.15C330.752 230.246 319.584 210.053 307.846 188.654C301.088 176.418 294.188 163.798 286.078 156.61C265.733 138.503 251.364 162.591 234.718 190.41C214.23 224.759 190.969 263.661 149.354 241.165C65.1283 195.897 40.5862 191.343 -0.103851 199.08C-0.31726 199.08 -0.53067 198.86 -0.53067 198.476C-0.53067 198.092 -0.388397 197.763 -0.174987 197.763C40.5862 189.971 65.1995 194.58 149.567 239.903C190.684 262.125 213.804 223.497 234.149 189.423C251.008 161.219 265.591 136.857 286.363 155.348C294.544 162.591 301.515 175.321 308.273 187.667C319.868 208.737 330.823 228.599 345.975 218.833C383.678 194.525 406.868 202.427 427.355 209.45C454.956 218.888 478.858 227.063 529.507 159.519C537.048 149.477 544.446 138.997 551.631 128.901C587.768 77.8724 621.914 29.642 664.453 46.3772C693.335 57.7353 698.457 120.835 703.08 176.473C706.637 219.601 709.981 260.369 723.781 269.642C734.309 276.665 750.315 265.088 772.794 234.196C779.054 225.582 784.674 217.571 789.583 210.438C823.088 162.372 834.327 146.185 891.806 172.687C942.526 196.062 962.515 152.989 980.228 114.964C993.958 85.3896 1006.98 57.4609 1032.23 67.1728C1066.37 80.0672 1083.02 106.075 1102.3 136.144C1120.87 165.06 1141.85 197.872 1183.32 226.35C1234.61 261.631 1277.15 243.14 1326.38 221.741C1379.59 198.641 1439.84 172.413 1522.79 216.199C1523 216.309 1523.07 216.693 1523.07 217.022C1523.07 217.351 1522.79 217.571 1522.57 217.461C1439.91 173.785 1379.73 199.957 1326.59 223.058C1279.29 243.634 1234.61 263.058 1183.04 227.612C1141.42 199.025 1120.37 166.158 1101.8 137.132C1082.59 107.173 1066.09 81.3292 1032.09 68.4897C1007.26 58.9424 995.025 85.3347 980.869 115.842C963.084 154.196 942.882 197.653 891.663 174.004C834.612 147.722 823.443 163.798 790.152 211.48C785.172 218.558 779.623 226.624 773.292 235.239C754.939 260.479 740.712 272.934 730.255 272.934V273.044Z" fill="#15FF98"/>
</g>
<g opacity="0.22">
<path d="M732.389 271.727C730.113 271.727 728.049 271.124 726.129 269.971C712.044 261.247 708.131 221.521 704.077 179.436C698.741 124.841 692.695 62.8931 663.386 52.9068C618.286 37.5433 584.354 82.701 545.158 135.047C539.751 142.235 534.131 149.697 528.512 157.049C477.151 223.606 453.747 218.065 426.573 211.645C407.01 207.036 384.816 201.768 348.181 223.332C331.606 233.099 321.006 212.193 309.767 190.081C303.009 176.803 296.037 163.085 287.501 155.842C267.441 138.833 253.356 162.427 237.136 189.807C217.005 223.661 194.17 262.015 152.84 241.329C71.5306 200.89 43.2894 191.069 -0.103851 199.134C-0.31726 199.134 -0.53067 198.915 -0.53067 198.531C-0.53067 198.147 -0.388397 197.818 -0.174987 197.818C43.3606 189.697 71.6018 199.519 153.053 240.012C193.957 260.479 216.578 222.399 236.567 188.819C253.071 161.11 267.298 137.132 287.857 154.635C296.535 161.988 303.578 175.815 310.336 189.203C321.433 210.986 331.89 231.562 347.896 222.07C384.674 200.396 406.939 205.664 426.644 210.328C453.605 216.693 476.866 222.235 528.014 156.007C533.705 148.654 539.253 141.192 544.66 134.004C584.069 81.4939 618.072 36.1715 663.529 51.6448C693.335 61.7957 699.453 124.183 704.788 179.217C708.843 220.863 712.684 260.259 726.342 268.709C737.013 275.348 753.232 262.728 775.853 230.136C781.402 222.125 786.524 214.553 791.005 207.859C824.511 157.927 835.75 141.082 892.944 166.652C943.238 189.148 963.298 150.081 981.011 115.623C994.811 88.7367 1007.9 63.332 1033.15 73.2086C1067.73 86.7065 1084.87 110.52 1104.65 138.119C1123.28 164.073 1144.41 193.428 1184.82 222.783C1237.81 261.192 1282.84 241.713 1330.58 221.082C1382.65 198.531 1441.76 172.962 1522.72 216.254C1522.93 216.364 1523 216.748 1523 217.077C1523 217.406 1522.72 217.626 1522.5 217.516C1441.76 174.333 1382.79 199.848 1330.79 222.344C1282.91 243.03 1237.74 262.619 1184.53 223.99C1143.98 194.58 1122.86 165.115 1104.15 139.107C1084.37 111.617 1067.37 87.8588 1032.94 74.4706C1008.11 64.8135 995.807 88.7367 981.58 116.501C963.725 151.233 943.522 190.63 892.731 167.914C835.964 142.509 824.724 159.244 791.503 208.846C787.022 215.541 781.971 223.113 776.351 231.124C757.5 258.284 742.988 271.727 732.318 271.727H732.389Z" fill="#15FF98"/>
</g>
<g opacity="0.25">
<path d="M734.523 270.575C732.46 270.575 730.61 270.081 728.832 269.038C714.889 261.027 710.55 222.674 705.926 182.015C699.808 128.023 692.837 66.8436 662.604 58.0645C613.591 43.7984 577.596 89.3951 535.91 142.18C532.993 145.911 530.005 149.642 527.018 153.428C474.946 218.888 453.178 216.089 425.577 212.523C406.797 210.108 385.527 207.365 350.172 226.514C332.673 235.952 322.5 214.278 311.687 191.343C305.001 177.077 298.029 162.317 289.066 155.074C269.29 139.052 255.561 162.262 239.697 189.148C219.921 222.564 197.585 260.369 156.468 241.439C72.3843 203.03 43.6451 191.288 0.0384214 199.189C-0.174988 199.189 -0.388397 198.97 -0.388397 198.586C-0.388397 198.202 -0.246125 197.872 -0.032715 197.872C43.7874 189.916 72.4554 201.713 156.681 240.177C197.3 258.888 219.566 221.357 239.128 188.215C255.205 161 269.148 137.461 289.422 153.922C298.527 161.329 305.499 176.199 312.257 190.575C322.856 213.126 332.886 234.471 349.888 225.307C385.385 206.103 406.726 208.846 425.648 211.261C453.107 214.772 474.732 217.571 526.591 152.385C529.579 148.599 532.566 144.868 535.483 141.192C577.311 88.2428 613.449 42.4815 662.817 56.8574C693.619 65.8011 700.591 127.475 706.78 181.85C711.332 222.125 715.672 260.095 729.188 267.886C740.072 274.086 756.362 260.424 779.125 226.13C784.034 218.723 788.373 211.974 792.641 205.444C826.076 153.538 837.386 136.089 894.295 160.671C944.162 182.235 964.223 147.173 981.936 116.281C995.807 92.0837 1008.97 69.203 1034.15 79.2991C1069.65 93.5103 1086.58 114.361 1108.06 140.863C1126.63 163.743 1147.68 189.697 1186.45 219.272C1241.09 260.973 1286.61 241.329 1334.84 220.534C1385.85 198.531 1443.75 173.565 1522.79 216.364C1523 216.473 1523.07 216.857 1523.07 217.187C1523.07 217.516 1522.79 217.735 1522.57 217.626C1443.68 174.937 1385.99 199.848 1335.06 221.796C1286.68 242.646 1241.01 262.344 1186.17 220.479C1147.33 190.849 1126.27 164.841 1107.63 141.905C1086.22 115.513 1069.36 94.7174 1034.01 80.5611C1009.18 70.6296 996.874 92.1934 982.505 117.159C964.649 148.325 944.376 183.606 894.082 161.878C837.529 137.461 826.36 154.8 793.139 206.322C789.156 212.578 784.532 219.601 779.623 227.063C760.274 256.254 745.478 270.63 734.594 270.63L734.523 270.575Z" fill="#15FF98"/>
</g>
<g opacity="0.27">
<path d="M736.799 269.532C734.879 269.532 733.1 269.093 731.393 268.215C717.592 260.918 712.969 225.527 707.633 184.539C700.662 131.206 692.766 70.7394 661.608 63.1674C607.117 49.9438 569.202 96.1989 525.31 149.697C472.243 214.443 451.898 214.059 423.727 213.565C405.801 213.236 385.527 212.852 351.808 229.587C333.384 238.75 323.567 216.199 313.181 192.385C306.566 177.187 299.737 161.439 290.347 154.196C270.855 139.162 257.481 161.933 241.903 188.325C222.553 221.247 200.572 258.613 159.74 241.439C151.844 238.147 144.446 235.074 137.403 232.111C71.3172 204.402 41.1553 191.782 -0.174987 199.134C-0.388397 199.189 -0.601807 198.915 -0.601807 198.531C-0.601807 198.147 -0.459533 197.818 -0.246124 197.818C41.2976 190.465 71.4595 203.085 137.616 230.849C144.659 233.812 152.057 236.885 159.953 240.177C200.359 257.187 222.127 220.095 241.405 187.392C257.126 160.671 270.713 137.571 290.702 152.989C300.234 160.342 307.135 176.199 313.822 191.562C323.994 215.047 333.669 237.214 351.595 228.27C385.385 211.48 405.801 211.864 423.727 212.193C451.684 212.742 471.958 213.071 524.812 148.599C568.846 94.882 606.833 48.5172 661.679 61.7956C693.406 69.4774 701.373 130.438 708.345 184.155C713.395 223.058 718.233 259.82 731.606 266.844C742.633 272.66 759.136 257.9 782.042 221.796C786.31 215.047 790.223 208.792 793.922 202.811C827.356 148.874 838.667 130.712 895.291 154.361C944.66 174.937 964.792 143.936 982.576 116.61C996.519 95.1015 1009.75 74.7997 1034.93 85.1152C1072.35 100.424 1089.49 119.025 1113.25 144.813C1130.54 163.524 1152.09 186.899 1187.8 215.486C1244.07 260.534 1290.03 240.781 1338.69 219.82C1388.69 198.311 1445.32 173.894 1522.57 216.254C1522.79 216.364 1522.86 216.748 1522.86 217.077C1522.86 217.406 1522.57 217.626 1522.36 217.516C1445.32 175.321 1388.77 199.628 1338.9 221.137C1290.1 242.152 1244 262.015 1187.45 216.748C1151.6 188.051 1130.11 164.731 1112.76 145.966C1089.07 120.287 1071.92 101.741 1034.65 86.487C1009.82 76.3361 997.372 95.4856 983.003 117.708C965.076 145.307 944.802 176.528 895.007 155.787C838.738 132.303 828.494 148.929 794.349 203.908C790.65 209.944 786.737 216.144 782.469 222.948C762.48 254.498 747.683 269.642 736.657 269.642L736.799 269.532Z" fill="#15FF98"/>
</g>
<g opacity="0.3">
<path d="M739.005 268.599C737.297 268.599 735.661 268.215 734.096 267.502C720.438 260.918 715.387 226.679 709.483 187.063C701.729 134.388 692.837 74.69 660.754 68.38C604.201 57.2414 566.854 95.2661 523.817 146.13C469.041 210.877 449.977 212.632 421.167 215.266C405.09 216.748 385.1 218.558 353.729 232.824C334.238 241.658 324.848 218.229 314.889 193.428C308.415 177.296 301.728 160.671 291.983 153.483C272.776 139.381 259.687 161.713 244.606 187.612C225.612 220.095 204.058 256.967 163.51 241.604C147.433 235.568 132.993 229.916 120.33 224.923C67.3336 204.073 38.1676 192.605 0.109558 199.189C-0.103852 199.189 -0.317261 198.97 -0.317261 198.586C-0.317261 198.202 -0.174988 197.927 0.0384215 197.872C38.2387 191.233 67.4758 202.756 120.544 223.606C133.277 228.599 147.647 234.251 163.724 240.287C203.916 255.54 225.257 218.942 244.108 186.679C259.473 160.451 272.705 137.79 292.409 152.221C302.369 159.519 309.127 176.364 315.671 192.605C325.488 217.022 334.736 240.067 353.658 231.453C385.029 217.187 405.09 215.321 421.238 213.894C449.977 211.261 468.899 209.56 523.532 144.978C566.712 93.9493 604.201 55.8148 661.039 67.0083C693.691 73.428 702.583 133.62 710.479 186.679C716.312 225.911 721.292 259.82 734.523 266.185C745.762 271.562 762.408 255.705 785.457 217.735C789.156 211.645 792.57 205.938 795.771 200.561C812.702 172.193 823.87 153.428 837.884 144.594C851.827 135.815 868.402 136.857 896.785 148.27C945.656 167.914 965.859 140.918 983.643 117.104C997.728 98.284 1010.96 80.5062 1036.14 91.096C1077.97 108.654 1094.54 124.457 1124.49 153.099C1140.43 168.298 1160.2 187.228 1189.65 211.864C1247.56 260.369 1293.94 240.451 1342.95 219.327C1391.9 198.257 1447.38 174.388 1522.86 216.254C1523.07 216.364 1523.14 216.748 1523.07 217.077C1523.07 217.406 1522.79 217.626 1522.57 217.516C1447.31 175.76 1391.97 199.573 1343.1 220.589C1293.87 241.768 1247.42 261.741 1189.23 213.071C1159.78 188.435 1140 169.505 1124.07 154.251C1094.12 125.664 1077.61 109.861 1035.86 92.358C1011.03 81.9328 998.51 98.7229 983.999 118.147C966.072 142.18 945.727 169.34 896.501 149.587C840.516 127.091 830.273 144.375 796.198 201.494C792.997 206.871 789.583 212.632 785.883 218.668C765.396 252.413 750.386 268.545 739.076 268.545L739.005 268.599Z" fill="#15FF98"/>
</g>
<g opacity="0.33">
<path d="M741.139 267.776C739.574 267.776 738.151 267.447 736.728 266.844C723.141 260.918 717.664 227.831 711.261 189.423C702.654 137.406 692.837 78.476 659.758 73.428C602.422 64.6488 567.139 90.8765 522.109 142.399C464.489 208.407 447.416 211.754 416.4 217.79C401.604 220.698 383.18 224.32 355.436 235.842C334.949 244.402 325.417 218.888 316.24 194.196C309.909 177.241 303.365 159.683 293.263 152.605C274.412 139.381 261.607 161.329 246.882 186.789C228.244 218.888 207.117 255.211 166.782 241.604C144.659 234.251 125.879 227.173 109.233 220.918C64.8438 204.182 35.5355 193.099 -0.174987 199.134C-0.388397 199.134 -0.601807 198.915 -0.601807 198.531C-0.601807 198.147 -0.459533 197.872 -0.246124 197.818C35.6067 191.727 64.9861 202.811 109.446 219.601C126.021 225.856 144.872 232.989 166.996 240.287C206.903 253.73 227.889 217.68 246.384 185.801C261.323 160.012 274.27 137.79 293.619 151.343C303.934 158.586 310.549 176.309 316.952 193.483C326.413 218.888 335.376 242.866 355.294 234.525C383.037 222.948 401.533 219.326 416.329 216.473C447.203 210.438 464.204 207.091 521.682 141.302C566.854 89.6145 602.209 63.2771 659.83 72.1111C693.477 77.2689 703.294 136.638 711.973 189.093C718.304 227.063 723.71 259.875 736.87 265.582C748.323 270.575 765.112 253.565 788.302 213.62C791.432 208.243 794.349 203.195 797.052 198.366C831.34 138.558 841.654 120.506 897.71 142.125C946.083 160.781 966.286 137.79 984.141 117.543C998.937 100.753 1011.67 86.2126 1036.85 97.022C1091.49 120.451 1104.58 132.029 1159.63 180.588C1168.74 188.654 1179.13 197.763 1191.01 208.188C1250.55 260.204 1297.21 240.122 1346.65 218.833C1396.95 197.159 1448.95 174.772 1522.72 216.199C1522.93 216.309 1523 216.693 1522.93 217.022C1522.93 217.351 1522.64 217.571 1522.43 217.461C1448.88 176.144 1397.02 198.476 1346.79 220.095C1297.21 241.439 1250.41 261.631 1190.58 209.34C1178.7 198.97 1168.31 189.807 1159.21 181.741C1102.87 132.029 1091.13 121.658 1036.57 98.284C1011.67 87.5844 999.08 101.96 984.425 118.586C966.499 138.997 946.154 162.207 897.426 143.387C841.797 121.933 831.553 139.82 797.479 199.244C794.704 204.073 791.788 209.121 788.729 214.498C767.815 250.547 752.449 267.722 740.996 267.722L741.139 267.776Z" fill="#15FF98"/>
</g>
<g opacity="0.36">
<path d="M743.344 267.063C741.992 267.063 740.641 266.789 739.431 266.35C725.915 261.082 720.011 229.038 713.182 191.892C703.721 140.589 692.979 82.4266 658.976 78.6406C601.924 72.2757 567.068 87.4747 520.687 138.833C457.802 208.517 445.14 212.084 407.579 222.728C394.846 226.35 379.054 230.849 357.357 239.08C335.803 247.255 326.626 220.753 317.805 195.074C311.687 177.241 305.285 158.86 294.828 151.892C276.333 139.546 263.884 161.11 249.443 186.075C232.086 216.199 210.46 253.62 170.41 241.823C143.876 234.141 121.895 226.021 102.475 218.888C62.7097 204.237 33.9705 193.647 -0.0327142 199.299C-0.246124 199.299 -0.459534 199.08 -0.459534 198.695C-0.459534 198.311 -0.31726 198.037 -0.103851 197.982C34.0417 192.276 62.852 202.92 102.688 217.626C122.109 224.759 144.09 232.879 170.624 240.561C210.247 252.303 230.876 216.638 249.016 185.198C263.599 159.903 276.19 138.065 295.255 150.739C305.925 157.872 312.399 176.473 318.588 194.471C327.693 220.918 336.372 245.883 357.286 237.872C378.983 229.642 394.775 225.143 407.508 221.521C444.926 210.931 457.517 207.31 520.331 137.845C566.854 86.3224 601.853 71.0686 659.118 77.4884C693.691 81.3292 704.503 139.93 714.036 191.672C720.794 228.435 726.698 260.204 739.716 265.252C751.525 269.861 768.028 252.193 791.574 209.724C794.135 205.115 796.554 200.726 798.83 196.556C833.047 134.388 843.362 115.678 899.062 136.254C946.865 153.922 967.068 134.937 984.923 118.202C999.791 104.21 1012.67 92.1386 1037.92 103.277C1045.82 106.734 1052.93 109.752 1059.19 112.44C1104.01 131.535 1119.09 137.955 1192.64 204.841C1253.82 260.424 1300.77 240.177 1350.49 218.723C1399.72 197.433 1450.65 175.486 1522.79 216.528C1523 216.638 1523.07 217.022 1523 217.351C1523 217.68 1522.72 217.9 1522.5 217.79C1450.65 176.857 1399.79 198.805 1350.64 220.04C1300.77 241.549 1253.68 261.905 1192.22 206.048C1118.73 139.272 1103.65 132.852 1058.91 113.757C1052.65 111.069 1045.46 108.051 1037.64 104.594C1012.67 93.62 999.933 105.582 985.208 119.409C967.21 136.309 946.865 155.403 898.777 137.626C843.504 117.159 833.26 135.815 799.257 197.543C796.981 201.713 794.562 206.158 792.001 210.712C770.66 249.121 755.081 267.392 743.344 267.392V267.063Z" fill="#15FF98"/>
</g>
<g opacity="0.39">
<path d="M745.549 266.46C744.34 266.46 743.202 266.24 742.063 265.856C728.619 261.247 722.287 230.136 714.96 194.141C704.646 143.551 692.979 86.2126 658.051 83.6886C597.941 79.4088 565.36 85.5542 519.122 135.047C446.207 213.126 442.863 214.224 387.306 232.605C379.196 235.294 369.948 238.366 359.278 242.043C336.656 249.889 327.835 222.289 319.299 195.568C313.324 176.967 307.206 157.708 296.393 150.904C278.182 139.436 266.089 160.506 252.075 184.978C235.002 214.663 213.804 251.59 174.038 241.658C144.588 234.306 120.259 225.472 98.847 217.626C62.1406 204.237 33.188 193.647 0.0384215 199.025C-0.174988 199.025 -0.388397 198.805 -0.388397 198.421C-0.388397 198.037 -0.246125 197.763 -0.032715 197.708C33.188 192.276 62.2117 202.866 98.9893 216.309C120.401 224.1 144.659 232.989 174.109 240.342C213.519 250.163 233.651 215.047 251.506 184.045C265.733 159.244 278.04 137.845 296.678 149.642C307.775 156.61 313.964 176.089 320.01 194.909C328.831 222.399 337.154 248.353 359.136 240.726C369.877 236.995 379.054 233.977 387.234 231.233C442.65 212.852 445.993 211.754 518.766 133.84C565.218 84.1825 597.87 77.9273 658.193 82.262C693.691 84.786 705.428 142.619 715.814 193.593C723.07 229.203 729.33 259.985 742.348 264.429C754.37 268.545 771.016 249.724 794.633 205.225C796.625 201.439 798.546 197.763 800.466 194.251C834.612 129.669 844.927 110.191 900.271 129.779C947.434 146.46 967.637 131.425 985.493 118.202C1000.5 107.063 1013.52 97.4609 1038.92 108.874C1055.56 116.336 1068.44 120.781 1079.82 124.676C1111.62 135.54 1132.67 142.728 1194.28 200.835C1257.09 260.095 1304.33 239.628 1354.26 218.01C1402.49 197.104 1452.36 175.486 1522.86 216.144C1523.07 216.254 1523.14 216.638 1523.07 216.967C1523.07 217.296 1522.79 217.516 1522.57 217.406C1452.29 176.857 1402.57 198.421 1354.41 219.272C1304.26 241 1256.88 261.521 1193.85 201.988C1132.32 143.936 1111.4 136.802 1079.61 125.938C1068.22 122.043 1055.28 117.653 1038.63 110.136C1013.52 98.8327 1000.64 108.38 985.777 119.409C967.779 132.742 947.435 147.831 900.058 131.096C845.14 111.672 834.897 131.041 801.036 195.184C799.186 198.695 797.265 202.372 795.202 206.158C773.506 246.981 757.571 266.35 745.62 266.35L745.549 266.46Z" fill="#15FF98"/>
</g>
<g opacity="0.42">
<path d="M747.754 265.966C746.687 265.966 745.691 265.801 744.767 265.527C731.393 261.521 724.635 231.398 716.81 196.446C705.641 146.569 692.979 90.0535 657.126 88.8464C653.072 88.7367 649.159 88.5721 645.318 88.4075C593.53 86.4321 562.23 85.225 517.485 131.425C503.827 145.527 492.872 157.159 483.198 167.475C435.607 218.065 430.628 223.332 360.985 245.28C337.297 252.742 328.76 224.045 320.508 196.281C314.746 176.912 308.771 156.83 297.674 150.191C279.818 139.546 268.01 160.232 254.351 184.21C237.634 213.51 216.863 249.944 177.311 241.823C145.299 235.239 118.979 225.637 95.717 217.132C60.2199 204.182 32.121 193.922 -0.174987 199.134C-0.388397 199.134 -0.601807 198.915 -0.601807 198.531C-0.601807 198.147 -0.459533 197.872 -0.246124 197.818C32.1921 192.605 60.291 202.866 95.8593 215.87C119.121 224.32 145.441 233.977 177.382 240.506C216.507 248.572 237.208 212.358 253.782 183.277C267.654 158.97 279.605 137.955 297.887 148.929C309.34 155.787 315.315 176.034 321.149 195.678C329.258 223.003 337.652 251.261 360.772 243.963C430.201 222.07 435.18 216.803 482.7 166.377C492.374 156.117 503.329 144.484 516.987 130.328C561.946 83.963 593.246 85.1153 645.247 87.0906C649.088 87.2552 653 87.3649 657.055 87.5295C693.406 88.7367 706.211 145.691 717.45 195.952C725.204 230.465 731.891 260.314 744.767 264.155C757.002 267.831 773.79 247.804 797.55 201.165C799.044 198.202 800.538 195.348 801.96 192.55C836.035 125.444 846.278 105.198 901.267 123.744C947.577 139.327 967.851 128.298 985.706 118.586C1000.93 110.3 1014.02 103.113 1039.63 114.91C1059.55 124.073 1074.48 127.42 1087.57 130.328C1115.03 136.418 1138.79 141.741 1195.63 197.269C1260.08 260.259 1307.46 239.628 1357.68 217.79C1404.91 197.214 1453.78 175.979 1522.64 216.254C1522.86 216.364 1522.93 216.748 1522.86 217.077C1522.86 217.406 1522.57 217.626 1522.36 217.461C1453.64 177.351 1404.91 198.531 1357.82 219.052C1307.46 241 1259.87 261.686 1195.2 198.421C1138.58 143.003 1116.03 138.01 1087.5 131.645C1074.34 128.737 1059.4 125.39 1039.41 116.172C1014.02 104.484 1001 111.617 985.919 119.793C967.993 129.56 947.648 140.698 901.125 125.006C846.563 106.624 836.39 126.761 802.601 193.373C801.178 196.172 799.755 199.025 798.19 201.988C776.138 245.335 759.99 265.856 747.754 265.856V265.966Z" fill="#15FF98"/>
</g>
<g opacity="0.45">
<path d="M750.031 265.582C749.177 265.582 748.323 265.472 747.47 265.252C734.096 261.851 726.982 232.605 718.659 198.75C706.637 149.642 693.05 94.0042 656.415 94.0042C655.917 94.0042 655.419 94.0042 654.921 94.0042C643.468 94.0042 633.153 93.4555 623.194 92.9616C583.358 90.8766 554.619 89.3951 515.992 127.804C492.374 151.288 476.653 169.23 463.991 183.606C433.26 218.613 421.736 231.672 362.906 248.407C338.079 255.486 329.898 225.637 321.931 196.83C316.169 175.76 310.692 155.897 299.167 149.423C281.668 139.546 270.713 158.86 256.912 183.332C240.551 212.248 220.135 248.243 180.867 241.933C146.935 236.446 118.836 226.13 94.0098 217.022C60.5756 204.731 31.6942 194.141 -0.103851 199.189C-0.31726 199.189 -0.53067 198.97 -0.53067 198.586C-0.53067 198.202 -0.388397 197.927 -0.174987 197.872C31.6942 192.824 60.6467 203.469 94.152 215.76C118.979 224.868 147.078 235.184 180.939 240.616C219.85 246.871 240.053 211.151 256.343 182.399C269.859 158.586 281.454 137.955 299.452 148.161C311.261 154.8 317.023 175.925 322.643 196.281C330.468 224.649 338.506 254.004 362.763 247.145C421.38 230.465 432.904 217.406 463.493 182.564C476.155 168.133 491.947 150.191 515.565 126.707C554.405 88.0782 583.216 89.6146 623.194 91.6448C633.58 92.1935 644.251 92.7422 656.273 92.6873H656.415C693.548 92.6873 707.278 148.764 719.442 198.202C727.623 231.727 734.736 260.643 747.612 263.936C760.132 267.118 776.991 245.883 800.822 197.104L803.81 190.959C837.742 121.22 847.986 100.204 902.618 117.653C947.861 132.139 968.064 125.006 985.919 118.75C1001.36 113.318 1014.73 108.654 1040.77 120.89C1062.25 130.986 1077.4 132.413 1092.13 133.785C1119.44 136.364 1142.99 138.558 1197.41 193.593C1263.42 260.369 1311.01 239.573 1361.45 217.461C1407.69 197.214 1455.56 176.254 1522.93 216.144C1523.14 216.254 1523.21 216.638 1523.14 216.967C1523.07 217.296 1522.86 217.461 1522.64 217.351C1455.49 177.571 1407.76 198.476 1361.59 218.668C1311.01 240.781 1263.28 261.741 1196.98 194.635C1142.78 139.765 1119.3 137.571 1092.06 134.992C1077.33 133.62 1062.11 132.139 1040.55 122.043C1014.73 109.916 1001.5 114.525 986.133 119.903C968.206 126.158 947.932 133.291 902.547 118.805C848.412 101.521 838.24 122.427 804.521 191.672L801.534 197.818C779.126 243.744 762.693 265.417 750.244 265.417L750.031 265.582Z" fill="#15FF98"/>
</g>
<g opacity="0.48">
<path d="M752.307 265.307C751.596 265.307 750.884 265.252 750.173 265.088C736.799 262.289 729.259 233.867 720.509 200.945C707.633 152.55 692.979 97.6804 655.348 99.1619C638.133 99.8203 622.91 98.284 609.465 96.9671C575.817 93.5652 549.212 90.8766 514.355 124.182C485.687 151.617 468.899 172.907 455.454 190.026C431.055 221.027 417.61 238.092 364.684 251.535C338.79 258.174 330.894 227.173 323.212 197.269C317.663 175.431 312.399 154.855 300.59 148.545C283.446 139.436 272.847 158.366 259.331 182.344C243.254 210.931 223.336 246.487 184.282 241.933C148.927 237.818 119.192 226.789 92.9427 217.077C59.8642 204.841 31.3385 194.251 -0.174987 199.134C-0.388397 199.134 -0.601807 198.915 -0.601807 198.531C-0.601807 198.147 -0.459533 197.872 -0.246124 197.818C31.3385 192.934 59.9354 203.524 93.085 215.815C119.334 225.527 148.998 236.556 184.353 240.671C223.051 245.225 242.827 209.834 258.762 181.466C271.851 158.092 283.233 137.955 300.804 147.337C312.897 153.812 318.232 174.663 323.852 196.775C331.392 226.24 339.146 256.693 364.471 250.273C417.183 236.83 430.557 219.875 454.885 188.984C468.401 171.809 485.189 150.465 513.857 123.03C548.857 89.5048 575.533 92.1934 609.394 95.6502C622.839 97.022 637.991 98.5583 655.206 97.845C655.704 97.845 656.202 97.845 656.628 97.845C693.691 97.845 708.843 154.69 721.078 200.451C729.757 232.989 737.226 261.137 750.173 263.826C762.906 266.514 779.908 244.018 803.739 193.044L805.375 189.587C839.236 117.159 849.408 95.2661 903.614 111.617C947.221 124.786 968.278 121.439 985.137 118.75C1001.71 116.117 1014.73 114.032 1041.48 126.926C1063.67 137.626 1079.46 137.022 1094.76 136.473C1120.94 135.486 1145.69 134.663 1198.69 190.026C1266.27 260.698 1314.07 239.628 1364.58 217.351C1409.89 197.379 1456.7 176.693 1522.64 216.254C1522.86 216.364 1522.93 216.748 1522.86 217.077C1522.79 217.406 1522.57 217.626 1522.36 217.461C1456.7 178.064 1409.96 198.641 1364.79 218.613C1314.07 241 1266.2 262.125 1198.26 191.123C1145.48 135.925 1120.79 136.802 1094.76 137.735C1079.46 138.284 1063.6 138.833 1041.26 128.133C1014.66 115.348 1001.64 117.379 985.208 120.012C968.278 122.701 947.221 126.048 903.472 112.824C876.227 104.594 860.506 106.075 847.345 118.147C833.972 130.438 822.803 154.251 806.015 190.3L804.379 193.757C781.686 242.372 764.969 265.252 752.236 265.252L752.307 265.307Z" fill="#15FF98"/>
</g>
<g opacity="0.51">
<path d="M754.655 265.088C754.085 265.088 753.516 265.088 752.947 264.923C739.574 262.728 731.606 235.074 722.359 203.085C708.558 155.403 692.979 101.412 654.494 104.21C633.509 105.746 615.725 102.728 600.075 100.095C569.344 94.882 545.158 90.7668 512.862 120.451C481.561 149.258 464.702 173.455 451.186 192.934C429.988 223.387 416.045 243.469 366.605 254.663C339.573 260.753 331.961 228.709 324.634 197.653C319.299 175.102 314.248 153.812 302.155 147.776C285.367 139.381 275.052 157.927 261.963 181.466C246.242 209.669 226.679 244.786 187.91 242.043C151.417 239.464 120.188 227.722 92.587 217.406C61.0736 205.554 31.2674 194.416 -0.103851 199.189C-0.31726 199.189 -0.53067 198.97 -0.53067 198.586C-0.53067 198.202 -0.388397 197.927 -0.174987 197.872C31.2674 193.099 61.1447 204.292 92.7293 216.144C120.259 226.46 151.417 238.202 187.91 240.781C226.324 243.469 245.744 208.627 261.323 180.588C274.056 157.708 285.082 137.9 302.297 146.569C314.746 152.824 319.868 174.388 325.275 197.269C332.459 227.831 339.929 259.436 366.391 253.455C415.547 242.317 429.49 222.344 450.546 192.056C464.133 172.578 480.992 148.27 512.364 119.409C544.873 89.5048 569.202 93.6749 600.075 98.8875C615.725 101.521 633.438 104.539 654.352 103.003C693.335 100.15 709.767 156.94 722.999 202.591C732.175 234.251 740.072 261.576 752.947 263.661C765.965 265.801 783.109 242.043 806.869 188.874L807.153 188.215C840.872 112.934 851.044 90.1632 904.753 105.417C945.3 116.885 966.001 117.488 982.647 117.927C1000.86 118.421 1013.95 118.805 1042.4 132.797C1064.95 143.881 1081.17 141.247 1096.82 138.613C1123.21 134.224 1148.11 130.108 1200.18 186.35C1269.33 260.918 1317.2 239.683 1367.92 217.132C1412.31 197.433 1458.19 177.022 1522.64 216.199C1522.86 216.309 1522.93 216.693 1522.86 217.022C1522.79 217.351 1522.57 217.516 1522.36 217.406C1458.12 178.339 1412.38 198.695 1368.14 218.339C1317.27 240.945 1269.26 262.289 1199.83 187.392C1147.9 131.425 1123.14 135.54 1096.96 139.875C1081.24 142.509 1064.95 145.198 1042.26 134.004C1013.88 120.067 1000.79 119.683 982.718 119.189C966.072 118.695 945.3 118.147 904.753 106.624C851.471 91.535 842.224 112.166 807.865 188.929L807.58 189.587C784.603 240.945 767.673 265.033 754.583 265.033L754.655 265.088Z" fill="#15FF98"/>
</g>
<g opacity="0.54">
<path d="M757.002 265.033C756.575 265.033 756.148 265.033 755.793 264.978C742.419 263.387 734.025 236.501 724.279 205.335C710.337 160.726 692.979 105.252 653.641 109.423C629.81 111.947 610.319 107.063 593.103 102.783C565.574 95.8697 541.814 89.9438 511.297 116.885C478.574 145.801 461.999 172.797 448.625 194.471C429.347 225.856 415.476 248.517 368.383 257.845C340.213 263.442 332.886 230.191 325.915 198.037C320.864 174.772 316.027 152.824 303.578 147.008C287.217 139.326 277.186 157.488 264.453 180.534C249.087 208.407 229.881 243.085 191.396 242.152C153.978 241.219 122.749 229.368 92.587 217.845C61.0736 205.829 31.2674 194.471 -0.103851 199.189C-0.31726 199.189 -0.53067 198.97 -0.53067 198.586C-0.53067 198.202 -0.388397 197.927 -0.174987 197.872C31.2674 193.154 61.1447 204.512 92.7293 216.583C122.891 228.051 154.049 239.957 191.396 240.835C191.894 240.835 192.392 240.835 192.89 240.835C230.023 240.835 248.732 206.926 263.813 179.601C276.19 157.159 286.861 137.79 303.72 145.691C316.525 151.727 321.362 173.949 326.555 197.543C333.455 229.203 340.64 261.96 368.241 256.528C415.049 247.255 428.92 224.704 448.056 193.538C461.43 171.809 478.005 144.704 510.87 115.733C541.601 88.6269 565.503 94.5528 593.175 101.521C610.319 105.801 629.81 110.685 653.57 108.161C693.477 103.936 710.906 159.848 724.919 204.731C734.523 235.513 742.846 262.125 755.793 263.661C769.024 265.252 786.31 240.177 810.07 184.759C842.864 108.27 852.823 85.225 906.104 99.3265C937.262 107.612 956.398 111.288 971.692 114.306C996.732 119.189 1009.25 121.658 1043.47 138.833C1066.16 150.246 1082.67 145.417 1098.67 140.698C1124.07 133.236 1150.32 125.499 1201.89 182.783C1272.6 261.357 1320.55 239.848 1371.34 217.077C1414.8 197.598 1459.69 177.406 1522.79 216.309C1523 216.418 1523.07 216.802 1523 217.132C1522.93 217.461 1522.72 217.626 1522.5 217.516C1459.69 178.778 1414.87 198.86 1371.55 218.339C1320.62 241.165 1272.53 262.783 1201.46 183.881C1150.17 126.926 1124.07 134.608 1098.81 142.015C1082.74 146.734 1066.16 151.617 1043.26 140.095C1009.11 122.92 996.59 120.451 971.621 115.623C956.255 112.66 937.191 108.929 906.033 100.643C853.25 86.6516 843.362 109.587 810.781 185.527C787.52 239.683 770.447 265.033 757.002 265.033Z" fill="#15FF98"/>
</g>
<g opacity="0.56">
<path d="M759.35 265.033C759.35 265.033 758.852 265.033 758.567 265.033C745.122 263.99 736.301 237.818 726.058 207.475C711.261 163.634 692.908 109.038 652.645 114.58C626.538 118.147 605.837 111.178 587.484 104.978C561.448 96.1441 538.897 88.572 509.66 113.263C476.084 141.576 460.647 170.054 447.06 195.184C429.49 227.612 415.618 253.236 370.233 260.973C340.925 266.021 333.953 231.562 327.195 198.257C322.358 174.333 317.805 151.727 305.072 146.13C289.066 139.107 279.32 156.94 267.014 179.491C251.933 207.036 233.224 241.329 194.952 242.152C156.823 242.975 124.385 230.41 93.0138 218.284C61.3581 206.048 31.4096 194.471 0.0384215 199.134C-0.246125 199.189 -0.388397 198.915 -0.388397 198.531C-0.388397 198.147 -0.246125 197.872 -0.032715 197.818C31.4808 193.154 61.5004 204.731 93.2273 217.022C124.598 229.148 157.037 241.713 195.024 240.835C232.939 240.012 251.577 205.938 266.516 178.558C279.036 155.678 288.924 137.626 305.356 144.813C318.517 150.575 323.141 173.51 328.049 197.763C334.665 230.575 341.565 264.539 370.233 259.546C415.333 251.809 429.134 226.35 446.633 194.141C460.292 168.901 475.799 140.369 509.447 111.892C538.969 86.9808 561.59 94.6626 587.768 103.497C606.05 109.697 626.68 116.665 652.716 113.099C693.406 107.502 711.973 162.481 726.84 206.652C736.942 236.61 745.691 262.509 758.709 263.497C772.225 264.484 789.583 238.147 813.342 180.424C846.065 100.863 856.736 80.5062 907.456 93.0165C980.015 110.849 988.836 115.458 1025.97 134.937C1031.45 137.79 1037.56 141.027 1044.61 144.649C1067.3 156.336 1083.31 149.587 1100.31 142.454C1125.99 131.645 1152.52 120.506 1203.67 178.997C1275.94 261.576 1323.96 239.848 1374.75 216.802C1417.29 197.543 1461.32 177.571 1523 216.144C1523.21 216.254 1523.28 216.638 1523.21 216.967C1523.14 217.296 1522.93 217.461 1522.72 217.351C1461.25 178.942 1417.36 198.805 1374.96 218.064C1323.96 241.165 1275.8 263.003 1203.24 180.095C1152.38 121.933 1125.99 133.016 1100.52 143.771C1084.23 150.63 1067.37 157.763 1044.39 145.966C1037.35 142.344 1031.23 139.162 1025.76 136.254C988.694 116.83 979.944 112.221 907.385 94.3882C881.278 87.9685 866.197 90.6022 853.534 103.826C840.73 117.269 830.13 142.015 814.054 181.247C790.579 238.257 773.221 264.923 759.563 264.923L759.35 265.033Z" fill="#15FF98"/>
</g>
<g opacity="0.59">
<path d="M761.697 265.088C761.697 265.088 761.484 265.088 761.341 265.088C747.826 264.649 738.578 239.134 727.836 209.56C712.186 166.432 692.695 112.715 651.72 119.683C623.763 124.402 602.067 115.019 582.931 106.789C557.962 96.0343 536.408 86.7065 508.095 109.587C474.163 136.967 459.225 168.023 446.064 195.403C429.347 230.246 416.116 257.735 372.011 264.1C341.494 268.545 334.593 231.288 328.405 198.476C323.781 173.894 319.513 150.685 306.423 145.362C290.845 138.997 281.383 156.446 269.432 178.503C254.707 205.719 236.354 239.628 198.367 242.262C159.74 244.951 126.021 231.727 93.4407 218.942C61.5715 206.432 31.4808 194.58 -0.174987 199.189C-0.388397 199.189 -0.601807 198.97 -0.601807 198.586C-0.601807 198.202 -0.459533 197.927 -0.246124 197.872C31.4808 193.263 61.6426 205.115 93.5829 217.68C126.092 230.465 159.74 243.689 198.296 241C235.927 238.366 254.209 204.731 268.792 177.68C280.885 155.294 290.489 137.571 306.566 144.155C320.082 149.642 324.421 173.181 329.116 198.147C335.447 232.111 341.992 267.173 371.869 262.838C415.689 256.528 428.778 229.203 445.353 194.635C458.584 167.145 473.523 135.925 507.669 108.435C536.265 85.3896 557.962 94.7175 583.073 105.582C602.138 113.812 623.763 123.14 651.649 118.476C693.193 111.508 712.755 165.554 728.547 209.011C739.147 238.257 748.323 263.497 761.413 263.881C761.555 263.881 761.626 263.881 761.768 263.881C775.498 263.881 792.855 236.117 816.33 176.583C831.98 136.912 842.366 111.837 855.17 98.0096C867.762 84.402 882.7 81.3293 908.523 87.1454C965.503 100.04 983.643 112.056 1006.48 127.31C1016.79 134.169 1028.53 142.015 1045.39 150.849C1068.01 162.756 1084.23 153.922 1101.37 144.539C1127.27 130.383 1154.09 115.787 1205.02 175.595C1278.79 262.289 1326.81 240.287 1377.67 216.967C1419.35 197.872 1462.39 178.119 1522.79 216.364C1523 216.473 1523.07 216.857 1523 217.187C1522.93 217.516 1522.72 217.68 1522.5 217.571C1462.39 179.491 1419.43 199.189 1377.88 218.174C1326.88 241.549 1278.65 263.661 1204.59 176.583C1154.02 117.159 1127.41 131.7 1101.66 145.746C1084.37 155.184 1068.01 164.073 1045.18 152.056C1028.32 143.167 1016.58 135.376 1006.26 128.517C983.43 113.318 965.361 101.302 908.452 88.4623C858.727 77.214 848.413 97.5707 817.041 177.296C793.424 237.214 775.853 265.198 761.839 265.198L761.697 265.088Z" fill="#15FF98"/>
</g>
<g opacity="0.62">
<path d="M369.735 267.502C341.636 267.502 335.376 231.014 329.756 198.586C325.417 173.401 321.291 149.587 307.917 144.539C292.694 138.833 283.517 155.897 271.993 177.516C257.553 204.402 239.626 237.927 201.924 242.372C162.87 246.981 128.013 233.044 94.2943 219.601C62.1406 206.761 31.7653 194.635 -0.103851 199.189C-0.31726 199.244 -0.53067 198.97 -0.53067 198.586C-0.53067 198.202 -0.388397 197.927 -0.174987 197.872C31.7653 193.263 62.2117 205.444 94.4366 218.284C128.084 231.727 162.87 245.609 201.853 241C239.271 236.61 257.055 203.305 271.424 176.583C283.162 154.69 292.41 137.351 308.131 143.222C321.931 148.38 326.128 172.578 330.539 198.147C336.585 233.209 342.845 269.532 373.861 265.856C416.614 260.808 429.703 230.081 444.855 194.525C457.589 164.731 471.958 130.986 506.246 104.649C534.131 83.1948 555.117 94.2785 579.303 107.063C599.008 117.488 621.345 129.285 650.795 123.469C693.121 115.129 713.822 168.243 730.397 210.931C741.494 239.354 751.027 263.936 764.116 263.936H764.258C778.343 263.771 795.914 234.635 819.389 172.303C849.266 93.0714 860.15 70.6846 909.661 80.8903C962.515 91.7545 982.078 108.325 1002.85 125.829C1014.73 135.87 1027.04 146.295 1046.31 156.665C1068.79 168.737 1085.23 157.818 1102.51 146.24C1128.69 128.737 1155.79 110.63 1206.58 171.809C1281.92 262.619 1329.94 240.342 1380.8 216.803C1421.63 197.872 1463.81 178.339 1522.86 216.254C1523.07 216.364 1523.14 216.748 1523.07 217.077C1523 217.406 1522.79 217.571 1522.57 217.461C1463.74 179.656 1421.7 199.189 1381.01 218.065C1330.01 241.713 1281.78 264.1 1206.16 172.907C1155.79 112.111 1128.83 130.108 1102.87 147.502C1085.37 159.189 1068.86 170.218 1046.1 157.982C1026.82 147.612 1014.45 137.187 1002.57 127.091C981.865 109.587 962.373 93.1263 909.661 82.2621C860.577 72.166 849.835 94.3883 820.171 173.071C796.483 235.842 778.77 265.143 764.329 265.307C764.329 265.307 764.258 265.307 764.187 265.307C750.671 265.307 740.996 240.451 729.828 211.7C713.324 169.34 692.837 116.556 650.938 124.841C621.345 130.712 598.937 118.86 579.161 108.38C555.046 95.6503 534.274 84.6763 506.602 105.911C472.527 132.084 458.158 165.719 445.495 195.348C430.201 231.178 416.97 262.125 373.932 267.228C372.509 267.392 371.086 267.502 369.735 267.502Z" fill="#15FF98"/>
</g>
<g opacity="0.65">
<path d="M372.225 270.52C342.418 270.52 336.372 232.386 331.037 198.641C326.911 172.852 323.069 148.435 309.411 143.771C294.544 138.668 285.723 155.348 274.554 176.473C260.469 203.085 242.898 236.172 205.481 242.427C166.071 249.011 130.076 234.416 95.2902 220.259C62.7808 207.091 32.0499 194.58 -0.0327142 199.189C-0.246124 199.244 -0.459534 198.97 -0.459534 198.586C-0.459534 198.202 -0.31726 197.927 -0.103851 197.872C32.121 193.318 62.852 205.774 95.4325 218.997C130.147 233.099 166.071 247.639 205.338 241.11C242.472 234.91 259.9 202.043 273.914 175.595C285.296 154.141 294.259 137.241 309.553 142.454C323.71 147.337 327.622 172.084 331.819 198.311C337.581 234.58 343.485 272.056 375.71 269.038C417.539 265.143 430.059 232.386 444.499 194.361C456.664 162.317 470.464 126.048 504.752 101.027C532.14 81.0549 552.485 93.7847 576.031 108.545C596.234 121.22 619.14 135.595 650.013 128.627C693.121 118.915 714.889 171.096 732.389 213.017C743.842 240.451 753.73 264.21 766.748 264.21C766.961 264.21 767.175 264.21 767.317 264.21C781.686 263.387 799.328 232.934 822.661 168.243C836.248 130.657 846.847 102.893 859.652 88.0782C871.816 73.9767 886.186 70.2456 911.013 74.8546C961.875 84.2374 981.367 104.375 1002 125.664C1014.37 138.394 1027.11 151.617 1047.31 162.701C1069.65 174.992 1086.15 161.933 1103.65 148.106C1130.18 127.2 1157.57 105.582 1208.22 168.188C1285.05 263.222 1333.07 240.671 1383.86 216.803C1423.84 198.037 1465.17 178.613 1522.93 216.309C1523.14 216.418 1523.21 216.803 1523.14 217.187C1523.07 217.516 1522.86 217.68 1522.64 217.571C1465.09 180.04 1423.91 199.409 1384.07 218.119C1333.07 242.097 1284.91 264.704 1207.79 169.34C1157.5 107.173 1130.33 128.627 1104.01 149.368C1086.36 163.305 1069.72 176.418 1047.1 164.018C1026.82 152.879 1014.02 139.656 1001.57 126.871C981.011 105.637 961.591 85.6091 910.87 76.2264C886.257 71.6722 872.03 75.3485 860.079 89.2305C847.417 103.936 836.888 131.535 823.301 169.011C799.755 234.086 781.971 264.813 767.317 265.637C767.103 265.637 766.89 265.637 766.677 265.637C753.303 265.637 743.273 241.604 731.749 213.894C714.391 172.248 692.766 120.396 650.155 130.054C619.139 137.077 596.091 122.646 575.817 109.916C552.413 95.2662 532.211 82.5913 505.108 102.344C471.033 127.2 457.304 163.305 445.211 195.184C430.628 233.483 418.108 266.514 375.853 270.465C374.643 270.575 373.505 270.63 372.367 270.63L372.225 270.52Z" fill="#15FF98"/>
</g>
<g opacity="0.68">
<path d="M374.857 273.593C343.201 273.593 337.439 233.812 332.317 198.641C328.476 172.248 324.848 147.337 310.834 142.948C296.393 138.449 287.857 154.745 277.044 175.431C263.244 201.713 246.1 234.471 208.895 242.482C169.272 251.041 132.139 235.787 96.2861 220.973C63.4211 207.42 32.3344 194.635 -0.103851 199.134C-0.31726 199.189 -0.53067 198.915 -0.53067 198.531C-0.53067 198.147 -0.388397 197.872 -0.174987 197.818C32.3344 193.263 63.4922 206.103 96.4284 219.656C132.21 234.416 169.272 249.669 208.753 241.11C245.673 233.099 262.674 200.616 276.404 174.498C287.359 153.538 296.109 136.967 310.976 141.631C325.488 146.13 329.116 171.48 333.028 198.311C338.221 233.977 344.126 274.416 377.489 272.166C418.606 269.423 430.414 234.471 444.144 194.032C455.739 159.793 468.899 120.945 503.045 97.3512C530.005 78.6955 550.848 93.8395 572.83 109.861C593.459 124.896 616.792 141.851 648.874 133.73C692.766 122.591 715.601 173.84 733.954 215.047C746.118 242.262 756.504 265.746 770.02 264.429C784.745 263.003 802.387 231.069 825.578 164.018C852.823 85.2799 863.778 60.7531 912.009 68.5995C961.662 76.7202 982.078 101.576 1001.78 125.609C1014.37 141.027 1027.46 156.94 1048.16 168.517C1070.29 180.918 1086.93 165.829 1104.5 149.807C1131.32 125.444 1158.99 100.314 1209.64 164.402C1287.96 263.661 1335.91 240.835 1386.63 216.638C1425.76 197.982 1466.23 178.723 1522.72 216.144C1522.93 216.254 1523 216.638 1522.93 217.022C1522.86 217.351 1522.64 217.516 1522.43 217.406C1466.16 180.15 1425.83 199.409 1386.77 217.955C1335.84 242.207 1287.68 265.143 1209.07 165.499C1158.85 101.905 1131.39 126.871 1104.79 151.014C1087 167.145 1070.22 182.399 1047.81 169.779C1027.04 158.092 1013.95 142.125 1001.21 126.652C981.58 102.728 961.306 77.9822 911.866 69.8615C866.41 62.4541 855.099 81.1646 826.218 164.621C802.529 232.989 785.243 264.155 770.02 265.691C756.148 267.008 745.62 243.305 733.314 215.76C715.103 174.882 692.41 123.963 648.946 134.937C616.65 143.113 593.175 126.048 572.474 110.959C549.639 94.3334 529.934 80.0124 503.258 98.4486C469.397 121.878 456.237 160.506 444.713 194.58C430.841 235.348 418.961 270.575 377.418 273.373C376.493 273.428 375.639 273.483 374.786 273.483L374.857 273.593Z" fill="#15FF98"/>
</g>
<g opacity="0.71">
<path d="M377.631 276.665C344.055 276.665 338.506 235.184 333.598 198.531C329.97 171.59 326.626 146.13 312.328 142.125C298.243 138.174 289.991 154.141 279.605 174.333C266.16 200.342 249.443 232.66 212.452 242.536C172.616 253.181 134.486 237.214 97.4954 221.741C64.1324 207.804 32.6901 194.635 -0.103851 199.134C-0.31726 199.134 -0.53067 198.915 -0.53067 198.531C-0.53067 198.147 -0.388397 197.872 -0.174987 197.818C32.6901 193.263 65.6974 207.091 97.6377 220.424C134.486 235.842 172.616 251.754 212.239 241.22C248.945 231.453 265.52 199.299 278.894 173.455C289.493 152.934 297.887 136.748 312.328 140.808C327.124 144.978 330.61 170.822 334.238 198.202C339.146 235.019 344.695 276.775 379.196 275.239C419.673 273.538 430.912 236.446 443.93 193.483C454.956 157.049 467.476 115.733 501.409 93.6201C528.085 76.2264 548.43 93.1262 569.984 111.014C590.898 128.407 614.658 148.106 647.879 138.833C692.552 126.322 716.454 176.638 735.661 217.077C748.323 243.689 759.278 266.679 772.865 264.759C787.875 262.619 805.588 229.313 828.565 159.903C856.166 76.6105 868.046 56.1441 913.076 62.509C961.875 69.4225 982.22 98.1194 1001.93 125.829C1014.73 143.881 1027.96 162.482 1048.88 174.498C1070.71 187.063 1087.5 169.889 1105.22 151.672C1118.52 138.065 1132.25 123.963 1149.11 121.439C1168.1 118.586 1188.37 131.48 1211 160.781C1290.74 264.32 1338.61 241.165 1389.33 216.693C1427.68 198.202 1467.3 179.052 1522.57 216.144C1522.79 216.254 1522.86 216.638 1522.79 217.022C1522.72 217.351 1522.5 217.516 1522.29 217.406C1467.23 180.424 1427.75 199.519 1389.55 218.01C1338.69 242.591 1290.6 265.801 1210.5 161.878C1160.35 96.8025 1132.53 125.28 1105.64 152.879C1087.72 171.206 1070.86 188.545 1048.66 175.815C1027.61 163.744 1014.3 144.978 1001.43 126.871C981.793 99.2717 961.52 70.6845 913.004 63.8258C889.458 60.4788 875.729 64.8135 864.205 79.1893C852.681 93.5103 843.433 117.818 829.277 160.561C805.802 231.343 788.444 263.936 772.937 266.13C758.923 268.106 747.897 244.841 735.092 217.955C715.956 177.79 692.197 127.859 648.021 140.204C614.516 149.587 590.685 129.779 569.628 112.276C548.216 94.498 528.014 77.7079 501.693 94.937C468.046 116.885 455.597 157.927 444.642 194.196C432.05 235.733 420.171 274.91 379.267 276.665C378.698 276.665 378.058 276.665 377.489 276.665H377.631Z" fill="#15FF98"/>
</g>
<g opacity="0.74">
<path d="M380.477 279.738C344.837 279.738 339.573 236.501 334.878 198.366C331.392 169.669 328.333 144.923 313.75 141.302C300.092 137.955 292.125 153.483 282.024 173.236C268.863 198.97 252.573 230.959 215.867 242.591C175.959 255.266 136.692 238.641 98.7048 222.509C66.4088 208.792 32.9746 194.635 -0.103851 199.134C-0.31726 199.134 -0.53067 198.915 -0.53067 198.531C-0.53067 198.147 -0.388397 197.872 -0.174987 197.818C33.1169 193.263 66.5511 207.475 98.9182 221.192C136.834 237.269 175.959 253.894 215.724 241.274C252.146 229.697 268.365 197.872 281.454 172.358C291.698 152.331 299.737 136.528 313.822 139.985C328.974 143.716 332.175 170.108 335.589 198.092C340.213 235.787 345.406 278.421 380.405 278.421C380.619 278.421 380.903 278.421 381.117 278.421C420.953 277.763 432.122 236.556 444.001 192.989C454.956 152.495 466.338 110.63 499.915 89.9987C526.377 73.7572 546.367 92.4678 567.494 112.221C588.693 132.029 612.737 154.525 647.025 144.045C692.41 130.163 717.45 179.546 737.582 219.162C750.813 245.225 762.195 267.722 775.995 265.198C791.29 262.344 809.074 227.612 831.767 155.787C858.372 71.8917 869.896 51.1509 914.356 56.4184C962.515 62.1249 982.86 94.6626 1002.57 126.158C1016.08 147.776 1028.89 168.188 1049.94 180.534C1071.57 193.209 1088.43 174.004 1106.21 153.647C1119.66 138.339 1133.53 122.536 1150.46 118.805C1169.67 114.635 1190.01 127.2 1212.63 157.214C1293.87 265.033 1341.67 241.604 1392.25 216.803C1429.74 198.366 1468.58 179.381 1522.72 216.199C1522.93 216.309 1523 216.693 1522.93 217.077C1522.86 217.406 1522.64 217.571 1522.43 217.461C1468.58 180.753 1429.88 199.738 1392.46 218.065C1366.93 230.63 1342.74 242.427 1314.14 237.982C1281.7 232.879 1249.34 207.584 1212.2 158.257C1189.8 128.462 1169.67 116.007 1150.67 120.122C1133.88 123.798 1120.08 139.491 1106.78 154.745C1088.78 175.266 1071.78 194.635 1049.8 181.796C1028.53 169.34 1015.16 147.886 1002.14 127.145C982.505 95.8148 962.231 63.3869 914.427 57.7353C870.465 52.5227 859.012 73.0988 832.62 156.446C809.43 229.642 792.072 263.606 776.209 266.514C762.053 269.148 750.529 246.377 737.155 220.04C717.166 180.643 692.339 131.59 647.381 145.362C612.808 155.952 588.622 133.346 567.281 113.428C546.296 93.7847 526.449 75.2936 500.341 91.3155C467.05 111.727 455.739 153.373 444.855 193.593C432.904 237.598 421.665 279.134 381.33 279.793C381.046 279.793 380.832 279.793 380.548 279.793L380.477 279.738Z" fill="#15FF98"/>
</g>
<g opacity="0.77">
<path d="M383.464 282.866C383.464 282.866 383.18 282.866 383.037 282.866C345.548 282.536 340.569 237.708 336.158 198.092C332.886 168.901 330.112 143.661 315.173 140.479C301.871 137.626 294.615 152.111 284.513 172.084C271.709 197.488 255.774 229.148 219.352 242.646C179.374 257.461 139.039 240.067 100.056 223.277C67.2624 209.176 33.4014 194.58 -0.174987 199.134C-0.388397 199.189 -0.601807 198.915 -0.601807 198.531C-0.601807 198.147 -0.459533 197.872 -0.246124 197.818C33.4726 193.263 67.4047 207.859 100.199 222.015C139.11 238.75 179.302 256.089 219.139 241.329C255.347 227.941 271.14 196.501 283.873 171.206C293.69 151.672 301.515 136.199 315.173 139.162C330.61 142.454 333.598 169.395 336.799 197.872C341.138 236.94 346.046 281.219 382.895 281.549C383.037 281.549 383.18 281.549 383.322 281.549C422.305 281.549 432.833 238.202 443.93 192.331C454.316 149.587 464.987 105.417 498.279 86.3773C524.599 71.2881 544.233 91.6996 565.005 113.318C587.484 136.693 610.745 160.835 646.029 149.203C692.126 134.004 718.304 182.344 739.289 221.247C753.09 246.761 765.04 268.874 778.912 265.691C794.776 262.07 811.991 226.953 834.754 151.727C860.363 67.0631 872.528 46.2675 915.423 50.3279C962.942 54.8272 983.358 91.2607 1003.13 126.487C1016.79 150.849 1029.67 173.84 1050.8 186.514C1072.14 199.299 1089.07 178.064 1106.99 155.623C1120.58 138.613 1134.59 121.055 1151.67 116.226C1171.09 110.685 1191.5 122.92 1214.13 153.647C1251.76 204.731 1284.41 231.123 1316.92 236.665C1345.51 241.549 1369.56 229.587 1394.95 216.912C1431.66 198.586 1469.65 179.656 1522.64 216.254C1522.86 216.364 1522.93 216.748 1522.86 217.132C1522.79 217.461 1522.57 217.626 1522.36 217.516C1469.65 181.082 1431.8 199.958 1395.17 218.174C1370.84 230.3 1345.66 242.866 1316.85 237.982C1284.19 232.44 1251.47 205.938 1213.7 154.69C1191.22 124.237 1171.02 112.056 1151.88 117.543C1134.95 122.372 1121.01 139.82 1107.56 156.72C1089.49 179.381 1072.35 200.835 1050.65 187.831C1029.31 175.047 1016.37 151.947 1002.71 127.475C983.074 92.4129 962.8 56.1441 915.565 51.6996C873.168 47.6941 861.146 68.3251 835.679 152.385C812.773 227.996 795.345 263.387 779.268 267.063C764.898 270.3 752.876 248.023 738.933 222.235C718.09 183.606 692.126 135.486 646.385 150.63C610.745 162.372 586.346 137.022 564.791 114.58C544.162 93.1262 524.67 72.8793 498.705 87.749C465.769 106.624 455.17 150.52 444.855 192.989C433.615 239.299 423.016 283.03 383.535 283.03L383.464 282.866Z" fill="#15FF98"/>
</g>
<g opacity="0.8">
<path d="M386.523 286.048C385.954 286.048 385.456 286.048 384.887 286.048C346.26 284.786 341.565 238.586 337.51 197.872C334.522 168.133 331.89 142.454 316.738 139.765C303.862 137.461 296.891 151.562 287.217 171.096C275.408 194.964 259.26 227.612 222.98 242.811C182.93 259.875 141.529 241.768 101.55 224.265C68.3295 209.724 33.9705 194.69 0.0384215 199.244C-0.174988 199.244 -0.388397 199.025 -0.388397 198.641C-0.388397 198.257 -0.246125 197.982 -0.032715 197.927C34.0417 193.373 68.4718 208.407 101.764 223.003C141.671 240.451 183.002 258.503 222.838 241.549C258.833 226.46 274.91 193.977 286.647 170.273C296.109 151.178 303.578 136.089 316.88 138.503C332.673 141.357 335.305 167.475 338.364 197.708C342.418 237.927 347.042 283.579 385.029 284.786C385.598 284.786 386.096 284.786 386.594 284.786C424.154 284.786 433.971 239.519 444.357 191.672C454.103 146.734 464.133 100.314 496.998 82.7558C523.176 68.7641 542.525 90.9314 563.013 114.416C585.705 140.369 609.18 167.255 645.389 154.361C692.197 137.735 719.442 185.198 741.352 223.277C755.722 248.298 768.17 269.916 782.255 266.13C798.403 261.741 815.69 225.198 838.098 147.612C850.049 106.24 859.225 79.1893 870.607 63.3868C881.491 48.2428 894.936 42.701 916.846 44.2373C963.867 47.5295 984.283 87.8587 1004.06 126.871C1017.79 153.977 1030.74 179.546 1051.93 192.55C1072.99 205.444 1089.99 182.235 1107.99 157.653C1134.74 121.11 1165.11 79.738 1215.83 150.026C1253.61 202.372 1287.61 230.739 1319.83 236.665C1348.57 241.933 1373.61 229.258 1397.8 217.022C1433.79 198.805 1470.93 179.93 1522.79 216.309C1523 216.473 1523.07 216.857 1523 217.187C1522.93 217.516 1522.72 217.68 1522.5 217.516C1470.93 181.302 1433.87 200.122 1398.01 218.284C1373.76 230.575 1348.64 243.305 1319.76 237.982C1287.4 232.001 1253.25 203.579 1215.41 151.069C1192.93 119.957 1172.65 108.106 1153.3 114.909C1136.23 120.89 1122.15 140.095 1108.56 158.695C1090.35 183.497 1073.2 206.926 1051.72 193.812C1030.38 180.753 1017.29 155.019 1003.49 127.804C983.856 89.011 963.511 48.9012 916.846 45.6091C875.089 42.701 863.351 63.6063 838.88 148.27C816.33 226.295 798.901 263.112 782.469 267.557C767.957 271.508 755.366 249.615 740.854 224.32C719.086 186.46 691.983 139.326 645.602 155.733C609.038 168.682 584.354 140.479 562.586 115.568C542.241 92.3032 523.034 70.3004 497.211 84.0727C464.702 101.412 454.743 147.557 445.068 192.166C434.611 240.451 424.723 286.158 386.594 286.158L386.523 286.048Z" fill="#15FF98"/>
</g>
<g opacity="0.83">
<path d="M389.297 289.23C388.444 289.23 387.59 289.23 386.737 289.176C346.9 286.871 342.632 239.354 338.79 197.433C336.016 167.255 333.669 141.137 318.161 138.888C305.641 137.077 298.954 150.849 289.706 169.834C278.182 193.428 262.461 225.746 226.466 242.811C186.487 262.015 145.939 244.018 102.973 225.033C69.2543 210.108 34.3262 194.635 -0.0327142 199.189C-0.246124 199.189 -0.459534 198.97 -0.459534 198.586C-0.459534 198.202 -0.31726 197.927 -0.103851 197.872C34.4685 193.318 69.3965 208.792 103.186 223.771C146.011 242.756 186.416 260.643 226.253 241.549C262.034 224.649 277.684 192.495 289.137 169.011C298.527 149.642 305.356 135.705 318.303 137.571C334.38 139.93 336.799 166.487 339.644 197.214C343.414 238.641 347.683 285.554 386.879 287.804C425.364 290.108 434.682 241.823 444.57 190.794C453.676 143.716 463.066 95.0466 495.504 79.0247C521.611 66.1303 540.676 90.0535 560.95 115.348C583.785 143.936 607.402 173.51 644.606 159.464C692.126 141.521 720.509 187.996 743.273 225.307C758.283 249.834 771.229 271.069 785.528 266.569C802.031 261.412 819.247 223.442 841.37 143.387C864.703 58.8327 876.938 36.2263 918.197 38.037C964.792 40.1221 985.208 84.347 1004.98 127.145C1018.78 156.995 1031.8 185.198 1053 198.421C1073.77 211.37 1090.85 186.185 1108.91 159.573C1136.02 119.628 1166.68 74.4156 1217.54 146.295C1255.95 200.671 1290.31 230.191 1322.68 236.556C1351.56 242.262 1376.46 229.423 1400.57 217.022C1435.79 198.86 1472.21 180.095 1522.93 216.199C1523.14 216.364 1523.21 216.748 1523.14 217.077C1523.07 217.406 1522.86 217.571 1522.64 217.406C1472.21 181.466 1435.93 200.177 1400.86 218.229C1376.67 230.685 1351.7 243.579 1322.68 237.818C1290.17 231.398 1255.6 201.768 1217.11 147.228C1194.63 115.403 1174.22 103.881 1154.73 112.056C1137.51 119.244 1123.28 140.204 1109.55 160.451C1091.27 187.392 1074.06 212.797 1052.86 199.573C1031.45 186.24 1018.36 157.872 1004.49 127.859C984.781 85.3347 964.436 41.3292 918.269 39.2442C877.436 37.4335 865.414 59.8752 842.224 143.881C820.029 224.32 802.601 262.564 785.812 267.776C771.087 272.385 757.998 250.931 742.846 226.13C720.224 189.038 691.983 142.838 644.891 160.616C628.103 166.981 612.453 164.896 597.087 154.306C583.5 144.978 571.905 130.383 560.594 116.336C540.534 91.2058 521.54 67.5021 495.86 80.2318C463.849 96.0343 454.458 144.374 445.424 191.123C435.678 241.494 426.502 289.121 389.582 289.121L389.297 289.23Z" fill="#15FF98"/>
</g>
<g opacity="0.85">
<path d="M391.929 292.413C390.791 292.413 389.724 292.413 388.515 292.248C370.233 290.712 357.713 279.848 350.172 259.052C343.628 240.89 341.707 217.516 340 196.94C337.51 166.268 335.305 139.82 319.584 138.064C307.49 136.748 301.017 150.136 292.196 168.682C281.028 192.001 265.733 223.99 229.952 242.866C189.973 264.21 148.5 245.554 104.538 225.856C70.2502 210.492 34.8242 194.58 -0.0327142 199.134C-0.246124 199.134 -0.459534 198.915 -0.459534 198.531C-0.459534 198.147 -0.31726 197.872 -0.103851 197.818C34.8953 193.263 70.3924 209.176 104.751 224.539C148.571 244.182 189.973 262.783 229.738 241.549C265.306 222.783 280.53 191.014 291.627 167.804C300.661 148.984 307.206 135.321 319.726 136.693C336.158 138.503 338.364 165.444 340.925 196.665C344.41 239.244 348.323 287.53 388.657 290.877C426.715 294.004 435.465 243.414 444.713 189.861C453.178 140.643 461.928 89.7792 493.868 75.2936C519.904 63.4966 538.755 89.1207 558.745 116.281C581.722 147.502 605.481 179.765 643.61 164.512C691.841 145.198 721.292 190.739 744.98 227.283C760.559 251.37 774.075 272.166 788.658 267.008C805.517 261.027 822.661 221.631 844.358 139.217C866.766 54.059 878.646 31.0686 919.265 31.8368C965.432 32.6598 985.919 80.8354 1005.7 127.42C1019.57 160.012 1032.66 190.849 1053.85 204.347C1074.34 217.406 1091.49 190.3 1109.63 161.549C1137.01 118.202 1168.1 69.0384 1219.03 142.619C1258.09 198.97 1292.87 229.697 1325.38 236.556C1354.41 242.701 1379.16 229.642 1403.13 217.077C1437.57 198.97 1473.2 180.259 1522.86 216.199C1523.07 216.364 1523.14 216.748 1523.07 217.077C1523 217.406 1522.79 217.571 1522.57 217.406C1473.2 181.686 1437.71 200.342 1403.35 218.339C1379.3 230.959 1354.41 244.018 1325.24 237.872C1292.59 230.959 1257.66 200.122 1218.46 143.606C1195.91 111.069 1175.43 99.8752 1155.72 109.423C1138.36 117.818 1124 140.534 1110.12 162.536C1091.77 191.562 1074.48 218.942 1053.57 205.609C1032.16 192.001 1019 161 1005.06 128.243C985.35 81.9328 965.005 34.0864 919.193 33.2085C918.553 33.2085 917.984 33.2085 917.344 33.2085C878.646 33.2085 866.979 56.583 844.998 139.82C823.159 222.674 805.802 262.289 788.729 268.38C773.79 273.702 760.132 252.687 744.411 228.325C720.865 191.947 691.557 146.734 643.753 165.883C605.339 181.247 581.366 148.764 558.247 117.379C538.4 90.4376 519.691 65.0329 494.01 76.6653C462.497 90.9314 453.818 141.466 445.353 190.3C436.319 242.756 427.782 292.413 391.929 292.413Z" fill="#15FF98"/>
</g>
<g opacity="0.88">
<path d="M394.49 295.65C393.139 295.65 391.787 295.595 390.436 295.431C348.323 290.877 344.481 238.476 341.423 196.391C339.146 165.335 337.225 138.449 321.149 137.296C309.411 136.473 303.293 149.477 294.757 167.53C283.873 190.63 269.006 222.235 233.508 242.975C193.601 266.46 151.132 247.145 106.174 226.789C71.3883 210.986 35.3933 194.69 0.0384215 199.244C-0.174988 199.244 -0.388397 199.025 -0.388397 198.641C-0.388397 198.257 -0.246125 197.982 -0.032715 197.927C35.4644 193.318 71.5306 209.724 106.388 225.527C151.275 245.883 193.601 265.088 233.295 241.768C268.65 221.137 283.375 189.697 294.188 166.761C302.795 148.435 309.055 135.156 321.22 136.034C337.937 137.241 339.929 164.621 342.205 196.281C345.406 240.067 349.034 289.724 390.507 294.169C428.28 298.229 436.39 245.225 444.926 189.093C452.751 137.79 460.861 84.7861 492.303 71.8368C518.339 61.1372 536.977 88.4623 556.753 117.434C579.872 151.288 603.774 186.295 642.686 169.834C691.556 149.203 722.216 193.702 746.758 229.532C762.978 253.181 777.063 273.593 791.859 267.722C809.003 260.918 826.147 220.095 847.488 135.266C868.686 50.8766 880.851 26.295 920.474 25.9109C920.687 25.9109 920.829 25.9109 921.043 25.9109C966.428 25.9109 986.844 77.7627 1006.62 127.914C1020.56 163.305 1033.72 196.665 1054.85 210.438C1075.05 223.551 1092.2 194.525 1110.41 163.798C1138.15 116.995 1169.52 63.9356 1220.6 139.107C1260.22 197.488 1295.36 229.423 1328.09 236.775C1357.25 243.305 1381.87 230.136 1405.7 217.351C1439.41 199.299 1474.34 180.643 1522.86 216.309C1523.07 216.473 1523.14 216.857 1523.07 217.187C1523 217.516 1522.79 217.68 1522.57 217.516C1474.27 182.015 1439.56 200.616 1405.91 218.558C1382.01 231.343 1357.25 244.621 1327.94 238.037C1295.08 230.685 1259.79 198.641 1220.03 140.095C1169.52 65.7463 1138.36 118.311 1110.91 164.731C1092.55 195.787 1075.12 225.143 1054.49 211.645C1033.15 197.763 1019.92 164.182 1005.91 128.627C986.275 78.7504 965.93 27.1729 920.972 27.1729C920.758 27.1729 920.616 27.1729 920.403 27.1729C881.206 27.5021 869.184 51.9191 848.199 135.705C826.787 220.973 809.501 262.015 792.072 268.929C776.849 274.964 762.693 254.333 746.26 230.41C721.789 194.8 691.414 150.52 642.899 170.986C603.632 187.557 579.516 152.331 556.255 118.257C536.621 89.5597 518.126 62.3992 492.517 72.9342C461.501 85.7188 453.463 138.339 445.709 189.258C437.386 243.853 429.49 295.54 394.562 295.54L394.49 295.65Z" fill="#15FF98"/>
</g>
<g opacity="0.91">
<path d="M396.909 298.888C395.415 298.888 393.85 298.778 392.214 298.558C348.892 292.852 345.406 238.97 342.632 195.733C340.569 164.237 338.862 137.077 322.5 136.473C322.358 136.473 322.145 136.473 322.002 136.473C310.976 136.473 305.143 149.038 297.176 166.322C286.647 189.148 272.207 220.424 236.923 243.03C197.087 268.654 153.693 248.737 107.668 227.612C72.3131 211.37 35.749 194.635 -0.103851 199.189C-0.31726 199.189 -0.53067 198.97 -0.53067 198.586C-0.53067 198.202 -0.388397 197.927 -0.174987 197.872C35.8201 193.263 72.4554 210.054 107.881 226.35C153.764 247.42 197.087 267.283 236.638 241.823C271.78 219.327 286.078 188.27 296.535 165.554C304.787 147.722 310.692 134.827 322.5 135.211C339.502 135.815 341.28 163.524 343.343 195.623C344.766 217.132 346.331 241.549 352.876 260.808C360.345 282.866 373.221 294.827 392.214 297.296C429.703 302.235 437.172 246.816 445.068 188.051C452.253 134.717 459.651 79.5734 490.667 68.1056C516.632 58.5034 535.127 87.5295 554.69 118.311C577.88 154.8 601.924 192.55 641.69 174.937C691.272 152.934 722.999 196.556 748.466 231.562C765.396 254.772 779.979 274.855 795.06 268.27C812.56 260.643 829.632 218.339 850.475 131.151C860.008 91.3704 868.544 61.2469 879.499 43.5789C889.458 27.4472 901.694 20.5336 921.541 19.8203C922.181 19.8203 922.892 19.8203 923.533 19.8203C967.495 19.8203 987.698 74.9643 1007.33 128.353C1021.35 166.487 1034.58 202.482 1055.63 216.528C1075.48 229.752 1092.77 198.805 1110.98 166.048C1139.01 115.733 1170.8 58.7229 1222.02 135.54C1262.28 195.952 1297.78 229.093 1330.65 236.885C1359.88 243.853 1384.43 230.465 1408.11 217.516C1441.12 199.519 1475.27 180.863 1522.79 216.364C1523 216.528 1523.07 216.912 1523 217.241C1522.93 217.571 1522.72 217.735 1522.5 217.571C1475.27 182.289 1441.26 200.835 1408.4 218.778C1384.64 231.782 1360.03 245.17 1330.58 238.202C1297.57 230.355 1261.93 197.104 1221.59 136.528C1170.95 60.5336 1139.43 117.049 1111.69 166.926C1096.25 194.58 1081.6 220.918 1065.31 220.918C1062.11 220.918 1058.83 219.93 1055.49 217.68C1034.15 203.524 1020.92 167.31 1006.83 128.956C987.342 75.8971 967.21 21.0823 923.675 21.0823C923.035 21.0823 922.394 21.0823 921.683 21.0823C883.198 22.5089 871.532 47.2552 851.329 131.59C830.415 219.217 813.129 261.741 795.345 269.477C779.908 276.226 765.112 255.979 748.039 232.55C722.714 197.708 691.13 154.361 641.974 176.199C601.853 194.032 577.667 156.007 554.263 119.299C534.843 88.7915 516.489 59.9849 490.88 69.4225C460.363 80.6708 453.036 135.431 445.922 188.38C438.31 245.17 431.055 298.942 396.98 298.942L396.909 298.888Z" fill="#15FF98"/>
</g>
<g opacity="0.94">
<path d="M399.043 302.07C397.407 302.07 395.771 301.96 394.064 301.686C349.603 294.717 346.473 239.409 343.912 194.91C342.063 161.768 340.569 135.65 324.065 135.65C313.039 135.65 307.49 147.996 299.808 165.06C289.635 187.667 275.621 218.558 240.551 243.03C200.857 270.849 156.468 250.218 109.446 228.435C73.5224 211.755 36.3892 194.525 0.0384215 199.134C-0.174988 199.134 -0.388397 198.915 -0.388397 198.531C-0.388397 198.147 -0.246125 197.872 -0.032715 197.818C36.4603 193.209 73.6647 210.438 109.66 227.173C156.539 248.901 200.786 269.477 240.266 241.823C275.194 217.461 289.066 186.734 299.239 164.237C307.064 146.899 312.755 134.333 324.136 134.279C341.351 134.279 342.988 162.317 344.766 194.745C347.256 238.696 350.386 293.401 394.206 300.314C431.41 306.185 438.239 248.243 445.424 186.899C451.969 131.535 458.656 74.3059 489.173 64.3197C515.138 55.8149 533.491 86.5419 552.84 119.134C576.173 158.311 600.288 198.805 640.836 179.93C691.059 156.61 723.924 199.244 750.315 233.483C767.886 256.309 783.109 276.007 798.475 268.654C816.33 260.15 833.332 216.418 853.677 126.816C874.093 37.0494 886.968 15.8697 922.75 13.4555C967.708 10.3828 988.338 70.4102 1008.26 128.407C1022.34 169.285 1035.57 207.914 1056.56 222.235C1076.12 235.458 1093.41 202.701 1111.69 167.969C1129.26 134.553 1149.25 96.6928 1174.36 94.3883C1190.08 92.9068 1206.16 105.143 1223.52 131.645C1264.35 194.086 1300.27 228.435 1333.21 236.72C1362.59 244.073 1386.92 230.52 1410.53 217.406C1442.83 199.409 1476.26 180.863 1522.72 216.144C1522.93 216.309 1523 216.693 1522.93 217.022C1522.86 217.351 1522.64 217.516 1522.43 217.351C1476.19 182.289 1442.97 200.781 1410.75 218.668C1387.06 231.837 1362.66 245.444 1333.07 238.037C1299.92 229.752 1263.92 195.239 1222.95 132.632C1205.73 106.35 1189.87 94.2785 1174.36 95.7051C1149.53 97.9548 1129.76 135.595 1112.26 168.846C1093.76 203.908 1076.33 237.049 1056.27 223.442C1035.07 208.956 1021.7 170.163 1007.62 129.066C987.769 71.3979 967.282 11.8094 922.75 14.7723C887.395 17.1317 874.591 38.2017 854.317 127.255C833.829 217.241 816.686 261.247 798.546 269.862C782.825 277.379 767.459 257.516 749.746 234.471C723.497 200.396 690.774 158.037 640.978 181.137C600.004 200.177 575.746 159.409 552.271 119.958C533.064 87.6393 514.853 57.1317 489.244 65.5268C459.296 75.3485 452.609 132.139 446.135 187.063C442.508 218.119 439.022 247.475 431.624 269.203C424.154 291.151 413.484 301.905 399.043 301.905V302.07Z" fill="#15FF98"/>
</g>
<g opacity="0.97">
<path d="M401.319 305.307C399.541 305.307 397.763 305.143 395.913 304.813C350.315 296.528 347.469 239.683 345.264 194.086C343.628 160.561 342.276 134.059 325.488 134.882C314.818 135.376 309.838 146.679 302.226 163.853C292.338 186.185 278.822 216.802 243.966 243.14C204.414 273.099 159.029 251.864 111.011 229.368C74.5183 212.248 36.816 194.58 -0.103851 199.189C-0.31726 199.189 -0.53067 198.97 -0.53067 198.586C-0.53067 198.202 -0.388397 197.927 -0.174987 197.872C36.816 193.209 74.6606 210.931 111.154 228.106C159.029 250.547 204.271 271.727 243.539 241.988C278.253 215.76 291.698 185.307 301.515 163.085C308.984 146.24 314.32 134.059 325.346 133.565C342.916 132.687 344.339 161.165 345.904 193.977C348.109 239.134 350.884 295.321 395.842 303.551C432.833 310.3 438.951 249.889 445.495 185.911C451.328 128.572 457.446 69.3128 487.395 60.808C513.431 53.4006 531.57 85.8285 550.777 120.177C574.181 161.988 598.368 205.17 639.698 185.252C690.561 160.506 724.564 202.152 751.88 235.678C770.162 258.119 785.955 277.433 801.605 269.368C819.744 259.985 836.746 214.772 856.522 122.92C866.908 74.8546 874.591 49.834 883.838 33.5926C893.371 16.9671 904.895 9.39506 923.746 7.58436C968.349 3.19479 988.978 67.118 1008.97 128.901C1023.05 172.577 1036.43 213.839 1057.34 228.38C1076.62 241.713 1093.05 208.682 1112.19 170.492C1130.11 134.608 1150.46 93.8944 1176.14 91.1509C1191.79 89.4499 1207.72 101.576 1224.94 128.243C1266.34 192.879 1302.55 228.545 1335.63 237.269C1365.08 245.06 1389.33 231.233 1412.74 217.9C1444.39 199.903 1477.12 181.302 1522.57 216.364C1522.79 216.528 1522.86 216.912 1522.79 217.241C1522.72 217.571 1522.43 217.735 1522.29 217.571C1477.12 182.728 1444.54 201.219 1413.02 219.162C1394.17 229.861 1375.11 240.726 1353.05 240.726C1319.91 240.726 1280.07 216.089 1224.37 129.176C1207.37 102.783 1191.58 90.7668 1176.14 92.4678C1150.81 95.2113 1130.54 135.65 1112.76 171.37C1094.26 208.353 1076.83 243.305 1057.06 229.587C1035.86 214.882 1022.48 173.401 1008.33 129.505C988.48 68.0508 967.922 4.45679 923.817 8.84637C889.103 12.2483 876.654 33.6475 857.305 123.305C837.386 215.595 820.242 261.027 801.818 270.575C785.812 278.86 769.878 259.326 751.382 236.72C724.208 203.414 690.418 161.933 639.911 186.514C598.083 206.652 573.754 163.14 550.208 121.11C531.144 87.0357 513.146 54.882 487.537 62.1248C458.086 70.465 452.111 129.285 446.278 186.185C443.148 217.132 439.804 249.066 432.762 271.672C425.648 294.333 415.333 305.417 401.177 305.417L401.319 305.307Z" fill="#15FF98"/>
</g>
<path d="M403.525 308.544C401.675 308.544 399.755 308.325 397.763 307.941C351.026 298.284 348.536 239.957 346.544 193.099C345.122 159.244 343.983 132.577 326.911 134.059C316.596 134.937 311.83 145.966 304.645 162.591C295.113 184.704 282.095 214.937 247.451 243.195C208.042 275.348 161.732 253.455 112.719 230.245C75.6565 212.687 37.314 194.525 -0.103843 199.189C-0.317253 199.189 -0.530663 198.97 -0.530663 198.586C-0.530663 198.202 -0.388389 197.927 -0.174979 197.872C37.3851 193.208 75.7277 211.37 112.861 228.983C161.732 252.138 207.899 273.977 247.024 242.042C281.526 213.894 294.472 183.826 303.934 161.823C310.976 145.472 316.098 133.675 326.768 132.742C344.553 131.206 345.833 159.848 347.185 193.044C349.105 239.409 351.595 297.132 397.692 306.679C434.398 314.306 439.947 251.37 445.851 184.758C451.044 125.499 456.45 64.2098 485.901 57.1316C511.937 50.8764 529.934 85.0054 548.999 121.11C572.474 165.609 596.732 211.59 638.844 190.355C690.347 164.402 725.489 205.115 753.73 237.763C772.723 259.765 789.156 278.805 805.09 269.916C823.586 259.601 840.445 212.961 859.723 118.75C878.29 28.8188 891.094 5.77354 925.098 1.32909C969.273 -4.43222 989.974 63.4416 1010.03 129.066C1024.19 175.54 1037.56 219.436 1058.48 234.251C1077.4 247.639 1093.9 212.907 1113.11 172.687C1131.46 134.169 1152.17 90.5472 1178.41 87.4196C1193.99 85.6089 1209.79 97.6803 1226.72 124.512C1320.47 272.934 1368.78 244.951 1415.44 217.845C1446.39 199.902 1478.33 181.357 1522.86 216.254C1523.07 216.418 1523.14 216.802 1523.07 217.132C1523 217.461 1522.72 217.625 1522.57 217.461C1478.33 182.783 1447.95 200.451 1415.73 219.107C1368.85 246.322 1320.33 274.416 1226.22 125.444C1209.43 98.8874 1193.85 86.8709 1178.56 88.6816C1152.66 91.7543 1132.03 135.156 1113.82 173.455C1095.26 212.413 1077.76 249.23 1058.34 235.458C1037.21 220.479 1023.76 176.363 1009.54 129.669C990.401 67.0081 970.696 2.31675 930.504 2.31675C928.868 2.31675 927.161 2.42649 925.382 2.64597C891.735 7.03554 879.072 29.9162 860.79 119.079C841.37 213.73 824.368 260.643 805.659 271.068C789.369 280.177 772.794 260.972 753.588 238.75C725.489 206.213 690.561 165.719 639.413 191.507C596.803 212.961 572.332 166.651 548.714 121.878C529.792 86.0479 511.937 52.1933 486.328 58.3387C457.446 65.2523 452.111 126.048 446.918 184.813C444.073 216.967 441.156 250.218 434.327 273.702C427.569 297.022 417.468 308.49 403.667 308.49L403.525 308.544Z" fill="#15FF98"/>
</svg>
